<svg width="120" height="120" viewBox="0 0 120 120" fill="none" xmlns="http://www.w3.org/2000/svg">
<g clip-path="url(#clip0_1183_52)">
<path d="M66.7969 2H63.3984V56.6016H118V53.2031C118 25.0931 94.9069 2 66.7969 2ZM19.6909 105.115C28.6614 112.97 40.3693 118 53.2031 118C81.3132 118 104.18 94.9069 104.18 66.7969V63.3984H61.4072L19.6909 105.115ZM56.6016 15.8203H53.2031C42.1052 15.8203 31.856 19.4245 23.4772 25.4685L56.6016 58.5928V15.8203ZM18.2164 29.8189C8.3945 39.1166 2 52.2357 2 66.7969C2 79.6307 7.02969 91.3383 14.8853 100.309L51.7959 63.3984L18.2164 29.8189Z" fill="white"/>
</g>
<defs>
<clipPath id="clip0_1183_52">
<rect width="116" height="116" fill="white" transform="translate(2 2)"/>
</clipPath>
</defs>
</svg>
