<svg width="40" height="40" viewBox="0 0 40 40" fill="none" xmlns="http://www.w3.org/2000/svg">
<path fill-rule="evenodd" clip-rule="evenodd" d="M17.4946 9.40089H14.1938C14.0876 9.4011 13.9857 9.44339 13.9106 9.5185C13.8355 9.59361 13.7932 9.69542 13.793 9.80164V17.1919H11.0783V12.0292C11.0783 11.8084 10.8983 11.6284 10.6776 11.6284H7.3767C7.27048 11.6286 7.16867 11.6709 7.09356 11.746C7.01845 11.8211 6.97616 11.9229 6.97595 12.0292V17.1919H4.94271C4.77265 17.1919 4.60956 17.2595 4.48931 17.3797C4.36906 17.5 4.30151 17.6631 4.30151 17.8331C4.30151 18.0032 4.36906 18.1663 4.48931 18.2865C4.60956 18.4068 4.77265 18.4743 4.94271 18.4743H23.3047L23.5065 18.0201C23.3228 17.656 23.1665 17.2788 23.0387 16.8916L22.4437 16.6626C22.1562 16.5524 21.9089 16.3576 21.7347 16.1038C21.5604 15.85 21.4674 15.5492 21.4679 15.2413V13.3723C21.4679 12.7405 21.854 12.1781 22.4436 11.9512L23.039 11.722C23.1667 11.3349 23.323 10.9579 23.5066 10.594L23.2475 10.0105C23.123 9.72919 23.0864 9.41678 23.1426 9.11429C23.1988 8.8118 23.3451 8.53338 23.5624 8.31557L24.7193 7.15869L24.7195 5.86347H26.514C26.753 5.86347 26.8821 5.58462 26.7274 5.40244L22.8743 0.864272C22.848 0.833352 22.8153 0.808515 22.7785 0.791481C22.7416 0.774448 22.7016 0.765625 22.661 0.765625C22.6204 0.765625 22.5803 0.774448 22.5435 0.791481C22.5067 0.808515 22.474 0.833352 22.4477 0.864272L18.5946 5.40244C18.4399 5.58454 18.569 5.86347 18.8079 5.86347H20.6025C20.6025 10.573 20.6092 12.7112 20.6098 17.1919H17.8953V9.80156C17.8951 9.69535 17.8528 9.59356 17.7777 9.51847C17.7026 9.44338 17.6008 9.4011 17.4946 9.40089ZM10.6592 36.5901L4.88812 26.3932C4.60912 25.9002 3.97738 25.725 3.4843 26.0041L1.52142 27.115C1.02842 27.3941 0.853293 28.0257 1.13237 28.5187L6.90333 38.7157C7.18234 39.2087 7.81408 39.3838 8.30716 39.1047L10.2701 37.9938C10.763 37.7148 10.9382 37.0832 10.6592 36.5901ZM3.65229 29.1048C3.56075 29.1192 3.46726 29.1153 3.37723 29.0933C3.2872 29.0713 3.20243 29.0317 3.12782 28.9768C3.0532 28.9218 2.99023 28.8526 2.94254 28.7731C2.89485 28.6937 2.86339 28.6056 2.84998 28.5139C2.83657 28.4222 2.84148 28.3287 2.86443 28.2389C2.88737 28.1492 2.9279 28.0648 2.98365 27.9908C3.03941 27.9168 3.10929 27.8546 3.18925 27.8077C3.26922 27.7609 3.35768 27.7304 3.44951 27.718C3.63241 27.6932 3.81769 27.7416 3.96511 27.8527C4.11253 27.9637 4.21019 28.1285 4.23689 28.3111C4.2636 28.4937 4.21718 28.6795 4.10773 28.8281C3.99827 28.9767 3.83462 29.0761 3.65229 29.1048ZM17.0573 28.8466C16.8952 28.801 16.7576 28.6934 16.6742 28.5471C16.5909 28.4008 16.5685 28.2275 16.612 28.0648C16.6555 27.9022 16.7613 27.7631 16.9065 27.6779C17.0517 27.5926 17.2247 27.568 17.3879 27.6094C18.95 28.0279 20.4884 28.5214 22.0781 28.8325C22.7997 28.8804 23.352 28.6074 23.5478 27.8761C23.7404 27.1573 23.2836 26.475 22.6052 26.2393C20.5029 25.8542 18.4635 25.117 16.8598 24.5372C15.7024 24.1188 14.8179 23.6637 13.5519 23.9835C12.9147 24.1446 12.2776 24.4587 11.6404 24.8278L6.99799 27.5175L10.4417 33.6023L11.2258 33.1496C11.302 33.0974 11.3885 33.0622 11.4795 33.0466C11.5705 33.031 11.6639 33.0353 11.7531 33.0592L20.962 35.5267C22.1174 35.8364 23.2096 35.6967 24.2312 35.0678L36.9274 27.2525C37.5614 26.8621 37.642 25.7924 37.2664 25.1872C36.4333 23.8449 34.1109 24.974 33.1547 25.5309L26.1586 29.6057C25.0511 30.2507 23.8775 30.4279 22.619 30.2267C20.7142 29.9218 18.9113 29.3434 17.0573 28.8466ZM28.4755 14.8762C28.416 14.8166 28.3688 14.746 28.3366 14.6682C28.3043 14.5904 28.2877 14.507 28.2877 14.4228C28.2877 14.3387 28.3043 14.2553 28.3366 14.1775C28.3688 14.0997 28.416 14.029 28.4755 13.9695C28.5351 13.91 28.6057 13.8627 28.6835 13.8305C28.7613 13.7983 28.8447 13.7817 28.9289 13.7817C29.0131 13.7817 29.0964 13.7983 29.1742 13.8305C29.252 13.8627 29.3227 13.91 29.3822 13.9695L30.0864 14.6737L32.391 12.5823C32.5168 12.4697 32.6819 12.4115 32.8505 12.4201C33.0191 12.4288 33.1774 12.5037 33.2911 12.6285C33.4047 12.7534 33.4644 12.918 33.4572 13.0867C33.45 13.2553 33.3764 13.4143 33.2526 13.529L30.5211 16.0079C30.2729 16.2624 29.8614 16.262 29.6108 16.0115L28.4755 14.8762ZM38.8463 13.148L37.6542 12.6891C37.4834 11.9716 37.1992 11.286 36.8123 10.658L37.3311 9.48993C37.3514 9.44564 37.3575 9.39616 37.3486 9.34826C37.3397 9.30036 37.3162 9.25637 37.2814 9.22231L35.9597 7.90064C35.9257 7.8658 35.8817 7.84233 35.8338 7.83344C35.7859 7.82454 35.7364 7.83066 35.6921 7.85095L34.5235 8.37C33.8957 7.98323 33.2103 7.69905 32.4931 7.52818L32.0341 6.33579C32.0171 6.29013 31.9865 6.25083 31.9463 6.22326C31.9061 6.19569 31.8584 6.18119 31.8097 6.18174H29.9407C29.892 6.18118 29.8443 6.19568 29.8041 6.22325C29.764 6.25083 29.7333 6.29013 29.7163 6.33579L29.2573 7.52818C28.5401 7.69904 27.8546 7.98321 27.2269 8.37L26.0583 7.85095C26.014 7.83066 25.9645 7.82454 25.9166 7.83344C25.8687 7.84233 25.8247 7.8658 25.7907 7.90064L24.4691 9.22231C24.4343 9.25637 24.4108 9.30035 24.4019 9.34825C24.393 9.39615 24.3991 9.44563 24.4193 9.48993L24.9383 10.6584C24.5515 11.2862 24.2673 11.9717 24.0965 12.689L22.9042 13.148C22.8586 13.165 22.8193 13.1956 22.7917 13.2358C22.7642 13.2759 22.7497 13.3236 22.7502 13.3723V15.2413C22.7502 15.3428 22.8096 15.4293 22.9042 15.4658L24.0963 15.9246C24.2671 16.6421 24.5513 17.3277 24.9382 17.9556L24.4194 19.1237C24.3991 19.168 24.393 19.2175 24.4019 19.2654C24.4108 19.3133 24.4342 19.3573 24.4691 19.3913L25.7908 20.7129C25.8248 20.7478 25.8688 20.7713 25.9167 20.7802C25.9646 20.7891 26.0141 20.783 26.0584 20.7627L27.2269 20.2437C27.8546 20.6304 28.5401 20.9146 29.2573 21.0854L29.7163 22.2778C29.7333 22.3234 29.7639 22.3627 29.8041 22.3903C29.8442 22.4179 29.8919 22.4324 29.9406 22.4318H31.8096C31.8583 22.4324 31.906 22.4179 31.9462 22.3903C31.9863 22.3627 32.017 22.3234 32.034 22.2778L32.4927 21.0857C33.2102 20.9149 33.8958 20.6307 34.5237 20.2437L35.6919 20.7625C35.7362 20.7828 35.7857 20.789 35.8336 20.7801C35.8815 20.7712 35.9255 20.7477 35.9596 20.7129L37.2811 19.3913C37.316 19.3572 37.3395 19.3132 37.3483 19.2653C37.3572 19.2174 37.3511 19.1679 37.3308 19.1236L36.8119 17.9551C37.1986 17.3273 37.4828 16.6419 37.6536 15.9246L38.846 15.4657C38.8916 15.4487 38.9309 15.418 38.9585 15.3779C38.9861 15.3377 39.0006 15.29 39 15.2413V13.3723C39.0007 13.3236 38.9863 13.2759 38.9588 13.2358C38.9312 13.1956 38.892 13.1649 38.8463 13.148ZM30.8753 18.7915C28.3985 18.7915 26.3907 16.7837 26.3907 14.3069C26.3907 11.8301 28.3985 9.82223 30.8753 9.82223C33.3521 9.82223 35.3599 11.8301 35.3599 14.3069C35.3599 16.7837 33.3521 18.7915 30.8753 18.7915Z" fill="white"/>
</svg>
