<svg width="40" height="40" viewBox="0 0 40 40" fill="none" xmlns="http://www.w3.org/2000/svg">
<g clip-path="url(#clip0_1286_1132)">
<path d="M31.9684 31.9686C30.8738 34.5242 29.2357 36.8108 27.1681 38.6695C29.7803 37.659 32.1526 36.1141 34.1331 34.1337C36.1136 32.1533 37.6587 29.781 38.6693 27.1689C36.8065 29.2319 34.521 30.8692 31.9684 31.9693V31.9686ZM8.02748 31.9686C5.47499 30.8686 3.18949 29.2316 1.32658 27.1689C2.33723 29.781 3.8823 32.1533 5.86282 34.1337C7.84335 36.1141 10.2157 37.659 12.8278 38.6695C10.7602 36.8108 9.12212 34.5242 8.02748 31.9686ZM19.998 34.3998C16.6391 34.4143 13.3012 33.8712 10.1202 32.7928C12.4814 37.1924 16.0283 39.9929 19.998 39.9929C23.9677 39.9929 27.5145 37.1932 29.8758 32.7921C26.6948 33.8708 23.3568 34.4141 19.998 34.3998ZM8.02748 8.0276C9.12033 5.47544 10.7557 3.19178 12.82 1.33527C10.2111 2.34577 7.84202 3.8899 5.86435 5.8688C3.88669 7.84769 2.34403 10.2177 1.33515 12.8272C3.18916 10.7584 5.47334 9.12021 8.02748 8.0276ZM7.20398 29.8759C5.07108 23.4609 5.07108 16.5281 7.20398 10.1132C-2.35455 15.1256 -2.35955 24.8684 7.20398 29.8759ZM40 19.9981C40 16.0284 37.1923 12.4822 32.792 10.1132C34.9249 16.5281 34.9249 23.4609 32.792 29.8759C37.1916 27.5146 40 23.9606 40 19.9981ZM31.9684 8.0276C34.523 9.12054 36.8074 10.7592 38.6615 12.8286C37.6528 10.2187 36.1101 7.84819 34.1323 5.86891C32.1545 3.88963 29.7852 2.34521 27.176 1.33456C29.2403 3.19127 30.8757 5.47518 31.9684 8.0276ZM19.998 5.58922C23.3576 5.57364 26.6962 6.11969 29.8758 7.20481C27.5145 2.80373 23.9677 -0.00390625 19.998 -0.00390625C16.0283 -0.00390625 12.4814 2.80373 10.1202 7.20481C13.2998 6.11969 16.6384 5.57364 19.998 5.58922Z" fill="white"/>
<path d="M19.998 7.12589C16.293 7.09646 12.6181 7.79435 9.18176 9.18002C7.79975 12.6174 7.102 16.2916 7.12763 19.9963C7.10264 23.7012 7.80037 27.3755 9.18176 30.8133C12.6197 32.1926 16.2938 32.8877 19.998 32.8596C23.7023 32.8877 27.3764 32.1926 30.8143 30.8133C32.1957 27.3755 32.8935 23.7012 32.8685 19.9963C32.8941 16.2916 32.1963 12.6174 30.8143 9.18002C27.378 7.79435 23.7031 7.09646 19.998 7.12589ZM15.9898 22.0276C15.9853 22.7674 15.6884 23.4754 15.1639 23.9973C14.6394 24.5191 13.9299 24.8123 13.19 24.8131H12.3744C11.7297 24.8138 11.1046 24.5923 10.6042 24.1858C10.1038 23.7794 9.75886 23.2129 9.62744 22.5818C9.58662 22.3819 9.62689 22.1739 9.7394 22.0037C9.85192 21.8334 10.0275 21.7148 10.2274 21.674C10.4273 21.6332 10.6353 21.6735 10.8055 21.786C10.9758 21.8985 11.0944 22.074 11.1352 22.274C11.1942 22.5583 11.3499 22.8133 11.5759 22.9957C11.8018 23.178 12.084 23.2763 12.3744 23.2739H13.1893C13.5198 23.2739 13.8369 23.1426 14.0706 22.9089C14.3043 22.6751 14.4356 22.3581 14.4356 22.0276C14.4356 21.697 14.3043 21.38 14.0706 21.1463C13.8369 20.9126 13.5198 20.7812 13.1893 20.7812C12.9853 20.7812 12.7896 20.7002 12.6454 20.5559C12.5011 20.4117 12.4201 20.216 12.4201 20.012C12.4201 19.808 12.5011 19.6124 12.6454 19.4681C12.7896 19.3238 12.9853 19.2428 13.1893 19.2428C13.5209 19.2428 13.8389 19.1111 14.0734 18.8766C14.3078 18.6421 14.4396 18.3241 14.4396 17.9925C14.4396 17.6609 14.3078 17.3429 14.0734 17.1085C13.8389 16.874 13.5209 16.7423 13.1893 16.7423H12.3744C12.0843 16.7411 11.8028 16.8399 11.577 17.022C11.3513 17.2041 11.1953 17.4585 11.1352 17.7422C11.094 17.9418 10.9755 18.117 10.8055 18.2295C10.6355 18.3419 10.4279 18.3824 10.2281 18.3421C9.08105 18.0193 9.81242 16.5651 10.3967 16.0195C10.7733 15.6862 11.219 15.4403 11.7017 15.2993C12.1845 15.1583 12.6925 15.1257 13.1893 15.2038C13.9297 15.2031 14.6402 15.4958 15.1651 16.0179C15.69 16.54 15.9866 17.249 15.9898 17.9893C15.994 18.3692 15.9181 18.7457 15.7669 19.0942C15.6158 19.4427 15.3929 19.7555 15.1127 20.012C15.3889 20.2702 15.6093 20.5822 15.7601 20.9289C15.911 21.2756 15.9891 21.6495 15.9898 22.0276ZM16.8054 21.7047V18.4193C16.8178 17.7796 17.0167 17.1574 17.3779 16.6292C17.7391 16.1011 18.2467 15.69 18.8383 15.4464C19.43 15.2029 20.0799 15.1375 20.7083 15.2583C21.3366 15.3792 21.9159 15.681 22.375 16.1266C22.9064 16.6344 23.6606 17.7965 22.6828 18.235C22.589 18.273 22.4885 18.2919 22.3872 18.2908C22.286 18.2896 22.186 18.2684 22.093 18.2284C22 18.1883 21.9159 18.1302 21.8455 18.0574C21.7751 17.9846 21.7198 17.8986 21.6829 17.8043C21.5529 17.4843 21.3306 17.2101 21.0443 17.0168C20.758 16.8234 20.4206 16.7197 20.0752 16.7187C19.6202 16.7151 19.1824 16.8921 18.8578 17.2109C18.5333 17.5298 18.3484 17.9643 18.3439 18.4193V19.0814C20.3273 17.8136 23.2635 19.3499 23.1907 21.7047C23.0521 25.7816 16.9361 25.7744 16.8054 21.7047ZM30.3837 21.6197C30.3837 22.4655 30.0477 23.2767 29.4496 23.8747C28.8515 24.4728 28.0404 24.8088 27.1946 24.8088C26.3488 24.8088 25.5377 24.4728 24.9396 23.8747C24.3416 23.2767 24.0056 22.4655 24.0056 21.6197V18.3964C24.0056 17.5506 24.3416 16.7395 24.9396 16.1414C25.5377 15.5434 26.3488 15.2074 27.1946 15.2074C28.0404 15.2074 28.8515 15.5434 29.4496 16.1414C30.0477 16.7395 30.3837 17.5506 30.3837 18.3964V21.6197ZM29.3687 14.9967C28.8586 14.9967 28.3694 14.7941 28.0087 14.4333C27.648 14.0726 27.4453 13.5834 27.4453 13.0733C27.4453 12.5632 27.648 12.0739 28.0087 11.7132C28.3694 11.3525 28.8586 11.1499 29.3687 11.1499C29.8789 11.1499 30.3681 11.3525 30.7288 11.7132C31.0895 12.0739 31.2922 12.5632 31.2922 13.0733C31.2922 13.5834 31.0895 14.0726 30.7288 14.4333C30.3681 14.7941 29.8789 14.9967 29.3687 14.9967Z" fill="white"/>
<path d="M25.5445 18.3995V21.6228C25.5445 22.0605 25.7184 22.4803 26.0278 22.7897C26.3373 23.0992 26.7571 23.2731 27.1947 23.2731C27.6324 23.2731 28.0521 23.0992 28.3616 22.7897C28.6711 22.4803 28.845 22.0605 28.845 21.6228V18.3995C28.845 17.962 28.6711 17.5423 28.3617 17.2329C28.0523 16.9235 27.6327 16.7497 27.1951 16.7497C26.7575 16.7497 26.3379 16.9235 26.0285 17.2329C25.719 17.5423 25.5445 17.962 25.5445 18.3995ZM19.9978 20.1687C19.7884 20.1576 19.5789 20.1893 19.3821 20.2619C19.1853 20.3344 19.0054 20.4463 18.8532 20.5906C18.7011 20.735 18.5799 20.9088 18.4971 21.1015C18.4143 21.2942 18.3716 21.5017 18.3716 21.7114C18.3716 21.9211 18.4143 22.1287 18.4971 22.3214C18.5799 22.514 18.7011 22.6878 18.8532 22.8322C19.0054 22.9765 19.1853 23.0884 19.3821 23.1609C19.5789 23.2335 19.7884 23.2652 19.9978 23.2541C20.2072 23.2652 20.4167 23.2335 20.6135 23.1609C20.8103 23.0884 20.9902 22.9765 21.1424 22.8322C21.2945 22.6878 21.4157 22.514 21.4985 22.3214C21.5813 22.1287 21.624 21.9211 21.624 21.7114C21.624 21.5017 21.5813 21.2942 21.4985 21.1015C21.4157 20.9088 21.2945 20.735 21.1424 20.5906C20.9902 20.4463 20.8103 20.3344 20.6135 20.2619C20.4167 20.1893 20.2072 20.1576 19.9978 20.1687ZM29.3685 12.6914C29.2693 12.6957 29.1757 12.7381 29.107 12.8097C29.0384 12.8814 29.0001 12.9768 29.0001 13.076C29.0001 13.1752 29.0384 13.2706 29.107 13.3423C29.1757 13.414 29.2693 13.4564 29.3685 13.4606C29.4676 13.4564 29.5613 13.414 29.6299 13.3423C29.6986 13.2706 29.7369 13.1752 29.7369 13.076C29.7369 12.9768 29.6986 12.8814 29.6299 12.8097C29.5613 12.7381 29.4676 12.6957 29.3685 12.6914Z" fill="white"/>
</g>
<defs>
<clipPath id="clip0_1286_1132">
<rect width="40" height="40" fill="white"/>
</clipPath>
</defs>
</svg>
