<svg width="40" height="40" viewBox="0 0 40 40" fill="none" xmlns="http://www.w3.org/2000/svg">
<path d="M13.1881 26.7822C12.0544 27.6688 11.1375 28.802 10.507 30.0958C9.87659 31.3896 9.54916 32.8101 9.5496 34.2493V37.0993H3.84954C2.27252 37.0993 0.999512 35.8263 0.999512 34.2493V32.3493C0.999512 28.6727 3.97304 25.6992 7.64958 25.6992H9.5496C10.8986 25.6992 12.1431 26.0982 13.1881 26.7822Z" fill="white"/>
<path d="M31.3996 25.7024C33.7606 25.7024 35.6746 23.7884 35.6746 21.4274C35.6746 19.0663 33.7606 17.1523 31.3996 17.1523C29.0385 17.1523 27.1245 19.0663 27.1245 21.4274C27.1245 23.7884 29.0385 25.7024 31.3996 25.7024Z" fill="white"/>
<path d="M8.59926 25.7024C10.9603 25.7024 12.8743 23.7884 12.8743 21.4274C12.8743 19.0663 10.9603 17.1523 8.59926 17.1523C6.23822 17.1523 4.32422 19.0663 4.32422 21.4274C4.32422 23.7884 6.23822 25.7024 8.59926 25.7024Z" fill="white"/>
<path d="M38.9997 32.3493V34.2493C38.9997 35.8263 37.7266 37.0993 36.1496 37.0993H30.4496V34.2493C30.4496 31.2188 29.0246 28.5207 26.811 26.7822C27.856 26.0982 29.1006 25.6992 30.4496 25.6992H32.3496C36.0261 25.6992 38.9997 28.6727 38.9997 32.3493Z" fill="white"/>
<path d="M20 26.6532C22.8857 26.6532 25.225 24.3139 25.225 21.4282C25.225 18.5425 22.8857 16.2031 20 16.2031C17.1142 16.2031 14.7749 18.5425 14.7749 21.4282C14.7749 24.3139 17.1142 26.6532 20 26.6532Z" fill="white"/>
<path d="M20.9495 26.6522H19.0495C14.859 26.6522 11.4494 30.0618 11.4494 34.2523V37.1023C11.4494 38.6736 12.7281 39.9523 14.2994 39.9523H25.6995C27.2709 39.9523 28.5496 38.6736 28.5496 37.1023V34.2523C28.5496 30.0618 25.14 26.6522 20.9495 26.6522ZM33.7746 13.0519L31.4822 13.867C31.3319 13.9204 31.1707 13.9365 31.0127 13.9137C30.8548 13.8908 30.7047 13.8299 30.5756 13.736C30.4465 13.6422 30.3422 13.5183 30.2718 13.3751C30.2013 13.2319 30.1668 13.0737 30.1712 12.9141L30.2377 10.4821L28.7538 8.55358C28.6566 8.42702 28.5916 8.27871 28.5645 8.12143C28.5375 7.96416 28.549 7.80266 28.5983 7.65087C28.6476 7.49909 28.7331 7.36158 28.8474 7.25022C28.9617 7.13886 29.1014 7.057 29.2545 7.01171L31.5886 6.3239L32.9643 4.31653C33.0545 4.18486 33.1754 4.07716 33.3166 4.00274C33.4578 3.92832 33.615 3.88943 33.7746 3.88943C33.9342 3.88943 34.0914 3.92832 34.2326 4.00274C34.3738 4.07716 34.4948 4.18486 34.585 4.31653L35.9606 6.3239L38.2948 7.01171C38.9569 7.20646 39.2163 8.00637 38.7954 8.55358L37.3115 10.4821L37.378 12.9141C37.3822 13.0736 37.3476 13.2317 37.277 13.3748C37.2065 13.5179 37.1022 13.6417 36.9732 13.7354C36.8441 13.8292 36.6942 13.8902 36.5363 13.9131C36.3784 13.9361 36.2174 13.9202 36.067 13.867L33.7746 13.0519ZM6.22434 13.0519L3.93197 13.867C3.78159 13.9204 3.62044 13.9365 3.46247 13.9137C3.3045 13.8908 3.15447 13.8299 3.02536 13.736C2.89625 13.6422 2.79195 13.5183 2.72149 13.3751C2.65103 13.2319 2.61652 13.0737 2.62096 12.9141L2.68746 10.4821L1.20355 8.55358C1.10632 8.42702 1.04136 8.27871 1.01427 8.12143C0.98718 7.96416 0.99878 7.80266 1.04807 7.65087C1.09735 7.49909 1.18284 7.36158 1.29716 7.25022C1.41147 7.13886 1.55117 7.057 1.7042 7.01171L4.03837 6.3239L5.41399 4.31653C5.5042 4.18486 5.62514 4.07716 5.76633 4.00274C5.90753 3.92832 6.06474 3.88943 6.22434 3.88943C6.38395 3.88943 6.54116 3.92832 6.68236 4.00274C6.82355 4.07716 6.94449 4.18486 7.0347 4.31653L8.41032 6.3239L10.7445 7.01171C11.4066 7.20646 11.666 8.00637 11.2451 8.55358L9.76123 10.4821L9.82773 12.9141C9.83194 13.0736 9.79729 13.2317 9.72676 13.3748C9.65623 13.5179 9.55194 13.6417 9.4229 13.7354C9.29385 13.8292 9.14393 13.8902 8.98605 13.9131C8.82818 13.9361 8.6671 13.9202 8.51672 13.867L6.22434 13.0519ZM19.9995 10.9143L17.2815 11.8805C17.1032 11.9439 16.9122 11.9628 16.725 11.9357C16.5377 11.9087 16.3599 11.8364 16.2068 11.7252C16.0538 11.614 15.9301 11.4671 15.8466 11.2974C15.763 11.1276 15.7221 10.9401 15.7273 10.7509L15.8061 7.86767L14.0467 5.581C13.9315 5.43095 13.8545 5.25511 13.8224 5.06866C13.7903 4.88221 13.8041 4.69075 13.8625 4.51081C13.921 4.33088 14.0224 4.16787 14.1579 4.03587C14.2934 3.90387 14.4591 3.80685 14.6405 3.75318L17.4079 2.93712L19.039 0.557346C19.146 0.401184 19.2894 0.273442 19.4568 0.185176C19.6243 0.0969105 19.8107 0.0507813 20 0.0507812C20.1892 0.0507812 20.3757 0.0969105 20.5431 0.185176C20.7105 0.273442 20.8539 0.401184 20.9609 0.557346L22.5921 2.93712L25.3594 3.75318C25.5409 3.80685 25.7065 3.90387 25.842 4.03587C25.9776 4.16787 26.0789 4.33088 26.1374 4.51081C26.1958 4.69075 26.2096 4.88221 26.1775 5.06866C26.1454 5.25511 26.0684 5.43095 25.9532 5.581L24.1938 7.86767L24.2726 10.7509C24.2778 10.9401 24.2369 11.1276 24.1533 11.2974C24.0698 11.4671 23.9461 11.614 23.7931 11.7252C23.64 11.8364 23.4622 11.9087 23.275 11.9357C23.0877 11.9628 22.8967 11.9439 22.7184 11.8805L19.9995 10.9143Z" fill="white"/>
</svg>
