<svg width="40" height="40" viewBox="0 0 40 40" fill="none" xmlns="http://www.w3.org/2000/svg">
<path d="M20.0012 30.9798C26.0559 30.9798 30.9816 26.054 30.9816 19.9993C30.9816 13.9447 26.0558 9.01888 20.0012 9.01888C13.9453 9.01888 9.01852 13.9447 9.01852 19.9993C9.01852 26.054 13.9454 30.9798 20.0012 30.9798ZM18.8293 13.8372V13.2693C18.8293 12.9585 18.9528 12.6605 19.1725 12.4407C19.3923 12.2209 19.6904 12.0975 20.0012 12.0975C20.312 12.0975 20.6101 12.2209 20.8298 12.4407C21.0496 12.6605 21.1731 12.9585 21.1731 13.2693V13.8397C22.2681 14.143 23.2006 14.8605 23.6994 15.8351C23.841 16.1117 23.8668 16.4333 23.7713 16.7291C23.6758 17.0248 23.4667 17.2705 23.19 17.4121C22.9133 17.5537 22.5917 17.5796 22.2959 17.484C22.0002 17.3885 21.7545 17.1794 21.6129 16.9027C21.3395 16.3687 20.7059 16.0237 19.9985 16.0237C19.0558 16.0237 18.2593 16.6658 18.2593 17.4257C18.2593 18.295 18.5372 18.4952 20.2419 18.8538C21.0648 19.0269 21.9156 19.2059 22.6474 19.6883C23.6006 20.3168 24.0842 21.2873 24.0842 22.5732C24.0842 24.2643 22.8551 25.6966 21.1731 26.1604V26.7294C21.1731 27.0402 21.0496 27.3383 20.8298 27.5581C20.6101 27.7778 20.312 27.9013 20.0012 27.9013C19.6904 27.9013 19.3923 27.7778 19.1725 27.5581C18.9528 27.3383 18.8293 27.0402 18.8293 26.7294V26.1603C17.7334 25.8576 16.7998 25.1395 16.3005 24.1637C16.1597 23.8871 16.1344 23.566 16.2301 23.2707C16.3258 22.9755 16.5347 22.7302 16.811 22.5889C17.0874 22.4475 17.4085 22.4215 17.7039 22.5166C17.9994 22.6117 18.245 22.8201 18.387 23.0961C18.6604 23.6301 19.2927 23.9751 19.9985 23.9751C20.9591 23.9751 21.7407 23.3462 21.7407 22.5732C21.7407 21.7055 21.4631 21.5057 19.7596 21.1473C18.9364 20.9741 18.0851 20.7951 17.3534 20.3123C16.3997 19.6835 15.9159 18.7122 15.9159 17.4257C15.9157 15.7329 17.1463 14.2997 18.8295 13.8372H18.8293ZM35.0752 27.3384C33.4238 30.7314 30.6759 33.468 27.2762 35.1055C23.8764 36.743 20.0236 37.1855 16.3411 36.3615C12.6586 35.5376 9.36178 33.4953 6.98404 30.5651C4.6063 27.6349 3.28671 23.9882 3.23876 20.2149L2.62556 20.828C2.40518 21.0448 2.10806 21.1658 1.79891 21.1645C1.48977 21.1632 1.19365 21.0399 0.975051 20.8213C0.756456 20.6027 0.633097 20.3065 0.631846 19.9974C0.630594 19.6882 0.751551 19.3911 0.968369 19.1708L3.57931 16.5597C3.79907 16.3399 4.09714 16.2164 4.40794 16.2164C4.71874 16.2164 5.0168 16.3399 5.23657 16.5597L7.84766 19.1708C8.06584 19.3909 8.18795 19.6884 8.18728 19.9983C8.1866 20.3082 8.06318 20.6053 7.84404 20.8244C7.6249 21.0435 7.32788 21.167 7.01797 21.1676C6.70806 21.1683 6.4105 21.0462 6.1904 20.828L5.58267 20.2202C5.70126 28.0706 12.1217 34.4206 19.9989 34.4206C25.5598 34.4206 30.5295 31.3133 32.9686 26.3112C33.0356 26.1722 33.1294 26.0478 33.2447 25.9451C33.3599 25.8424 33.4943 25.7635 33.6401 25.7129C33.7859 25.6623 33.9403 25.641 34.0943 25.6502C34.2484 25.6594 34.3991 25.699 34.5379 25.7667C34.6766 25.8343 34.8006 25.9287 34.9028 26.0444C35.0049 26.1601 35.0832 26.2948 35.1331 26.4409C35.1831 26.5869 35.2037 26.7414 35.1937 26.8954C35.1838 27.0494 35.1435 27.2 35.0752 27.3384ZM39.0318 20.828L36.4208 23.439C36.201 23.6588 35.903 23.7823 35.5922 23.7823C35.2814 23.7823 34.9833 23.6588 34.7635 23.439L32.1524 20.828C32.0428 20.7194 31.9558 20.5902 31.8962 20.4478C31.8367 20.3054 31.8059 20.1526 31.8056 19.9983C31.8052 19.844 31.8354 19.6911 31.8943 19.5485C31.9532 19.4058 32.0397 19.2762 32.1488 19.1671C32.2579 19.058 32.3875 18.9715 32.5302 18.9126C32.6728 18.8537 32.8257 18.8235 32.98 18.8239C33.1343 18.8242 33.2871 18.855 33.4294 18.9146C33.5718 18.9741 33.701 19.0612 33.8097 19.1708L34.4174 19.7785C34.2988 11.9293 27.877 5.58029 19.9989 5.58029C14.4388 5.58029 9.46993 8.68677 7.03149 13.6875C6.89441 13.9654 6.65284 14.1777 6.35964 14.2779C6.06643 14.3782 5.74545 14.3582 5.46693 14.2224C5.1884 14.0866 4.975 13.846 4.87341 13.5532C4.77183 13.2605 4.79032 12.9394 4.92485 12.6603C6.57664 9.26774 9.3246 6.53161 12.7243 4.8945C16.1239 3.25738 19.9764 2.81502 23.6587 3.63895C27.3409 4.46288 30.6375 6.50493 33.0153 9.43479C35.3931 12.3646 36.7129 16.011 36.7613 19.784L37.3746 19.1708C37.595 18.9539 37.8921 18.833 38.2013 18.8343C38.5104 18.8355 38.8065 18.9589 39.0251 19.1775C39.2437 19.3961 39.3671 19.6922 39.3683 20.0014C39.3696 20.3105 39.2486 20.6077 39.0318 20.828Z" fill="white"/>
</svg>
