<svg width="40" height="40" viewBox="0 0 40 40" fill="none" xmlns="http://www.w3.org/2000/svg">
<path d="M13.8178 12.7109C11.33 12.7109 9.30615 14.7348 9.30615 17.2226C9.30615 19.7112 11.33 21.735 13.8178 21.735C16.3056 21.735 18.3302 19.7112 18.3302 17.2226C18.3302 14.7348 16.3056 12.7109 13.8178 12.7109Z" fill="white"/>
<path d="M38.5644 2.75H1.43484C0.642422 2.75 0 3.39242 0 4.18492V27.1844C0 27.9768 0.642344 28.6192 1.43484 28.6192H2.11594L8.52805 22.2071C8.68797 22.0472 8.70367 21.7902 8.55852 21.6166C7.51586 20.3701 6.90687 18.7491 6.96664 16.9873C7.08953 13.3656 10.0603 10.4404 13.6835 10.3709C17.5768 10.2962 20.7579 13.4845 20.6716 17.3795C20.5911 21.0056 17.6551 23.967 14.0297 24.077C12.9424 24.11 11.91 23.8881 10.9862 23.4674C10.905 23.4301 10.8143 23.4186 10.7263 23.4343C10.6384 23.45 10.5573 23.4923 10.494 23.5554L5.42945 28.6192H38.5644C39.3564 28.6192 40 27.9756 40 27.1844V4.1857C40 3.39445 39.3564 2.75 38.5644 2.75ZM24.8608 23.0929C24.8608 23.7404 24.3366 24.2645 23.6891 24.2645C23.0424 24.2645 22.5175 23.7404 22.5175 23.0929V18.5712C22.5175 17.9245 23.0424 17.3995 23.6891 17.3995C24.3366 17.3995 24.8608 17.9245 24.8608 18.5712V23.0929ZM28.532 23.0929C28.532 23.7404 28.0078 24.2645 27.3603 24.2645C26.7136 24.2645 26.1887 23.7404 26.1887 23.0929V10.7602C26.1887 10.1134 26.7136 9.58852 27.3603 9.58852C28.0078 9.58852 28.532 10.1134 28.532 10.7602V23.0929ZM32.264 23.0929C32.264 23.7404 31.7391 24.2645 31.0923 24.2645C30.4448 24.2645 29.9207 23.7404 29.9207 23.0929V13.8845C29.9207 13.2378 30.4448 12.7129 31.0923 12.7129C31.7391 12.7129 32.264 13.2378 32.264 13.8845V23.0929ZM35.9984 23.0929C35.9984 23.7404 35.4735 24.2645 34.8268 24.2645C34.1793 24.2645 33.6552 23.7404 33.6552 23.0929V17.0089C33.6552 16.3622 34.1793 15.8373 34.8268 15.8373C35.4735 15.8373 35.9984 16.3622 35.9984 17.0089V23.0929ZM29.3808 34.9984L29.373 34.9951C27.5513 34.214 25.664 33.6698 23.7316 33.3642V31.1406C23.7316 31.0244 23.6854 30.9129 23.6032 30.8307C23.521 30.7485 23.4095 30.7023 23.2933 30.7023H16.7067C16.5905 30.7023 16.479 30.7485 16.3968 30.8307C16.3146 30.9129 16.2684 31.0244 16.2684 31.1406V33.367C14.3466 33.6723 12.4696 34.2137 10.6577 34.9894C10.077 35.238 9.77148 35.9016 9.99547 36.4922C10.2335 37.12 10.9437 37.417 11.5541 37.1546C14.238 36.0016 17.0801 35.4163 20.0012 35.4152H20.0257C22.922 35.4152 25.7879 36.0049 28.4489 37.1484L28.4636 37.1547C28.6095 37.2176 28.7667 37.2501 28.9256 37.2502C29.467 37.2501 29.9773 36.8726 30.0841 36.2659C30.1775 35.7344 29.8767 35.211 29.3808 34.9984Z" fill="white"/>
<path d="M2.11613 28.6172L0.357461 30.3794C-0.100273 30.8371 -0.100273 31.5784 0.357461 32.0361C0.466195 32.145 0.595388 32.2314 0.737614 32.2903C0.879839 32.3491 1.03229 32.3793 1.18621 32.379C1.48613 32.379 1.78613 32.2649 2.01418 32.0361L5.42949 28.6172H2.11613Z" fill="white"/>
</svg>
