<svg width="40" height="40" viewBox="0 0 40 40" fill="none" xmlns="http://www.w3.org/2000/svg">
<g clip-path="url(#clip0_1286_1573)">
<path d="M7.37256 24.9516V17.4039C7.37256 16.8805 7.79678 16.457 8.32021 16.457H12.7397C13.2624 16.457 13.6866 16.8805 13.6866 17.4039V26.707C13.6866 30.1828 16.4616 33.0672 19.9374 33.1008C23.4476 33.1352 26.3132 30.2898 26.3132 26.7875V17.4039C26.3132 16.8805 26.7374 16.457 27.2601 16.457H31.6796C32.203 16.457 32.6272 16.8805 32.6272 17.4039V18.6594" stroke="black" stroke-width="1.5" stroke-miterlimit="10" stroke-linecap="round" stroke-linejoin="round"/>
<path d="M32.6274 21.3945V26.7883C32.6274 30.275 31.2141 33.432 28.929 35.7172C26.6438 38.0023 23.4868 39.4156 20.0001 39.4156C13.3282 39.4156 7.86414 34.2414 7.40477 27.6859M26.3136 23.1584H32.6271M7.37305 23.1584H13.6866" stroke="black" stroke-width="1.5" stroke-miterlimit="10" stroke-linecap="round" stroke-linejoin="round"/>
<path d="M27.5762 5.63672C28.9709 5.63672 30.1016 4.50606 30.1016 3.11133C30.1016 1.71659 28.9709 0.585938 27.5762 0.585938C26.1814 0.585938 25.0508 1.71659 25.0508 3.11133C25.0508 4.50606 26.1814 5.63672 27.5762 5.63672Z" stroke="black" stroke-width="1.5" stroke-miterlimit="10" stroke-linecap="round" stroke-linejoin="round"/>
<path d="M24.7352 10.3719H32.3114V8.16211C32.3114 6.76758 31.1805 5.63672 29.786 5.63672H25.3666C24.7926 5.63555 24.2355 5.83107 23.7882 6.1907M14.9492 3.11133C14.9492 4.50609 13.8186 5.63672 12.4238 5.63672C11.0291 5.63672 9.89844 4.50609 9.89844 3.11133C9.89844 1.71656 11.0291 0.585938 12.4238 0.585938C13.8186 0.585938 14.9492 1.71656 14.9492 3.11133Z" stroke="black" stroke-width="1.5" stroke-miterlimit="10" stroke-linecap="round" stroke-linejoin="round"/>
<path d="M15.2646 10.3719H7.68848V8.16211C7.68848 6.76758 8.81941 5.63672 10.2139 5.63672H14.6333C15.2073 5.63556 15.7643 5.83108 16.2117 6.19071" stroke="black" stroke-width="1.5" stroke-miterlimit="10" stroke-linecap="round" stroke-linejoin="round"/>
<path d="M20 5.63672C21.3947 5.63672 22.5254 4.50606 22.5254 3.11133C22.5254 1.71659 21.3947 0.585938 20 0.585938C18.6053 0.585938 17.4746 1.71659 17.4746 3.11133C17.4746 4.50606 18.6053 5.63672 20 5.63672Z" stroke="black" stroke-width="1.5" stroke-miterlimit="10" stroke-linecap="round" stroke-linejoin="round"/>
<path d="M21.4178 11.95H24.735V8.1625C24.735 6.76719 23.6045 5.63672 22.2092 5.63672H17.7904C16.3951 5.63672 15.2646 6.76719 15.2646 8.1625V11.95H18.6834M17.4744 20.1578V16.8432M19.9998 14.4757V20.1578M22.5252 16.8432V20.1578" stroke="black" stroke-width="1.5" stroke-miterlimit="10" stroke-linecap="round" stroke-linejoin="round"/>
</g>
<defs>
<clipPath id="clip0_1286_1573">
<rect width="40" height="40" fill="white"/>
</clipPath>
</defs>
</svg>
