<svg width="40" height="40" viewBox="0 0 40 40" fill="none" xmlns="http://www.w3.org/2000/svg">
<g clip-path="url(#clip0_1286_1674)">
<path d="M24.2468 29.7075V32.1342M12.113 29.7075V32.1342M35.7739 9.08008V6.17969C35.7739 5.10102 34.8995 4.22656 33.8208 4.22656H2.53906C1.46039 4.22656 0.585938 5.10102 0.585938 6.17969V9.08008M0.585938 9.08008H4.32289M0.585938 9.08008V30.1812C0.585938 31.2598 1.46039 32.1343 2.53906 32.1343H8.47289M18.1799 22.4272C15.8345 22.4272 13.9331 20.5259 13.9331 18.1804V15.7536C13.9331 13.4081 15.8345 11.5068 18.1799 11.5068C20.5254 11.5068 22.4267 13.4081 22.4267 15.7536V18.1804C22.4267 20.5259 20.5254 22.4272 18.1799 22.4272Z" stroke="black" stroke-width="1.5" stroke-miterlimit="10" stroke-linecap="round" stroke-linejoin="round"/>
<path d="M35.7739 16.7445V9.07914H7.05723M35.7739 24.0669V19.4788M3.0127 6.65234H5.43941" stroke="black" stroke-width="1.5" stroke-miterlimit="10" stroke-linecap="round" stroke-linejoin="round"/>
<path d="M33.3471 35.7744C36.6978 35.7744 39.414 33.0581 39.414 29.7075C39.414 26.3569 36.6978 23.6406 33.3471 23.6406C29.9965 23.6406 27.2803 26.3569 27.2803 29.7075C27.2803 33.0581 29.9965 35.7744 33.3471 35.7744Z" stroke="black" stroke-width="1.5" stroke-miterlimit="10" stroke-linecap="round" stroke-linejoin="round"/>
<path d="M13.0802 24.8555H12.1889C10.1365 24.8555 8.47266 26.5193 8.47266 28.5717V32.1358H27.7067M27.6922 27.382C27.1961 25.913 25.8069 24.8555 24.1705 24.8555H15.8145M32.7799 29.5563L31.4783 28.2546C31.405 28.1814 31.3057 28.1402 31.2021 28.1402C31.0985 28.1402 30.9991 28.1814 30.9259 28.2546L29.7623 29.4181C29.6891 29.4914 29.6479 29.5907 29.6479 29.6943C29.6479 29.7979 29.6891 29.8973 29.7623 29.9705L32.0895 32.2977C32.5471 32.7553 33.2891 32.7553 33.7467 32.2977L36.9318 29.1126C37.0051 29.0393 37.0462 28.94 37.0462 28.8364C37.0462 28.7328 37.0051 28.6334 36.9318 28.5602L35.7683 27.3966C35.695 27.3234 35.5957 27.2822 35.4921 27.2822C35.3885 27.2822 35.2891 27.3234 35.2159 27.3966L33.0563 29.5563C33.0381 29.5744 33.0166 29.5888 32.9929 29.5986C32.9692 29.6085 32.9437 29.6135 32.9181 29.6135C32.8924 29.6135 32.867 29.6085 32.8433 29.5986C32.8196 29.5888 32.7981 29.5744 32.7799 29.5563Z" stroke="black" stroke-width="1.5" stroke-miterlimit="10" stroke-linecap="round" stroke-linejoin="round"/>
</g>
<defs>
<clipPath id="clip0_1286_1674">
<rect width="40" height="40" fill="white"/>
</clipPath>
</defs>
</svg>
