<svg width="40" height="40" viewBox="0 0 40 40" fill="none" xmlns="http://www.w3.org/2000/svg">
<mask id="mask0_1286_1697" style="mask-type:luminance" maskUnits="userSpaceOnUse" x="0" y="0" width="40" height="40">
<path d="M39.2499 39.25V0.750118H0.75V39.25H39.2499Z" fill="white" stroke="white" stroke-width="1.5"/>
</mask>
<g mask="url(#mask0_1286_1697)">
<path d="M0.628988 18.7751L4.6353 8.61992C4.66471 8.54535 4.70852 8.4773 4.76422 8.41966C4.81993 8.36202 4.88645 8.31592 4.95998 8.28399C5.03351 8.25206 5.1126 8.23493 5.19275 8.23358C5.2729 8.23222 5.35253 8.24667 5.4271 8.2761L8.61498 9.53375C8.68955 9.56315 8.7576 9.60696 8.81524 9.66267C8.87288 9.71838 8.91898 9.78489 8.95091 9.85842C8.98284 9.93195 8.99997 10.011 9.00132 10.0912C9.00268 10.1713 8.98823 10.251 8.95881 10.3255L4.95249 20.4808C4.92308 20.5554 4.87926 20.6234 4.82355 20.6811C4.76784 20.7387 4.70132 20.7848 4.6278 20.8167C4.55427 20.8486 4.47517 20.8658 4.39503 20.8671C4.31488 20.8685 4.23526 20.854 4.1607 20.8246L0.972815 19.567C0.822229 19.5076 0.701415 19.3908 0.636938 19.2423C0.572461 19.0938 0.569601 18.9257 0.628988 18.7751Z" stroke="black" stroke-width="1.5" stroke-miterlimit="10" stroke-linecap="round" stroke-linejoin="round"/>
<path d="M28.7047 24.457L26.6191 22.8501" stroke="black" stroke-width="1.5" stroke-miterlimit="10" stroke-linecap="round" stroke-linejoin="round"/>
<path d="M25.9141 26.7031L24.0601 25.2757" stroke="black" stroke-width="1.5" stroke-miterlimit="10" stroke-linecap="round" stroke-linejoin="round"/>
<path d="M22.8467 28.7461L21.5254 27.7235" stroke="black" stroke-width="1.5" stroke-miterlimit="10" stroke-linecap="round" stroke-linejoin="round"/>
<path d="M8.91787 25.3863C8.26537 24.8331 8.1849 23.8556 8.73818 23.2031L10.1865 21.5031C10.7398 20.8506 11.7173 20.7701 12.3697 21.3234C13.0222 21.8766 13.1027 22.854 12.5494 23.5065L11.1011 25.2066C10.5478 25.8591 9.57037 25.9396 8.91787 25.3863Z" stroke="black" stroke-width="1.5" stroke-miterlimit="10" stroke-linecap="round" stroke-linejoin="round"/>
<path d="M11.2806 27.3902C10.6281 26.837 10.5477 25.8595 11.1009 25.207L12.5494 23.507C13.1026 22.8545 14.0801 22.774 14.7326 23.3273C15.3851 23.8805 15.4655 24.858 14.9123 25.5104L13.4638 27.2105C12.9105 27.863 11.9331 27.9435 11.2806 27.3902Z" stroke="black" stroke-width="1.5" stroke-miterlimit="10" stroke-linecap="round" stroke-linejoin="round"/>
<path d="M13.6435 29.3941C12.991 28.8409 12.9105 27.8634 13.4638 27.2109L14.9122 25.5108C15.4654 24.8584 16.4429 24.7779 17.0954 25.3312C17.7478 25.8844 17.8283 26.8618 17.275 27.5143L15.8267 29.2145C15.2734 29.867 14.296 29.9474 13.6435 29.3941Z" stroke="black" stroke-width="1.5" stroke-miterlimit="10" stroke-linecap="round" stroke-linejoin="round"/>
<path d="M16.0062 31.398C15.3537 30.8448 15.2733 29.8674 15.8266 29.2149L17.2749 27.5148C17.8282 26.8623 18.8057 26.7818 19.4581 27.3351C20.1106 27.8883 20.1911 28.8657 19.6378 29.5182L18.1894 31.2184C17.6362 31.8709 16.6587 31.9513 16.0062 31.398Z" stroke="black" stroke-width="1.5" stroke-miterlimit="10" stroke-linecap="round" stroke-linejoin="round"/>
<path d="M31.3036 22.0058L30.5246 21.4309L26.8605 18.7267L26.4407 18.4316C22.9816 19.0191 20.6626 17.1238 19.7187 16.1381C19.441 15.8481 18.9827 15.8371 18.6841 16.1054C15.4406 19.0184 13.5623 18.2718 12.6503 17.4052C12.2118 16.9886 12.2873 16.2704 12.7964 15.9436C14.5398 14.8246 16.1677 13.4083 17.3309 12.3045L17.1238 12.2269C16.3875 11.951 15.6137 11.7882 14.8287 11.7441L12.6836 11.6236C12.4027 11.6078 12.1209 11.6043 11.8401 11.6224C11.3325 11.655 10.8243 11.5698 10.3551 11.3735L8.80206 10.7236L4.99316 20.3784L8.00433 22.2774L8.95729 22.9473L10.1866 21.5044C10.7398 20.8519 11.7172 20.7715 12.3697 21.3247C13.0222 21.878 13.1027 22.8554 12.5494 23.5079C13.1027 22.8554 14.0801 22.7749 14.7326 23.3282C15.3851 23.8815 15.4656 24.8589 14.9123 25.5114C15.4656 24.8589 16.443 24.7784 17.0955 25.3317C17.748 25.8849 17.8284 26.8624 17.2752 27.5148C17.8284 26.8624 18.8059 26.7819 19.4584 27.3351C20.1109 27.8884 20.1913 28.8659 19.638 29.5183L19.0505 30.2079L20.3437 31.1624C21.0619 31.6924 22.074 31.6315 22.6907 30.9863C23.2909 30.3583 23.3267 29.413 22.8469 28.7466L23.4953 29.2251C24.2348 29.7709 25.2822 29.6872 25.8901 28.9979C26.4789 28.3301 26.464 27.3504 25.9141 26.7015L26.2784 26.9702C26.9836 27.4906 27.9747 27.4434 28.595 26.8244C29.2546 26.1664 29.2721 25.1355 28.7049 24.4559L29.2518 24.8596C30.0163 25.4237 31.0928 25.2789 31.6803 24.5272C32.2937 23.7423 32.1051 22.5973 31.3036 22.0058Z" stroke="black" stroke-width="1.5" stroke-miterlimit="10" stroke-linecap="round" stroke-linejoin="round"/>
<path d="M22.5383 11.0739L20.3143 10.7214C19.5619 10.6021 18.7973 10.8513 18.2617 11.393C17.1581 12.5094 15.0755 14.4808 12.7966 15.9435C12.2874 16.2703 12.2119 16.9885 12.6505 17.4052C13.5623 18.2717 15.4406 19.0183 18.6842 16.1053C18.9829 15.837 19.4411 15.848 19.7188 16.138C20.6644 17.1253 22.989 19.0255 26.4573 18.429L31.6718 22.2773L34.931 20.1839L31.2092 10.7499L28.9471 11.585C28.3197 11.8165 27.6434 11.8831 26.9829 11.7785L25.2554 11.5046" stroke="black" stroke-width="1.5" stroke-miterlimit="10" stroke-linecap="round" stroke-linejoin="round"/>
<path d="M36.9097 12.535L35.3651 8.6199C35.3057 8.46932 35.1889 8.34851 35.0404 8.28403C34.8919 8.21955 34.7239 8.21669 34.5733 8.27607L31.3854 9.53373C31.2348 9.59315 31.114 9.70994 31.0495 9.85843C30.9851 10.0069 30.9822 10.1749 31.0416 10.3255L35.0479 20.4808C35.1073 20.6314 35.2241 20.7522 35.3726 20.8167C35.5211 20.8812 35.6891 20.884 35.8397 20.8246L39.0276 19.567C39.1021 19.5376 39.1702 19.4938 39.2278 19.4381C39.2855 19.3823 39.3316 19.3158 39.3635 19.2423C39.3954 19.1688 39.4126 19.0897 39.4139 19.0095C39.4153 18.9294 39.4008 18.8497 39.3714 18.7752L37.9144 15.0818" stroke="black" stroke-width="1.5" stroke-miterlimit="10" stroke-linecap="round" stroke-linejoin="round"/>
</g>
</svg>
