<svg width="40" height="40" viewBox="0 0 40 40" fill="none" xmlns="http://www.w3.org/2000/svg">
<mask id="mask0_1286_1643" style="mask-type:luminance" maskUnits="userSpaceOnUse" x="0" y="0" width="40" height="40">
<path d="M39.2499 39.25V0.750118H0.75V39.25H39.2499Z" fill="white" stroke="white" stroke-width="1.5"/>
</mask>
<g mask="url(#mask0_1286_1643)">
<path d="M34.0996 0.58614C38.398 4.88238 38.398 11.8539 34.0996 16.1523" stroke="black" stroke-width="1.5" stroke-miterlimit="10" stroke-linecap="round" stroke-linejoin="round"/>
<path d="M31.77 2.91745C34.7817 5.92932 34.7817 10.8124 31.77 13.8242" stroke="black" stroke-width="1.5" stroke-miterlimit="10" stroke-linecap="round" stroke-linejoin="round"/>
<path d="M29.438 11.4922C31.1631 9.76704 31.1631 6.97447 29.438 5.24939" stroke="black" stroke-width="1.5" stroke-miterlimit="10" stroke-linecap="round" stroke-linejoin="round"/>
<path d="M5.90009 0.58614C1.60166 4.88238 1.60166 11.8539 5.90009 16.1523" stroke="black" stroke-width="1.5" stroke-miterlimit="10" stroke-linecap="round" stroke-linejoin="round"/>
<path d="M8.23193 2.91745C5.22022 5.92932 5.22022 10.8124 8.23193 13.8242" stroke="black" stroke-width="1.5" stroke-miterlimit="10" stroke-linecap="round" stroke-linejoin="round"/>
<path d="M10.5619 11.4922C8.8368 9.76704 8.8368 6.97447 10.5619 5.24939" stroke="black" stroke-width="1.5" stroke-miterlimit="10" stroke-linecap="round" stroke-linejoin="round"/>
<path d="M18.6246 18.0625H16.5297C15.8321 18.0625 15.2607 17.4934 15.2607 16.7936C15.2607 16.0959 15.8321 15.5246 16.5297 15.5246H23.4722C24.1698 15.5246 24.7411 16.0959 24.7411 16.7936C24.7411 17.4934 24.1698 18.0625 23.4722 18.0625H21.3285" stroke="black" stroke-width="1.5" stroke-miterlimit="10" stroke-linecap="round" stroke-linejoin="round"/>
<path d="M16.5298 15.5234V15.2909C16.5298 13.6101 16.3659 13.2823 15.2166 12.133C12.5769 9.49096 12.5769 5.208 15.2166 2.56605C16.5386 1.24614 18.2704 0.586216 19.9999 0.586216C21.7316 0.586216 23.4634 1.24614 24.7833 2.56605C27.4251 5.208 27.4251 9.49096 24.7833 12.133C23.634 13.2823 23.4723 13.6101 23.4723 15.2909V15.5234" stroke="black" stroke-width="1.5" stroke-miterlimit="10" stroke-linecap="round" stroke-linejoin="round"/>
<path d="M23.0848 18.0613V19.2018C23.0848 20.3821 22.1193 21.3477 20.939 21.3477H19.0633C17.8829 21.3477 16.9175 20.3821 16.9175 19.2018V18.0613" stroke="black" stroke-width="1.5" stroke-miterlimit="10" stroke-linecap="round" stroke-linejoin="round"/>
<path d="M20 15.5234V8.79338" stroke="black" stroke-width="1.5" stroke-miterlimit="10" stroke-linecap="round" stroke-linejoin="round"/>
<path d="M21.7184 8.79297H18.2837" stroke="black" stroke-width="1.5" stroke-miterlimit="10" stroke-linecap="round" stroke-linejoin="round"/>
<path d="M18.2728 31.7406L16.8843 39.4141" stroke="black" stroke-width="1.5" stroke-miterlimit="10" stroke-linecap="round" stroke-linejoin="round"/>
<path d="M23.1687 28.675L21.7271 31.7422H18.2725L16.833 28.675" stroke="black" stroke-width="1.5" stroke-miterlimit="10" stroke-linecap="round" stroke-linejoin="round"/>
<path d="M21.7271 31.7406L23.1178 39.4141" stroke="black" stroke-width="1.5" stroke-miterlimit="10" stroke-linecap="round" stroke-linejoin="round"/>
<path d="M13.1236 24.2997L11.8037 30.4274L14.1114 31.7406L12.3043 34.821L14.7425 39.4141" stroke="black" stroke-width="1.5" stroke-miterlimit="10" stroke-linecap="round" stroke-linejoin="round"/>
<path d="M26.8783 24.2997L28.1983 30.4274L25.8906 31.7406L27.6955 34.821L25.2573 39.4141" stroke="black" stroke-width="1.5" stroke-miterlimit="10" stroke-linecap="round" stroke-linejoin="round"/>
<path d="M15.7942 23.4388L19.9996 26.9069L15.7056 29.3008L13.1235 24.3003" stroke="black" stroke-width="1.5" stroke-miterlimit="10" stroke-linecap="round" stroke-linejoin="round"/>
<path d="M24.2076 23.4388L20 26.9069L24.2939 29.3008L26.8783 24.3003" stroke="black" stroke-width="1.5" stroke-miterlimit="10" stroke-linecap="round" stroke-linejoin="round"/>
<path d="M7.78473 39.4141H5.31779C4.56927 39.4141 4.38771 39.2192 4.43201 38.4552V33.0914C4.43201 27.4465 11.7864 24.5255 15.7946 23.4382M24.2076 23.4382C25.9393 23.9077 28.3 24.7226 30.4193 25.9495C33.2006 27.5617 35.5701 29.8892 35.5701 33.0914V38.4552C35.6145 39.2192 35.4329 39.4141 34.6822 39.4141H10.4909" stroke="black" stroke-width="1.5" stroke-miterlimit="10" stroke-linecap="round" stroke-linejoin="round"/>
</g>
</svg>
