<svg width="120" height="120" viewBox="0 0 120 120" fill="none" xmlns="http://www.w3.org/2000/svg">
<g clip-path="url(#clip0_1183_63)">
<path d="M83.4105 37.6435C82.0588 36.8424 80.5174 36.4176 78.9462 36.4132C78.208 36.4132 77.4874 36.5011 76.7493 36.6944C72.0565 37.8895 69.2093 42.6877 70.4044 47.3805C71.5996 52.0732 76.3802 54.9205 81.0905 53.7253C82.2081 53.44 83.2585 52.9371 84.1816 52.2454C85.1047 51.5537 85.8823 50.6868 86.47 49.6943C87.0577 48.7018 87.4439 47.6031 87.6065 46.4611C87.7691 45.3192 87.705 44.1564 87.4177 43.0392C87.1424 41.9185 86.6461 40.864 85.958 39.9374C85.2699 39.0109 84.4038 38.231 83.4105 37.6435ZM104.888 7.37803C98.8771 8.11621 92.9893 9.50469 87.3123 11.4732C95.9244 19.1011 104.027 27.3441 111.461 36.0617C113.553 30.4023 115.047 24.4265 115.838 18.1344C116.611 11.8598 111.163 6.60469 104.888 7.37803Z" fill="white"/>
<path d="M83.5866 12.8794C67.8915 19.1715 54.2351 30.1036 45.4648 44.9727C42.0375 50.7727 38.1533 57.8206 38.3466 64.7279C38.4521 68.3485 42.266 71.6 44.5333 74.1661C47.363 77.3649 50.4739 80.2824 53.9012 82.8309C56.2739 84.5885 59.3145 85.2915 62.1618 84.5358C69.9478 82.4618 78.3315 78.5952 84.1491 73.7442C95.4678 64.2885 104.414 52.9345 110.003 39.7879C101.936 30.1739 93.0775 21.1576 83.5866 12.8794ZM89.5097 51.4758C88.69 52.8693 87.6012 54.0859 86.3067 55.0545C85.0122 56.0231 83.5379 56.7244 81.9697 57.1176C80.9503 57.3812 79.9309 57.5042 78.9291 57.5042C73.4454 57.5042 68.4363 53.7958 67.0127 48.2418C65.343 41.6685 69.3151 34.9545 75.8885 33.2848C79.0697 32.4764 82.3739 32.9509 85.2036 34.6206C88.0333 36.2903 90.0369 38.9794 90.8454 42.1606C91.6715 45.3418 91.1969 48.6461 89.5097 51.4758ZM34.9194 62.3727C35.4642 55.5006 39.0321 48.9097 42.4242 43.1624C43.8478 40.7545 45.3945 38.4345 47.0994 36.2024C28.7151 38.5576 17.203 45.8867 7.09693 56.3091C16.3418 56.0279 27.186 57.1703 34.9194 62.3727ZM63.0581 87.9103C62.9351 87.9455 62.8121 87.9806 62.6715 87.9982C65.6418 96.4697 65.3606 103.412 66.046 111.673C78.9994 99.4576 87.1897 89.5976 88.8945 74.2539C88.0684 74.9746 87.2424 75.6952 86.3812 76.4158C80.5987 81.2491 71.8812 85.5376 63.0581 87.9103ZM30.3848 80.3527C30.1667 80.0631 29.8459 79.8681 29.4884 79.8079C28.9788 79.72 28.1175 79.597 16.2012 88.5079C4.28481 97.4364 4.17936 98.2976 4.10905 98.8073C4.05633 99.1588 4.16178 99.5455 4.39026 99.8267C4.63633 100.125 4.82966 100.389 5.25148 100.389C6.3939 100.389 9.15329 98.6667 18.5387 91.6364C31.5097 81.917 31.2109 81.4952 30.3848 80.3527ZM32.1951 92.5855C34.9545 89.2285 34.8666 88.2442 34.8315 87.9279C34.782 87.5503 34.6016 87.202 34.3218 86.9436C33.2321 86.0473 32.0194 87.1721 31.4394 87.6994C30.7715 88.297 29.9806 89.1582 29.1897 90.1073C25.8503 94.1673 26.3072 95.1164 27.063 95.7491C27.3091 95.9424 27.5727 96.1006 27.9242 96.1006C28.6975 96.1182 29.9103 95.3624 32.1951 92.5855ZM41.44 90.1776C40.0163 89.457 40.0163 89.4746 34.1812 99.6158L33.2145 101.285C27.2739 111.62 27.2739 111.62 28.6097 112.481C28.924 112.677 29.3033 112.74 29.6642 112.657C31.3515 112.253 36.4484 103.465 37.0109 102.481C37.2394 102.076 42.6351 92.6909 42.1254 91.0036C42.0713 90.8276 41.9828 90.6639 41.8652 90.5222C41.7475 90.3804 41.603 90.2633 41.44 90.1776ZM41.8969 76.4861L40.6491 75.1327C39.243 73.6564 37.6787 71.9691 36.5012 70.0358C35.5169 74.4824 35.6751 79.2455 38.6806 82.8661C41.563 86.3461 46.9939 86.3636 51.6866 85.5727C48.1312 82.8747 44.8519 79.831 41.8969 76.4861Z" fill="white"/>
</g>
<defs>
<clipPath id="clip0_1183_63">
<rect width="116" height="116" fill="white" transform="translate(2 2)"/>
</clipPath>
</defs>
</svg>
