<?xml version="1.0" encoding="UTF-8" standalone="no" ?>
<!DOCTYPE svg PUBLIC "-//W3C//DTD SVG 1.1//EN" "http://www.w3.org/Graphics/SVG/1.1/DTD/svg11.dtd">
<svg xmlns="http://www.w3.org/2000/svg" xmlns:xlink="http://www.w3.org/1999/xlink" version="1.1" width="1080" height="1080" viewBox="0 0 1080 1080" xml:space="preserve">
<desc>Created with Fabric.js 5.2.4</desc>
<defs>
</defs>
<rect x="0" y="0" width="100%" height="100%" fill="transparent"></rect>
<g transform="matrix(1 0 0 1 540 540)" id="0d700b25-a078-47a1-a01b-afadb152ec08"  >
<rect style="stroke: none; stroke-width: 1; stroke-dasharray: none; stroke-linecap: butt; stroke-dashoffset: 0; stroke-linejoin: miter; stroke-miterlimit: 4; fill: rgb(255,255,255); fill-rule: nonzero; opacity: 1; visibility: hidden;" vector-effect="non-scaling-stroke"  x="-540" y="-540" rx="0" ry="0" width="1080" height="1080" />
</g>
<g transform="matrix(1 0 0 1 540 540)" id="f396540d-32a6-449b-9b02-ff3f01b28e59"  >
</g>
<g transform="matrix(12.09 0 0 10.23 560.24 514.82)"  >
<path style="stroke: none; stroke-width: 1; stroke-dasharray: none; stroke-linecap: butt; stroke-dashoffset: 0; stroke-linejoin: miter; stroke-miterlimit: 4; fill: rgb(255,87,34); fill-rule: evenodd; opacity: 1;" vector-effect="non-scaling-stroke"  transform=" translate(-51.31, -47.19)" d="M 91.328 61.843 C 91.263 61.435 91.028 61.2 90.723 60.973000000000006 C 86.858 58.101000000000006 82.994 55.226000000000006 79.137 52.34100000000001 C 78.791 52.083000000000006 78.427 51.891000000000005 78.029 51.73500000000001 C 66.715 47.315000000000005 55.39999999999999 42.89600000000001 44.092 38.46000000000001 C 37.202 35.757000000000005 30.345 32.964000000000006 23.156 31.111000000000008 C 22.851 31.03300000000001 22.561999999999998 30.948000000000008 22.244 30.974000000000007 C 18.993 31.232000000000006 15.741 31.483000000000008 12.491 31.745000000000008 C 12.241999999999999 31.765000000000008 11.977 31.73700000000001 11.701 31.91100000000001 C 11.577 32.54800000000001 11.186 33.15200000000001 11.174000000000001 33.91300000000001 C 11.514000000000001 33.91300000000001 11.797 33.91100000000001 12.079 33.91300000000001 C 15.625 33.95100000000001 19.172 34.000000000000014 22.719 34.01800000000001 C 23.5 34.022000000000006 24.222 34.184000000000005 24.944000000000003 34.464000000000006 C 42.352000000000004 41.21900000000001 59.758 47.977000000000004 77.178 54.7 C 78.96 55.388000000000005 80.616 56.239000000000004 82.18299999999999 57.331 C 85.13 59.387 88.13 61.366 91.154 63.407000000000004 C 91.51 62.866 91.494 62.866 91.328 61.843 z" stroke-linecap="round" />
</g>
<g transform="matrix(12.09 0 0 10.23 545.01 554.51)"  >
<path style="stroke: none; stroke-width: 1; stroke-dasharray: none; stroke-linecap: butt; stroke-dashoffset: 0; stroke-linejoin: miter; stroke-miterlimit: 4; fill: rgb(255,87,34); fill-rule: evenodd; opacity: 1;" vector-effect="non-scaling-stroke"  transform=" translate(-50.05, -51.07)" d="M 89.737 64.521 C 87.487 63.158 85.237 61.794000000000004 82.979 60.443 C 82.108 59.921 81.283 59.314 80.325 58.946 C 61.497 51.709 42.667 44.474 23.84 37.23 C 23.409 37.064 22.977 36.974 22.523 36.928 C 19.899 36.666999999999994 17.276 36.397999999999996 14.652999999999999 36.134 C 13.274 35.995 11.893999999999998 35.863 10.491999999999999 35.724000000000004 C 10.274 36.39 9.956 36.980000000000004 9.934 37.681000000000004 C 13.043 38.279 16.102 38.848000000000006 19.152 39.461000000000006 C 20.537000000000003 39.74000000000001 21.963 39.858000000000004 23.293 40.36500000000001 C 41.215999999999994 47.20300000000001 59.137 54.04700000000001 77.057 60.89600000000001 C 78.851 61.58200000000001 80.696 62.15100000000001 82.416 63.00600000000001 C 84.416 64.00000000000001 86.365 65.093 88.342 66.13300000000001 C 88.56 66.248 88.753 66.44500000000001 89.089 66.40400000000001 C 89.441 65.90700000000001 89.812 65.38300000000001 90.161 64.88900000000001 C 90.054 64.654 89.877 64.605 89.737 64.521 z" stroke-linecap="round" />
</g>
<g transform="matrix(12.09 0 0 10.23 528.99 593.77)"  >
<path style="stroke: none; stroke-width: 1; stroke-dasharray: none; stroke-linecap: butt; stroke-dashoffset: 0; stroke-linejoin: miter; stroke-miterlimit: 4; fill: rgb(255,87,34); fill-rule: evenodd; opacity: 1;" vector-effect="non-scaling-stroke"  transform=" translate(-48.72, -54.9)" d="M 29.206 45.674 C 26.749 44.744 24.314999999999998 43.741 21.820999999999998 42.927 C 19.11 42.042 16.340999999999998 41.336999999999996 13.595999999999998 40.557 C 12.301999999999998 40.190000000000005 11.005999999999998 39.831 9.640999999999998 39.449000000000005 C 9.640999999999998 40.15800000000001 9.640999999999998 40.776 9.640999999999998 41.52400000000001 C 35.182 51.13100000000001 60.716 60.73500000000001 86.291 70.355 C 86.804 69.628 87.282 68.95100000000001 87.804 68.209 C 85.988 67.404 84.292 66.558 82.53 65.887 C 64.761 59.133 46.982 52.405 29.206 45.674 z" stroke-linecap="round" />
</g>
<g transform="matrix(12.09 0 0 10.23 564.36 465.75)"  >
<path style="stroke: none; stroke-width: 1; stroke-dasharray: none; stroke-linecap: butt; stroke-dashoffset: 0; stroke-linejoin: miter; stroke-miterlimit: 4; fill: rgb(255,87,34); fill-rule: evenodd; opacity: 1;" vector-effect="non-scaling-stroke"  transform=" translate(-51.65, -42.39)" d="M 12.992 29.723 C 15.228000000000002 29.358 17.462 28.977999999999998 19.699 28.619999999999997 C 20.724 28.455 21.720000000000002 28.246 22.793000000000003 28.575999999999997 C 26.197000000000003 29.620999999999995 29.630000000000003 30.569999999999997 33.051 31.563999999999997 C 35.439 32.257 37.884 32.779999999999994 40.2 33.687 C 52.432 38.477999999999994 64.648 43.312 76.87 48.126999999999995 C 77.215 48.263 77.542 48.41 77.834 48.647999999999996 C 81.569 51.693999999999996 85.304 54.739999999999995 89.051 57.770999999999994 C 89.613 58.224999999999994 90.122 58.75899999999999 90.82000000000001 59.10699999999999 C 90.90100000000001 58.58899999999999 90.673 58.16199999999999 90.673 57.71099999999999 C 90.673 57.18699999999999 90.414 56.82899999999999 90.026 56.48899999999999 C 85.601 52.62999999999999 81.185 48.75999999999999 76.776 44.880999999999986 C 76.42699999999999 44.57499999999999 76.05199999999999 44.359999999999985 75.62599999999999 44.19099999999999 C 67.904 41.12999999999999 60.18599999999999 38.060999999999986 52.465999999999994 34.996999999999986 C 50.522999999999996 34.225999999999985 48.61899999999999 33.30899999999998 46.61899999999999 32.74199999999998 C 38.21499999999999 30.358999999999984 29.78099999999999 28.085999999999984 21.359999999999992 25.762999999999984 C 20.96099999999999 25.652999999999984 20.59199999999999 25.654999999999983 20.194999999999993 25.758999999999983 C 19.127999999999993 26.038999999999984 18.051999999999992 26.284999999999982 16.981999999999992 26.552999999999983 C 15.697999999999992 26.874999999999982 14.415999999999993 27.207999999999984 13.134999999999993 27.534999999999982 C 12.896999999999993 28.281999999999982 12.675999999999993 28.974999999999984 12.459999999999992 29.65299999999998 C 12.656 29.803 12.832 29.75 12.992 29.723 z" stroke-linecap="round" />
</g>
<g transform="matrix(12.09 0 0 10.23 508.3 634.63)"  >
<path style="stroke: none; stroke-width: 1; stroke-dasharray: none; stroke-linecap: butt; stroke-dashoffset: 0; stroke-linejoin: miter; stroke-miterlimit: 4; fill: rgb(255,87,34); fill-rule: evenodd; opacity: 1;" vector-effect="non-scaling-stroke"  transform=" translate(-47.01, -58.89)" d="M 27.979 51.37 C 25.308 50.370999999999995 22.585 49.5 19.999 48.288 C 16.724 46.753 13.465999999999998 45.181 10.195999999999998 43.635999999999996 C 9.987999999999998 43.538 9.790999999999999 43.303999999999995 9.476999999999999 43.474999999999994 C 9.476999999999999 44.084999999999994 9.476999999999999 44.705999999999996 9.476999999999999 45.35999999999999 C 9.578 45.42699999999999 9.687999999999999 45.510999999999996 9.807999999999998 45.57899999999999 C 13.241999999999997 47.55199999999999 16.674 49.525999999999996 20.112 51.48899999999999 C 20.427999999999997 51.66999999999999 20.776 51.79899999999999 21.119 51.92699999999999 C 30.654 55.462999999999994 40.19 58.995999999999995 49.726 62.528999999999996 C 60.373999999999995 66.473 71.023 70.416 81.716 74.375 C 82.60799999999999 73.782 83.514 73.18 84.54299999999999 72.495 C 84.142 72.34100000000001 83.88999999999999 72.241 83.636 72.146 C 65.082 65.223 46.527 58.307 27.979 51.37 z" stroke-linecap="round" />
</g>
<g transform="matrix(12.09 0 0 10.23 473.6 673)"  >
<path style="stroke: none; stroke-width: 1; stroke-dasharray: none; stroke-linecap: butt; stroke-dashoffset: 0; stroke-linejoin: miter; stroke-miterlimit: 4; fill: rgb(255,87,34); fill-rule: evenodd; opacity: 1;" vector-effect="non-scaling-stroke"  transform=" translate(-44.14, -62.64)" d="M 78.614 75.919 C 75.83 74.898 73.046 73.875 70.262 72.852 C 53.745 66.779 37.229 60.707 20.71 54.64 C 20.201 54.453 19.731 54.216 19.282 53.913000000000004 C 16.232 51.854000000000006 13.175 49.807 10.118 47.758 C 9.891 47.606 9.689 47.402 9.338000000000001 47.338 C 9.338000000000001 48.014 9.338000000000001 48.654 9.338000000000001 49.386 C 12.581000000000001 51.898 15.828000000000001 54.412000000000006 19.075000000000003 56.928000000000004 C 19.347 57.139 19.656000000000002 57.264 19.978 57.382000000000005 C 35.316 62.977 50.651 68.58 65.987 74.18 C 69.43299999999999 75.438 72.88199999999999 76.691 76.336 77.94800000000001 C 77.216 77.33300000000001 78.14 76.82100000000001 78.939 76.153 C 78.836 75.97 78.719 75.958 78.614 75.919 z" stroke-linecap="round" />
</g>
<g transform="matrix(12.09 0 0 10.23 568.89 419.56)"  >
<path style="stroke: none; stroke-width: 1; stroke-dasharray: none; stroke-linecap: butt; stroke-dashoffset: 0; stroke-linejoin: miter; stroke-miterlimit: 4; fill: rgb(255,87,34); fill-rule: evenodd; opacity: 1;" vector-effect="non-scaling-stroke"  transform=" translate(-52.02, -37.88)" d="M 20.736 23.517 C 30.303 26.054 39.875 28.573 49.439 31.116999999999997 C 51.378 31.632999999999996 53.362 32.001999999999995 55.232 32.745999999999995 C 61.589 35.27199999999999 67.936 37.821999999999996 74.28999999999999 40.355 C 74.79799999999999 40.559 75.23899999999999 40.830999999999996 75.63999999999999 41.208999999999996 C 80.24299999999998 45.553 84.85399999999998 49.888999999999996 89.46799999999999 54.221 C 89.66599999999998 54.407999999999994 89.82199999999999 54.666999999999994 90.192 54.745 C 90.05399999999999 53.663999999999994 89.972 52.702 89.094 51.840999999999994 C 84.47399999999999 47.309 79.90899999999999 42.718999999999994 75.371 38.105999999999995 C 74.354 37.074 73.255 36.303 71.892 35.791999999999994 C 67.13499999999999 34.00899999999999 62.522 31.890999999999995 57.538999999999994 30.672999999999995 C 44.928 27.592999999999996 32.36699999999999 24.313999999999993 19.783999999999992 21.118999999999993 C 19.48999999999999 21.043999999999993 19.191999999999993 20.950999999999993 18.871999999999993 21.087999999999994 C 17.470999999999993 21.685999999999993 16.063999999999993 22.269999999999992 14.663999999999993 22.856999999999992 C 14.400999999999993 23.66399999999999 14.151999999999992 24.432999999999993 13.854999999999993 25.345999999999993 C 15.772999999999993 24.711999999999993 17.52499999999999 24.157999999999994 19.256999999999994 23.546999999999993 C 19.772 23.367 20.228 23.382 20.736 23.517 z" stroke-linecap="round" />
</g>
<g transform="matrix(12.09 0 0 10.23 441.44 711.39)"  >
<path style="stroke: none; stroke-width: 1; stroke-dasharray: none; stroke-linecap: butt; stroke-dashoffset: 0; stroke-linejoin: miter; stroke-miterlimit: 4; fill: rgb(255,87,34); fill-rule: evenodd; opacity: 1;" vector-effect="non-scaling-stroke"  transform=" translate(-41.48, -66.39)" d="M 19.486 59.956 C 19.104 59.818000000000005 18.778000000000002 59.635000000000005 18.475 59.367000000000004 C 15.665000000000001 56.894000000000005 12.848000000000003 54.429 10.029000000000002 51.967000000000006 C 9.787000000000003 51.75600000000001 9.559000000000001 51.510000000000005 9.167000000000002 51.35900000000001 C 9.167000000000002 52.09000000000001 9.167000000000002 52.73500000000001 9.167000000000002 53.44100000000001 C 11.999000000000002 56.21600000000001 14.880000000000003 59.03200000000001 17.746000000000002 61.863000000000014 C 18.180000000000003 62.292000000000016 18.656000000000002 62.58700000000001 19.232000000000003 62.79400000000001 C 34.17100000000001 68.15800000000002 49.106 73.53500000000001 64.043 78.909 C 66.379 79.74900000000001 68.718 80.58300000000001 71.08300000000001 81.429 C 71.94300000000001 80.86 72.78800000000001 80.301 73.78800000000001 79.642 C 72.63000000000001 79.217 71.632 78.848 70.63300000000001 78.485 C 53.584 72.305 36.537 66.127 19.486 59.956 z" stroke-linecap="round" />
</g>
<g transform="matrix(12.09 0 0 10.23 573.79 377.64)"  >
<path style="stroke: none; stroke-width: 1; stroke-dasharray: none; stroke-linecap: butt; stroke-dashoffset: 0; stroke-linejoin: miter; stroke-miterlimit: 4; fill: rgb(255,87,34); fill-rule: evenodd; opacity: 1;" vector-effect="non-scaling-stroke"  transform=" translate(-52.43, -33.79)" d="M 19.002 19.112 C 21.965 19.851999999999997 24.938 20.555 27.905 21.279999999999998 C 39.912 24.211999999999996 51.921 27.133999999999997 63.923 30.090999999999998 C 66.607 30.752 69.357 31.194 71.902 32.361 C 72.35 32.567 72.724 32.818999999999996 73.06 33.177 C 77.31700000000001 37.705 81.581 42.227000000000004 85.84400000000001 46.748 C 87.028 48.001999999999995 88.21400000000001 49.253 89.39900000000002 50.504999999999995 C 89.35300000000001 49.57599999999999 89.45800000000001 48.669999999999995 88.77600000000001 47.91199999999999 C 83.46000000000001 42.007999999999996 78.16600000000001 36.08399999999999 72.876 30.15799999999999 C 72.61200000000001 29.86299999999999 72.313 29.70399999999999 71.947 29.61899999999999 C 65.143 28.024999999999988 58.342 26.431999999999988 51.539 24.83499999999999 C 40.744 22.30099999999999 29.946 19.77699999999999 19.159 17.20799999999999 C 18.145 16.96599999999999 17.29 16.984999999999992 16.480999999999998 17.64899999999999 C 16.438 17.68399999999999 16.394 17.71999999999999 16.308999999999997 17.79099999999999 C 16.051999999999996 18.59999999999999 15.780999999999997 19.44999999999999 15.459999999999997 20.45899999999999 C 16.395999999999997 19.99399999999999 17.179 19.61599999999999 17.948999999999998 19.213999999999988 C 18.298 19.032 18.612 19.014 19.002 19.112 z" stroke-linecap="round" />
</g>
<g transform="matrix(12.09 0 0 10.23 408.52 749.02)"  >
<path style="stroke: none; stroke-width: 1; stroke-dasharray: none; stroke-linecap: butt; stroke-dashoffset: 0; stroke-linejoin: miter; stroke-miterlimit: 4; fill: rgb(255,87,34); fill-rule: evenodd; opacity: 1;" vector-effect="non-scaling-stroke"  transform=" translate(-38.75, -70.07)" d="M 67.779 82.776 C 51.37 76.908 34.957 71.05 18.543 65.195 C 18.131999999999998 65.04899999999999 17.793 64.841 17.497 64.517 C 15.102 61.900999999999996 12.697 59.29599999999999 10.294 56.687999999999995 C 9.919 56.282 9.544 55.87499999999999 9.024000000000001 55.312 C 9.024000000000001 56.199 9.024000000000001 56.864999999999995 9.024000000000001 57.611999999999995 C 11.659 60.760999999999996 14.356000000000002 63.974 17.034 67.202 C 17.348 67.58 17.746 67.735 18.173 67.887 C 31.696999999999996 72.68 45.221999999999994 77.473 58.745999999999995 82.267 C 61.138999999999996 83.116 63.53099999999999 83.96799999999999 65.961 84.83 C 66.80799999999999 84.268 67.644 83.712 68.484 83.154 C 68.293 82.852 68.005 82.857 67.779 82.776 z" stroke-linecap="round" />
</g>
<g transform="matrix(12.09 0 0 10.23 377.73 788.38)"  >
<path style="stroke: none; stroke-width: 1; stroke-dasharray: none; stroke-linecap: butt; stroke-dashoffset: 0; stroke-linejoin: miter; stroke-miterlimit: 4; fill: rgb(255,87,34); fill-rule: evenodd; opacity: 1;" vector-effect="non-scaling-stroke"  transform=" translate(-36.21, -73.92)" d="M 17.64 70.274 C 17.171 70.108 16.803 69.86 16.498 69.456 C 14.945 67.396 13.372000000000002 65.352 11.803 63.306000000000004 C 10.877 62.099000000000004 9.946000000000002 60.896 9.017000000000001 59.691 C 8.969000000000001 59.704 8.920000000000002 59.715 8.871 59.728 C 8.871 60.395 8.871 61.062000000000005 8.871 61.859 C 11.169 65.121 13.557 68.496 15.925 71.886 C 16.266000000000002 72.374 16.675 72.66199999999999 17.241 72.86 C 29.674999999999997 77.197 42.102000000000004 81.553 54.532 85.904 C 56.68599999999999 86.65899999999999 58.845 87.39999999999999 60.985 88.14099999999999 C 61.824 87.58299999999998 62.618 87.05399999999999 63.541 86.44 C 63.168 86.301 62.956999999999994 86.22 62.744 86.145 C 47.709 80.853 32.676 75.561 17.64 70.274 z" stroke-linecap="round" />
</g>
<g transform="matrix(12.09 0 0 10.23 582.52 341.38)"  >
<path style="stroke: none; stroke-width: 1; stroke-dasharray: none; stroke-linecap: butt; stroke-dashoffset: 0; stroke-linejoin: miter; stroke-miterlimit: 4; fill: rgb(255,87,34); fill-rule: evenodd; opacity: 1;" vector-effect="non-scaling-stroke"  transform=" translate(-53.15, -30.24)" d="M 43.208 21.058 C 52.92 23.254 62.629999999999995 25.461 72.344 27.647 C 72.75999999999999 27.74 73.04899999999999 27.910999999999998 73.32199999999999 28.229999999999997 C 78.24699999999999 34.019 83.18099999999998 39.799 88.11699999999999 45.58 C 88.33899999999998 45.839999999999996 88.53299999999999 46.138999999999996 88.87899999999999 46.317 C 88.82699999999998 45.135 88.51799999999999 44.171 87.75999999999999 43.255 C 83.327 37.907000000000004 78.93599999999999 32.526 74.595 27.104000000000003 C 73.783 26.089000000000002 72.932 25.400000000000002 71.618 25.310000000000002 C 71.172 25.279000000000003 70.737 25.109 70.295 25.014000000000003 C 62.083 23.233000000000004 53.870000000000005 21.458000000000002 45.659000000000006 19.671000000000003 C 37.449000000000005 17.883000000000003 29.242000000000004 16.081000000000003 21.030000000000005 14.298000000000002 C 20.766000000000005 14.241000000000001 20.499000000000006 14.101000000000003 20.203000000000003 14.206000000000001 C 19.329000000000004 14.516000000000002 18.452 14.814000000000002 17.424000000000003 15.169 C 17.767000000000003 15.283000000000001 17.943 15.358 18.126000000000005 15.399000000000001 C 26.486 17.288 34.849 19.167 43.208 21.058 z" stroke-linecap="round" />
</g>
<g transform="matrix(12.09 0 0 10.23 613.63 310.17)"  >
<path style="stroke: none; stroke-width: 1; stroke-dasharray: none; stroke-linecap: butt; stroke-dashoffset: 0; stroke-linejoin: miter; stroke-miterlimit: 4; fill: rgb(255,87,34); fill-rule: evenodd; opacity: 1;" vector-effect="non-scaling-stroke"  transform=" translate(-55.73, -27.19)" d="M 23.34 13.343 C 27.993 14.321 32.647999999999996 15.293 37.301 16.269 C 49.183 18.761999999999997 61.065 21.262999999999998 72.952 23.730999999999998 C 73.597 23.865 74.001 24.156999999999996 74.387 24.651 C 78.864 30.398 83.358 36.132 87.849 41.869 C 87.94800000000001 41.995 88.007 42.187 88.28200000000001 42.135 C 88.05300000000001 41.366 88.19600000000001 40.537 87.65 39.815999999999995 C 83.28800000000001 34.05499999999999 78.95 28.274999999999995 74.61000000000001 22.497999999999994 C 74.36000000000001 22.164999999999996 74.07700000000001 21.981999999999992 73.64600000000002 21.895999999999994 C 70.12000000000002 21.199999999999992 66.60100000000001 20.461999999999993 63.07800000000002 19.749999999999993 C 50.81500000000002 17.270999999999994 38.55000000000002 14.797999999999993 26.286000000000016 12.319999999999993 C 26.092000000000017 12.279999999999994 25.907000000000014 12.198999999999993 25.705000000000016 12.270999999999994 C 24.871000000000016 12.568999999999994 24.036000000000016 12.865999999999994 23.170000000000016 13.173999999999994 C 23.266 13.273 23.298 13.334 23.34 13.343 z" stroke-linecap="round" />
</g>
<g transform="matrix(12.09 0 0 10.23 345.51 826.52)"  >
<path style="stroke: none; stroke-width: 1; stroke-dasharray: none; stroke-linecap: butt; stroke-dashoffset: 0; stroke-linejoin: miter; stroke-miterlimit: 4; fill: rgb(255,87,34); fill-rule: evenodd; opacity: 1;" vector-effect="non-scaling-stroke"  transform=" translate(-33.54, -77.64)" d="M 16.89 75.22 C 16.276 75.008 15.841000000000001 74.68599999999999 15.48 74.122 C 13.496 71.022 11.468 67.951 9.449000000000002 64.874 C 9.251000000000001 64.57199999999999 9.108000000000002 64.226 8.677000000000001 63.903999999999996 C 8.696000000000002 64.75699999999999 8.38 65.53099999999999 8.713000000000001 66.139 C 9.473 67.52499999999999 10.208000000000002 68.951 11.214 70.17399999999999 C 12.583 71.838 14.061 73.41199999999999 15.486 75.02999999999999 C 15.752 75.33299999999998 16.055 75.56899999999999 16.41 75.76199999999999 C 19.391 77.38199999999999 22.367 79.01399999999998 25.342 80.64499999999998 C 25.74 80.86299999999999 26.151999999999997 81.04199999999999 26.581999999999997 81.19099999999999 C 34.409 83.88899999999998 42.233999999999995 86.59599999999999 50.06 89.29799999999999 C 52.085 89.99699999999999 54.111000000000004 90.68999999999998 56.126000000000005 91.38099999999999 C 56.917 90.78499999999998 57.767 90.35899999999998 58.52 89.69899999999998 C 58.364000000000004 89.62399999999998 58.293000000000006 89.58099999999999 58.217000000000006 89.55499999999998 C 44.443 84.774 30.668 79.991 16.89 75.22 z" stroke-linecap="round" />
</g>
<g transform="matrix(12.09 0 0 10.23 642.63 280.93)"  >
<path style="stroke: none; stroke-width: 1; stroke-dasharray: none; stroke-linecap: butt; stroke-dashoffset: 0; stroke-linejoin: miter; stroke-miterlimit: 4; fill: rgb(255,87,34); fill-rule: evenodd; opacity: 1;" vector-effect="non-scaling-stroke"  transform=" translate(-58.13, -24.34)" d="M 87.462 38.137 C 87.528 38.109 87.596 38.081 87.663 38.053 C 87.454 37.309999999999995 87.539 36.522999999999996 87.041 35.817 C 83.137 30.291 79.256 24.747999999999998 75.381 19.2 C 75.097 18.794999999999998 74.762 18.608999999999998 74.282 18.52 C 70.19 17.766 66.103 16.987 62.015 16.218 C 57.342 15.339 52.668 14.464 47.996 13.584 C 42.74 12.594 37.482 11.606 32.228 10.607 C 31.085 10.389999999999999 29.68 10.677 28.588 11.421999999999999 C 43.969 14.424 59.316 17.421 74.58500000000001 20.402 C 78.92 26.373 83.19 32.255 87.462 38.137 z" stroke-linecap="round" />
</g>
<g transform="matrix(12.09 0 0 10.23 669.41 252.16)"  >
<path style="stroke: none; stroke-width: 1; stroke-dasharray: none; stroke-linecap: butt; stroke-dashoffset: 0; stroke-linejoin: miter; stroke-miterlimit: 4; fill: rgb(255,87,34); fill-rule: evenodd; opacity: 1;" vector-effect="non-scaling-stroke"  transform=" translate(-60.34, -21.52)" d="M 86.933 34.299 C 86.912 32.954 86.34500000000001 31.828 85.677 30.798 C 82.47600000000001 25.855999999999998 79.212 20.955 75.983 16.031 C 75.757 15.687 75.477 15.538999999999998 75.092 15.472 C 69.78999999999999 14.555 64.488 13.639999999999999 59.19 12.706999999999999 C 51.911 11.427 44.628 10.163999999999998 37.36 8.816999999999998 C 35.987 8.561999999999998 34.91 9.090999999999998 33.75 9.628999999999998 C 47.586 12.146999999999998 61.421 14.663999999999998 75.299 17.188999999999997 C 79.168 22.881 83.051 28.59 86.933 34.299 z" stroke-linecap="round" />
</g>
<g transform="matrix(12.09 0 0 10.23 673.72 193.33)"  >
<path style="stroke: none; stroke-width: 1; stroke-dasharray: none; stroke-linecap: butt; stroke-dashoffset: 0; stroke-linejoin: miter; stroke-miterlimit: 4; fill: rgb(255,87,34); fill-rule: evenodd; opacity: 1;" vector-effect="non-scaling-stroke"  transform=" translate(-60.7, -15.78)" d="M 82.534 24.493 C 82.59500000000001 24.455 82.65400000000001 24.418 82.715 24.38 C 81.239 20.16 78.622 16.566 76.305 12.761999999999999 C 72.01 12.063999999999998 67.706 11.371999999999998 63.40500000000001 10.663999999999998 C 56.30800000000001 9.495999999999999 49.20800000000001 8.344999999999999 42.12200000000001 7.1179999999999986 C 40.81600000000001 6.891999999999999 39.784000000000006 7.378999999999999 38.68200000000001 7.914999999999998 C 51.11600000000001 10.026999999999997 63.55100000000001 12.139999999999997 75.95700000000001 14.247999999999998 C 78.166 17.69 80.351 21.092 82.534 24.493 z" stroke-linecap="round" />
</g>
<g transform="matrix(12.09 0 0 10.23 665.37 119.13)"  >
<path style="stroke: none; stroke-width: 1; stroke-dasharray: none; stroke-linecap: butt; stroke-dashoffset: 0; stroke-linejoin: miter; stroke-miterlimit: 4; fill: rgb(255,87,34); fill-rule: evenodd; opacity: 1;" vector-effect="non-scaling-stroke"  transform=" translate(-60.01, -8.53)" d="M 76.639 11.108 C 76.575 11.088000000000001 76.497 11.057 76.416 11.042 C 71.225 10.03 66.032 9.019 60.84 8.011 C 56.34 7.137 51.835 6.296999999999999 47.30500000000001 5.585999999999999 C 45.89600000000001 5.364999999999999 44.626000000000005 5.496999999999999 43.251000000000005 6.247 C 54.494 8.033 65.61 9.8 76.733 11.567 C 76.786 11.425 76.78 11.265 76.639 11.108 z" stroke-linecap="round" />
</g>
<g transform="matrix(12.09 0 0 10.23 499.45 965.94)"  >
<path style="stroke: none; stroke-width: 1; stroke-dasharray: none; stroke-linecap: butt; stroke-dashoffset: 0; stroke-linejoin: miter; stroke-miterlimit: 4; fill: rgb(255,87,34); fill-rule: evenodd; opacity: 1;" vector-effect="non-scaling-stroke"  transform=" translate(-46.28, -91.27)" d="M 53.289 92.726 C 48.827 91.194 44.362 89.67 39.903000000000006 88.13 C 39.59400000000001 88.024 39.30200000000001 87.991 38.87400000000001 88.041 C 42.38200000000001 89.957 45.778000000000006 91.80499999999999 49.165000000000006 93.667 C 49.86500000000001 94.053 50.60300000000001 94.308 51.39000000000001 94.512 C 52.16100000000001 93.994 52.92400000000001 93.483 53.681000000000004 92.976 C 53.57 92.754 53.411 92.768 53.289 92.726 z" stroke-linecap="round" />
</g>
</svg>