<?xml version="1.0" encoding="utf-8"?>
<!-- Generator: Adobe Illustrator 24.1.2, SVG Export Plug-In . SVG Version: 6.00 Build 0)  -->
<svg version="1.1" id="Layer_1" xmlns="http://www.w3.org/2000/svg" xmlns:xlink="http://www.w3.org/1999/xlink" x="0px" y="0px"
	 viewBox="0 0 459.6 170.1" style="enable-background:new 0 0 459.6 170.1;" xml:space="preserve">
<style type="text/css">
	.st0{fill:url(#SVGID_1_);}
	.st1{fill:url(#SVGID_2_);}
	.st2{fill:url(#SVGID_3_);}
	.st3{fill:url(#SVGID_4_);}
	.st4{fill:url(#SVGID_5_);}
	.st5{fill:url(#SVGID_6_);}
	.st6{fill:url(#SVGID_7_);}
	.st7{fill:url(#SVGID_8_);}
	.st8{fill:url(#SVGID_9_);}
	.st9{fill:url(#SVGID_10_);}
	.st10{fill:url(#SVGID_11_);}
	.st11{fill:url(#SVGID_12_);}
	.st12{fill:url(#SVGID_13_);}
	.st13{fill:url(#SVGID_14_);}
	.st14{fill:url(#SVGID_15_);}
	.st15{fill:url(#SVGID_16_);}
	.st16{fill:url(#SVGID_17_);}
	.st17{fill:url(#SVGID_18_);}
	.st18{fill:url(#SVGID_19_);}
	.st19{fill:url(#SVGID_20_);}
	.st20{fill:url(#SVGID_21_);}
	.st21{fill:url(#SVGID_22_);}
	.st22{fill:url(#SVGID_23_);}
	.st23{fill:url(#SVGID_24_);}
	.st24{fill:url(#SVGID_25_);}
	.st25{fill:url(#SVGID_26_);}
	.st26{fill:url(#SVGID_27_);}
	.st27{fill:url(#SVGID_28_);}
	.st28{fill:url(#SVGID_29_);}
	.st29{fill:url(#SVGID_30_);}
	.st30{fill:url(#SVGID_31_);}
	.st31{fill:url(#SVGID_32_);}
	.st32{fill:url(#SVGID_33_);}
	.st33{fill:url(#SVGID_34_);}
	.st34{fill:url(#SVGID_35_);}
	.st35{fill:url(#SVGID_36_);}
	.st36{fill:url(#SVGID_37_);}
	.st37{fill:url(#SVGID_38_);}
	.st38{fill:url(#SVGID_39_);}
	.st39{fill:url(#SVGID_40_);}
	.st40{fill:url(#SVGID_41_);}
	.st41{fill:url(#SVGID_42_);}
	.st42{fill:url(#SVGID_43_);}
	.st43{fill:url(#SVGID_44_);}
	.st44{fill:url(#SVGID_45_);}
	.st45{fill:url(#SVGID_46_);}
	.st46{fill:url(#SVGID_47_);}
	.st47{fill:url(#SVGID_48_);}
	.st48{fill:url(#SVGID_49_);}
	.st49{fill:url(#SVGID_50_);}
	.st50{fill:url(#SVGID_51_);}
	.st51{fill:url(#SVGID_52_);}
	.st52{fill:url(#SVGID_53_);}
	.st53{fill:url(#SVGID_54_);}
	.st54{fill:url(#SVGID_55_);}
	.st55{fill:url(#SVGID_56_);}
	.st56{fill:url(#SVGID_57_);}
	.st57{fill:url(#SVGID_58_);}
	.st58{fill:url(#SVGID_59_);}
	.st59{fill:url(#SVGID_60_);}
	.st60{fill:url(#SVGID_61_);}
	.st61{fill:url(#SVGID_62_);}
	.st62{fill:url(#SVGID_63_);}
	.st63{fill:url(#SVGID_64_);}
	.st64{fill:url(#SVGID_65_);}
	.st65{fill:url(#SVGID_66_);}
	.st66{fill:url(#SVGID_67_);}
	.st67{fill:url(#SVGID_68_);}
	.st68{fill:url(#SVGID_69_);}
	.st69{fill:url(#SVGID_70_);}
	.st70{fill:url(#SVGID_71_);}
	.st71{fill:url(#SVGID_72_);}
	.st72{fill:url(#SVGID_73_);}
	.st73{fill:#4A4A4A;}
</style>
<g id="SvgjsG3860" transform="matrix(24.361012433952567,0,0,24.361012433952567,113.8279231461201,-18.327795043929612)">
	
		<linearGradient id="SVGID_1_" gradientUnits="userSpaceOnUse" x1="-32.8167" y1="15.3122" x2="-31.8166" y2="15.3122" gradientTransform="matrix(16.8045 0 0 -13.096 557.7056 203.7832)">
		<stop  offset="0" style="stop-color:#EF4136"/>
		<stop  offset="1" style="stop-color:#FBB040"/>
	</linearGradient>
	<path class="st0" d="M6.6,3.2c0,0.1,0,0.2-0.2,0.2c0,0-0.1,0.1-0.1,0.1c-0.1,0-0.1,0-0.1,0c0,0,0-0.1,0-0.1c0-0.1,0.1-0.1,0.2-0.1
		c0,0,0,0,0-0.1c0,0,0,0,0-0.1l0,0c0,0-0.1-0.1,0-0.1C6.4,3,6.5,3,6.5,3c0.1,0,0.2,0,0.3,0c0,0,0,0,0,0c0.1,0,0.1,0.1,0.1,0.1
		c0,0.1-0.1,0.1-0.1,0.1C6.8,3.2,6.7,3.2,6.6,3.2C6.7,3.2,6.7,3.2,6.6,3.2z"/>
	
		<linearGradient id="SVGID_2_" gradientUnits="userSpaceOnUse" x1="-31.5944" y1="15.4406" x2="-30.5944" y2="15.4406" gradientTransform="matrix(9.9649 0 0 -16.3246 320.1668 254.7999)">
		<stop  offset="0" style="stop-color:#EF4136"/>
		<stop  offset="1" style="stop-color:#FBB040"/>
	</linearGradient>
	<path class="st1" d="M5.5,3.1C5.4,3.1,5.3,3,5.3,3c0-0.1,0.1-0.2,0.1-0.3c0,0,0,0,0,0c0,0,0,0,0-0.1c0-0.1,0-0.1,0.1-0.1
		c0.1,0,0.1,0,0.1,0.1c0,0.1,0,0.1,0,0.1c0,0,0,0,0,0.1c0,0,0,0,0,0C5.6,2.8,5.6,2.9,5.5,3.1C5.5,3,5.5,3.1,5.5,3.1z"/>
	
		<linearGradient id="SVGID_3_" gradientUnits="userSpaceOnUse" x1="-32.6034" y1="14.9281" x2="-31.6034" y2="14.9281" gradientTransform="matrix(15.0076 0 0 -8.2258 495.4064 125.1668)">
		<stop  offset="0" style="stop-color:#EF4136"/>
		<stop  offset="1" style="stop-color:#FBB040"/>
	</linearGradient>
	<path class="st2" d="M6.4,2.5c-0.1,0-0.1,0-0.1-0.1c0,0,0,0-0.1,0c-0.1,0-0.1-0.1-0.1-0.1c0-0.1,0-0.1,0.1-0.1c0.1,0,0.1,0,0.1,0.1
		c0,0,0,0,0.1,0c0.1,0,0.1,0,0.2,0c0.1,0,0.1,0,0.1,0.1c0,0,0,0,0,0c0,0.1,0,0.1-0.1,0.1c0,0,0,0,0,0C6.5,2.5,6.5,2.5,6.4,2.5z"/>
	
		<linearGradient id="SVGID_4_" gradientUnits="userSpaceOnUse" x1="-31.5815" y1="15.2748" x2="-30.5815" y2="15.2748" gradientTransform="matrix(9.9223 0 0 -12.3811 319.1657 193.5344)">
		<stop  offset="0" style="stop-color:#EF4136"/>
		<stop  offset="1" style="stop-color:#FBB040"/>
	</linearGradient>
	<path class="st3" d="M5.9,4.5c0,0-0.1-0.1-0.1-0.1c0,0,0-0.1,0-0.2c0,0,0.1,0,0.2,0c0,0,0.1,0.1,0.1,0.1c0.1,0,0.1,0.1,0.1,0.1
		c0,0,0,0,0,0.1c0,0,0,0,0,0c0,0,0,0.1-0.1,0.1c0,0-0.1,0-0.1,0C5.9,4.6,5.9,4.5,5.9,4.5L5.9,4.5z"/>
	
		<linearGradient id="SVGID_5_" gradientUnits="userSpaceOnUse" x1="-31.0417" y1="15.3386" x2="-30.0417" y2="15.3386" gradientTransform="matrix(8.4161 0 0 -13.6499 265.4216 210.8286)">
		<stop  offset="0" style="stop-color:#EF4136"/>
		<stop  offset="1" style="stop-color:#FBB040"/>
	</linearGradient>
	<path class="st4" d="M4.3,1.2c0.1,0,0.1,0,0.1,0.1c0,0.1,0,0.1,0,0.2c0,0,0,0,0,0.1c0,0,0.1,0.1,0,0.1c0,0-0.1,0.1-0.1,0.1
		c-0.1,0-0.1,0-0.1-0.1c0,0,0,0,0,0C4.2,1.5,4.2,1.4,4.2,1.3C4.2,1.2,4.2,1.2,4.3,1.2z"/>
	
		<linearGradient id="SVGID_6_" gradientUnits="userSpaceOnUse" x1="-31.3612" y1="15.2301" x2="-30.3612" y2="15.2301" gradientTransform="matrix(9.2468 0 0 -11.6248 295.3033 181.9194)">
		<stop  offset="0" style="stop-color:#EF4136"/>
		<stop  offset="1" style="stop-color:#FBB040"/>
	</linearGradient>
	<path class="st5" d="M5.7,5C5.7,5.1,5.6,5.1,5.7,5C5.6,5.1,5.5,5.1,5.5,5.1c0,0-0.1,0-0.1-0.1c0-0.1-0.1-0.1-0.1-0.2
		c0-0.1,0-0.1,0-0.1c0,0,0,0,0,0c0.1,0,0.1,0,0.1,0c0,0,0,0,0,0c0,0,0,0.1,0,0.1C5.6,4.8,5.6,4.9,5.7,5C5.7,5,5.7,5,5.7,5z"/>
	
		<linearGradient id="SVGID_7_" gradientUnits="userSpaceOnUse" x1="-31.8683" y1="14.8558" x2="-30.8683" y2="14.8558" gradientTransform="matrix(10.9649 0 0 -7.688 355.5354 117.9589)">
		<stop  offset="0" style="stop-color:#EF4136"/>
		<stop  offset="1" style="stop-color:#FBB040"/>
	</linearGradient>
	<path class="st6" d="M6.6,3.8c0,0.1-0.1,0.1-0.1,0.1c-0.1,0-0.2-0.1-0.2-0.1c-0.1,0-0.1-0.1-0.1-0.1c0,0,0,0,0,0
		c0-0.1,0.1-0.1,0.1-0.1c0,0,0,0,0,0C6.3,3.6,6.4,3.7,6.6,3.8C6.5,3.7,6.5,3.7,6.6,3.8z"/>
	
		<linearGradient id="SVGID_8_" gradientUnits="userSpaceOnUse" x1="-29.4129" y1="15.2105" x2="-28.4129" y2="15.2105" gradientTransform="matrix(5.7719 0 0 -11.3206 174.2816 176.9569)">
		<stop  offset="0" style="stop-color:#EF4136"/>
		<stop  offset="1" style="stop-color:#FBB040"/>
	</linearGradient>
	<path class="st7" d="M4.5,4.8c0-0.1,0-0.1,0-0.2c0-0.1,0.1-0.1,0.1-0.1c0.1,0,0.1,0,0.1,0.1c0,0.1,0,0.2,0,0.3C4.7,5,4.7,5,4.6,5
		c0,0-0.1,0-0.1-0.1C4.5,4.9,4.5,4.8,4.5,4.8z"/>
	
		<linearGradient id="SVGID_9_" gradientUnits="userSpaceOnUse" x1="-29.9409" y1="15.1989" x2="-28.9409" y2="15.1989" gradientTransform="matrix(6.4264 0 0 -11.1489 196.4122 174.8215)">
		<stop  offset="0" style="stop-color:#EF4136"/>
		<stop  offset="1" style="stop-color:#FBB040"/>
	</linearGradient>
	<path class="st8" d="M4,5.4c0,0,0-0.1,0-0.2c0,0,0,0,0-0.1c0,0,0.1-0.1,0.1,0c0.1,0,0.1,0.1,0.1,0.1c0,0.1,0,0.2,0,0.2
		c0,0.1-0.1,0.1-0.1,0.1c0,0,0,0,0,0C4,5.6,4,5.5,4,5.4z"/>
	
		<linearGradient id="SVGID_10_" gradientUnits="userSpaceOnUse" x1="-31.5385" y1="15.0183" x2="-30.5385" y2="15.0183" gradientTransform="matrix(9.7827 0 0 -9.0128 311.5143 139.1194)">
		<stop  offset="0" style="stop-color:#EF4136"/>
		<stop  offset="1" style="stop-color:#FBB040"/>
	</linearGradient>
	<path class="st9" d="M3.4,3.7C3.4,3.7,3.4,3.8,3.4,3.7C3.3,3.8,3.2,3.9,3.2,3.9c0,0-0.1,0-0.1,0C3,3.9,3,3.9,3,3.8
		c0,0,0-0.1,0.1-0.1c0.1-0.1,0.1-0.1,0.2-0.1C3.3,3.5,3.4,3.6,3.4,3.7z"/>
	
		<linearGradient id="SVGID_11_" gradientUnits="userSpaceOnUse" x1="-31.1065" y1="15.0583" x2="-30.1065" y2="15.0583" gradientTransform="matrix(8.5722 0 0 -9.4124 269.9385 143.3092)">
		<stop  offset="0" style="stop-color:#EF4136"/>
		<stop  offset="1" style="stop-color:#FBB040"/>
	</linearGradient>
	<path class="st10" d="M3.6,1.6c0,0.1-0.1,0.2-0.2,0.1C3.4,1.7,3.3,1.6,3.3,1.5c0-0.1,0-0.1,0-0.1c0.1,0,0.1,0,0.1,0
		C3.5,1.5,3.6,1.5,3.6,1.6C3.6,1.6,3.6,1.6,3.6,1.6z"/>
	
		<linearGradient id="SVGID_12_" gradientUnits="userSpaceOnUse" x1="-31.8479" y1="14.4414" x2="-30.8479" y2="14.4414" gradientTransform="matrix(10.8839 0 0 -5.5915 352.1932 84.22)">
		<stop  offset="0" style="stop-color:#EF4136"/>
		<stop  offset="1" style="stop-color:#FBB040"/>
	</linearGradient>
	<path class="st11" d="M5.8,3.5c-0.1,0.1-0.1,0.1-0.2,0c0,0,0-0.1,0-0.2c0,0,0,0,0,0C5.7,3.3,5.7,3.4,5.8,3.5C5.9,3.4,5.9,3.3,6,3.4
		c0,0,0,0.1,0,0.2C5.9,3.6,5.9,3.6,5.8,3.5z"/>
	
		<linearGradient id="SVGID_13_" gradientUnits="userSpaceOnUse" x1="-31.524" y1="14.5776" x2="-30.524" y2="14.5776" gradientTransform="matrix(9.7367 0 0 -6.1421 309.6923 91.6225)">
		<stop  offset="0" style="stop-color:#EF4136"/>
		<stop  offset="1" style="stop-color:#FBB040"/>
	</linearGradient>
	<path class="st12" d="M2.9,2c0,0,0.1,0,0.2,0c0.1,0,0.1,0.1,0.1,0.1c0,0.1-0.1,0.1-0.1,0.1c0,0,0,0,0,0c-0.1,0-0.1,0-0.2,0
		c-0.1,0-0.1-0.1-0.1-0.1c0,0,0,0,0,0C2.8,2,2.8,2,2.9,2z"/>
	
		<linearGradient id="SVGID_14_" gradientUnits="userSpaceOnUse" x1="-31.5651" y1="14.966" x2="-30.5651" y2="14.966" gradientTransform="matrix(9.8688 0 0 -8.5394 316.1818 129.9523)">
		<stop  offset="0" style="stop-color:#EF4136"/>
		<stop  offset="1" style="stop-color:#FBB040"/>
	</linearGradient>
	<path class="st13" d="M4.9,2.2c0,0.1-0.1,0.1-0.1,0.1c-0.1,0-0.1-0.1-0.1-0.1C4.7,2.1,4.7,2.1,4.9,2.2c0-0.1,0-0.2,0-0.2
		C4.9,2,5,2,5,2c0.1,0,0.1,0.1,0.1,0.1c0,0,0,0,0,0C5.1,2.2,5,2.2,4.9,2.2z"/>
	
		<linearGradient id="SVGID_15_" gradientUnits="userSpaceOnUse" x1="-29.5519" y1="15.1832" x2="-28.5519" y2="15.1832" gradientTransform="matrix(5.931 0 0 -10.9239 180.5464 168.0669)">
		<stop  offset="0" style="stop-color:#EF4136"/>
		<stop  offset="1" style="stop-color:#FBB040"/>
	</linearGradient>
	<path class="st14" d="M5.4,2.2C5.3,2.2,5.3,2.1,5.3,2c0,0,0.1-0.1,0.2,0c0,0,0,0,0,0C5.5,2.1,5.5,2.1,5.4,2.2
		C5.5,2.2,5.4,2.2,5.4,2.2c0.1,0,0.1,0.1,0.2,0.1c0,0,0,0.1,0,0.1c0,0-0.1,0-0.1,0c0,0,0,0,0,0C5.3,2.4,5.3,2.3,5.4,2.2z"/>
	
		<linearGradient id="SVGID_16_" gradientUnits="userSpaceOnUse" x1="-31.3335" y1="14.9613" x2="-30.3335" y2="14.9613" gradientTransform="matrix(9.1683 0 0 -8.4993 292.3401 128.9354)">
		<stop  offset="0" style="stop-color:#EF4136"/>
		<stop  offset="1" style="stop-color:#FBB040"/>
	</linearGradient>
	<path class="st15" d="M5.3,1.7c0.1,0,0.2,0,0.1,0.1c0,0.1,0,0.1-0.1,0.1c-0.1,0-0.1,0-0.1-0.1c-0.1,0-0.2-0.1-0.2-0.1
		c0-0.1,0-0.1,0.1-0.1C5.2,1.6,5.3,1.6,5.3,1.7z"/>
	
		<linearGradient id="SVGID_17_" gradientUnits="userSpaceOnUse" x1="-30.3496" y1="15.0667" x2="-29.3496" y2="15.0667" gradientTransform="matrix(7.0447 0 0 -9.5009 217.4769 147.674)">
		<stop  offset="0" style="stop-color:#EF4136"/>
		<stop  offset="1" style="stop-color:#FBB040"/>
	</linearGradient>
	<path class="st16" d="M3.7,4.6c0-0.1,0.1-0.1,0.1-0.2c0,0,0.1-0.1,0.1,0C4,4.4,4,4.4,4,4.5c0,0.1,0,0.1-0.1,0.2
		c0,0.1-0.1,0.1-0.1,0.1C3.7,4.7,3.7,4.7,3.7,4.6L3.7,4.6z"/>
	
		<linearGradient id="SVGID_18_" gradientUnits="userSpaceOnUse" x1="-31.3806" y1="14.7848" x2="-30.3806" y2="14.7848" gradientTransform="matrix(9.3027 0 0 -7.2239 296.7784 110.127)">
		<stop  offset="0" style="stop-color:#EF4136"/>
		<stop  offset="1" style="stop-color:#FBB040"/>
	</linearGradient>
	<path class="st17" d="M5.2,3.3C5.2,3.3,5.2,3.3,5.2,3.3C5.1,3.4,5.1,3.4,5,3.5c0,0-0.1,0-0.1,0c0,0,0-0.1,0-0.1
		C5,3.2,5,3.2,5.1,3.2C5.2,3.2,5.2,3.2,5.2,3.3z"/>
	
		<linearGradient id="SVGID_19_" gradientUnits="userSpaceOnUse" x1="-31.4272" y1="14.7139" x2="-30.4272" y2="14.7139" gradientTransform="matrix(9.4393 0 0 -6.8129 302.3862 103.3473)">
		<stop  offset="0" style="stop-color:#EF4136"/>
		<stop  offset="1" style="stop-color:#FBB040"/>
	</linearGradient>
	<path class="st18" d="M5.9,3C5.9,3,5.9,3,5.9,3C6,3,6,3,6.1,3c0,0,0.1,0.1,0,0.1C6.1,3.2,6,3.2,6,3.2c0,0,0,0-0.1,0
		c0,0-0.1,0.1-0.1,0c0,0-0.1-0.1-0.1-0.1C5.8,3,5.8,3,5.9,3z"/>
	
		<linearGradient id="SVGID_20_" gradientUnits="userSpaceOnUse" x1="-30.7608" y1="14.9039" x2="-29.7608" y2="14.9039" gradientTransform="matrix(7.7998 0 0 -8.038 245.9773 121.481)">
		<stop  offset="0" style="stop-color:#EF4136"/>
		<stop  offset="1" style="stop-color:#FBB040"/>
	</linearGradient>
	<path class="st19" d="M6.2,1.8C6.1,1.8,6,1.8,6.1,1.7c0-0.1,0.1-0.1,0.2-0.2c0,0,0.1,0,0.1,0c0,0,0,0,0,0c0,0,0,0.1,0,0.1
		C6.3,1.7,6.3,1.8,6.2,1.8C6.2,1.8,6.2,1.8,6.2,1.8z"/>
	
		<linearGradient id="SVGID_21_" gradientUnits="userSpaceOnUse" x1="-31.1691" y1="14.6836" x2="-30.1691" y2="14.6836" gradientTransform="matrix(8.7288 0 0 -6.6514 274.6939 100.7105)">
		<stop  offset="0" style="stop-color:#EF4136"/>
		<stop  offset="1" style="stop-color:#FBB040"/>
	</linearGradient>
	<path class="st20" d="M2.9,2.9C2.9,2.9,3,2.9,3,3c0,0,0,0.1-0.1,0.1c-0.1,0-0.1,0-0.2,0.1c-0.1,0-0.1,0-0.1-0.1c0,0,0-0.1,0-0.1
		C2.7,3,2.8,2.9,2.9,2.9z"/>
	
		<linearGradient id="SVGID_22_" gradientUnits="userSpaceOnUse" x1="-30.7296" y1="14.8512" x2="-29.7296" y2="14.8512" gradientTransform="matrix(7.7368 0 0 -7.6561 240.1374 117.2614)">
		<stop  offset="0" style="stop-color:#EF4136"/>
		<stop  offset="1" style="stop-color:#FBB040"/>
	</linearGradient>
	<path class="st21" d="M2.4,3.6c0-0.1,0.1-0.2,0.2-0.2c0,0,0.1,0,0.1,0c0,0,0,0.1,0,0.1c0,0.1-0.1,0.1-0.1,0.1
		C2.5,3.7,2.5,3.7,2.4,3.6C2.4,3.7,2.4,3.6,2.4,3.6z"/>
	
		<linearGradient id="SVGID_23_" gradientUnits="userSpaceOnUse" x1="-30.3725" y1="14.9029" x2="-29.3725" y2="14.9029" gradientTransform="matrix(7.0829 0 0 -8.03 220.0862 123.6256)">
		<stop  offset="0" style="stop-color:#EF4136"/>
		<stop  offset="1" style="stop-color:#FBB040"/>
	</linearGradient>
	<path class="st22" d="M5.1,4.1C5,4.1,5,4.1,5,4C5,4,5,4,5,3.9c0,0,0-0.1,0.1-0.1c0,0,0.1-0.1,0.1-0.1c0,0,0.1,0,0.1,0.1
		c0,0,0,0.1,0,0.1C5.2,4,5.2,4,5.1,4.1C5.1,4.1,5.1,4.1,5.1,4.1z"/>
	
		<linearGradient id="SVGID_24_" gradientUnits="userSpaceOnUse" x1="-30.6429" y1="14.8077" x2="-29.6429" y2="14.8077" gradientTransform="matrix(7.5673 0 0 -7.3672 238.0563 113.9833)">
		<stop  offset="0" style="stop-color:#EF4136"/>
		<stop  offset="1" style="stop-color:#FBB040"/>
	</linearGradient>
	<path class="st23" d="M6.5,4.9C6.5,5,6.4,5.1,6.3,5C6.3,5,6.2,5,6.2,4.9c0,0,0-0.1,0-0.1c0,0,0,0,0,0c0,0,0.1,0,0.1,0
		C6.4,4.8,6.4,4.8,6.5,4.9C6.5,4.9,6.5,4.9,6.5,4.9z"/>
	
		<linearGradient id="SVGID_25_" gradientUnits="userSpaceOnUse" x1="-30.5459" y1="14.8031" x2="-29.5459" y2="14.8031" gradientTransform="matrix(7.3861 0 0 -7.3382 228.3623 112.9571)">
		<stop  offset="0" style="stop-color:#EF4136"/>
		<stop  offset="1" style="stop-color:#FBB040"/>
	</linearGradient>
	<path class="st24" d="M2.9,4.2C3,4.2,3,4.2,3,4.3c0,0,0,0,0,0.1c0,0-0.1,0.1-0.1,0.1c0,0-0.1,0-0.1,0c0,0,0,0,0-0.1
		C2.8,4.3,2.8,4.2,2.9,4.2z"/>
	
		<linearGradient id="SVGID_26_" gradientUnits="userSpaceOnUse" x1="-29.8599" y1="14.9202" x2="-28.8599" y2="14.9202" gradientTransform="matrix(6.3166 0 0 -8.1639 193.7616 123.1642)">
		<stop  offset="0" style="stop-color:#EF4136"/>
		<stop  offset="1" style="stop-color:#FBB040"/>
	</linearGradient>
	<path class="st25" d="M5.1,1.4c0-0.1,0-0.1,0.1-0.2c0,0,0.1-0.1,0.1,0c0.1,0,0.1,0.1,0.1,0.1c0,0,0,0.1,0,0.1
		c0,0.1-0.1,0.1-0.1,0.1C5.2,1.5,5.2,1.5,5.1,1.4z"/>
	
		<linearGradient id="SVGID_27_" gradientUnits="userSpaceOnUse" x1="-30.6024" y1="14.3725" x2="-29.6024" y2="14.3725" gradientTransform="matrix(7.4906 0 0 -5.3489 231.7485 79.3846)">
		<stop  offset="0" style="stop-color:#EF4136"/>
		<stop  offset="1" style="stop-color:#FBB040"/>
	</linearGradient>
	<path class="st26" d="M2.7,2.4C2.7,2.4,2.7,2.4,2.7,2.4c0.1,0,0.1,0.1,0.1,0.1c0,0.1,0,0.1-0.1,0.1c0,0-0.1,0-0.1,0
		c-0.1,0-0.1-0.1-0.1-0.1c0,0,0,0,0,0C2.5,2.4,2.6,2.4,2.7,2.4z"/>
	
		<linearGradient id="SVGID_28_" gradientUnits="userSpaceOnUse" x1="-29.6154" y1="14.8254" x2="-28.6154" y2="14.8254" gradientTransform="matrix(6.0066 0 0 -7.4824 183.09 116.4443)">
		<stop  offset="0" style="stop-color:#EF4136"/>
		<stop  offset="1" style="stop-color:#FBB040"/>
	</linearGradient>
	<path class="st27" d="M5.4,5.6C5.4,5.6,5.4,5.6,5.4,5.6C5.3,5.7,5.3,5.7,5.3,5.6c0-0.1-0.1-0.1,0-0.2c0,0,0-0.1,0.1-0.1
		c0,0,0.1,0,0.1,0.1C5.4,5.5,5.4,5.5,5.4,5.6z"/>
	
		<linearGradient id="SVGID_29_" gradientUnits="userSpaceOnUse" x1="-30.2426" y1="14.7338" x2="-29.2426" y2="14.7338" gradientTransform="matrix(6.8717 0 0 -6.9235 211.9281 105.1823)">
		<stop  offset="0" style="stop-color:#EF4136"/>
		<stop  offset="1" style="stop-color:#FBB040"/>
	</linearGradient>
	<path class="st28" d="M4.4,3.2C4.4,3.3,4.3,3.3,4.4,3.2C4.3,3.3,4.2,3.3,4.2,3.3c0,0-0.1-0.1-0.1-0.1c0,0,0-0.1,0-0.1
		c0,0,0.1,0,0.1,0C4.3,3.1,4.4,3.2,4.4,3.2z"/>
	
		<linearGradient id="SVGID_30_" gradientUnits="userSpaceOnUse" x1="-30.1044" y1="14.4403" x2="-29.1044" y2="14.4403" gradientTransform="matrix(6.6603 0 0 -5.5875 203.8281 83.0378)">
		<stop  offset="0" style="stop-color:#EF4136"/>
		<stop  offset="1" style="stop-color:#FBB040"/>
	</linearGradient>
	<path class="st29" d="M3.4,2.2c0.1,0,0.2,0.1,0.2,0.1c0,0.1-0.1,0.1-0.1,0.1c0,0,0,0,0,0c-0.1,0-0.2,0-0.2-0.1
		C3.3,2.3,3.4,2.2,3.4,2.2C3.4,2.2,3.4,2.2,3.4,2.2z"/>
	
		<linearGradient id="SVGID_31_" gradientUnits="userSpaceOnUse" x1="-30.0823" y1="14.4891" x2="-29.0823" y2="14.4891" gradientTransform="matrix(6.6277 0 0 -5.7726 205.9953 87.811)">
		<stop  offset="0" style="stop-color:#EF4136"/>
		<stop  offset="1" style="stop-color:#FBB040"/>
	</linearGradient>
	<path class="st30" d="M6.7,4.1c0.1,0,0.2,0.1,0.2,0.1c0,0.1-0.1,0.1-0.1,0.1c0,0,0,0,0,0c-0.1,0-0.1-0.1-0.1-0.1
		C6.6,4.1,6.7,4.1,6.7,4.1C6.7,4.1,6.7,4.1,6.7,4.1z"/>
	
		<linearGradient id="SVGID_32_" gradientUnits="userSpaceOnUse" x1="-29.8655" y1="14.5468" x2="-28.8655" y2="14.5468" gradientTransform="matrix(6.3241 0 0 -6.0081 193.5585 90.5039)">
		<stop  offset="0" style="stop-color:#EF4136"/>
		<stop  offset="1" style="stop-color:#FBB040"/>
	</linearGradient>
	<path class="st31" d="M4.7,3.1C4.7,3,4.8,3,4.8,3C4.9,3,4.9,3,4.9,3.1c0,0,0,0,0,0c0,0.1-0.1,0.1-0.2,0.1C4.7,3.2,4.7,3.2,4.7,3.1
		C4.7,3.1,4.7,3.1,4.7,3.1z"/>
	
		<linearGradient id="SVGID_33_" gradientUnits="userSpaceOnUse" x1="-35.9931" y1="10.279" x2="-34.9931" y2="10.279" gradientTransform="matrix(0.1903 -5.3132 -5.3132 -0.1903 66.1199 -185.4201)">
		<stop  offset="0" style="stop-color:#EF4136"/>
		<stop  offset="1" style="stop-color:#FBB040"/>
	</linearGradient>
	<circle class="st32" cx="4.7" cy="3.8" r="0.1"/>
	
		<linearGradient id="SVGID_34_" gradientUnits="userSpaceOnUse" x1="-29.0041" y1="14.3494" x2="-28.0041" y2="14.3494" gradientTransform="matrix(5.3441 -2.065158e-02 -2.065158e-02 -5.3441 159.5581 79.527)">
		<stop  offset="0" style="stop-color:#EF4136"/>
		<stop  offset="1" style="stop-color:#FBB040"/>
	</linearGradient>
	<circle class="st33" cx="4.4" cy="3.4" r="0.1"/>
	
		<linearGradient id="SVGID_35_" gradientUnits="userSpaceOnUse" x1="-36.0959" y1="10.3543" x2="-35.0959" y2="10.3543" gradientTransform="matrix(8.314335e-02 -5.3595 -5.3595 -8.314335e-02 62.7937 -189.9374)">
		<stop  offset="0" style="stop-color:#EF4136"/>
		<stop  offset="1" style="stop-color:#FBB040"/>
	</linearGradient>
	<circle class="st34" cx="4.3" cy="2.5" r="0.1"/>
	
		<linearGradient id="SVGID_36_" gradientUnits="userSpaceOnUse" x1="-29.0182" y1="14.3656" x2="-28.0182" y2="14.3656" gradientTransform="matrix(5.3608 -1.002159e-02 -1.002159e-02 -5.3608 160.0541 78.707)">
		<stop  offset="0" style="stop-color:#EF4136"/>
		<stop  offset="1" style="stop-color:#FBB040"/>
	</linearGradient>
	<circle class="st35" cx="4.5" cy="2" r="0.1"/>
	
		<linearGradient id="SVGID_37_" gradientUnits="userSpaceOnUse" x1="-36.0943" y1="10.3532" x2="-35.0943" y2="10.3532" gradientTransform="matrix(8.478321e-02 -5.3588 -5.3588 -8.478321e-02 61.8902 -188.1641)">
		<stop  offset="0" style="stop-color:#EF4136"/>
		<stop  offset="1" style="stop-color:#FBB040"/>
	</linearGradient>
	<circle class="st36" cx="3.4" cy="4.3" r="0.1"/>
	
		<linearGradient id="SVGID_38_" gradientUnits="userSpaceOnUse" x1="-36.0358" y1="10.3012" x2="-35.0358" y2="10.3012" gradientTransform="matrix(0.1481 -5.3248 -5.3248 -0.1481 64.766 -187.7536)">
		<stop  offset="0" style="stop-color:#EF4136"/>
		<stop  offset="1" style="stop-color:#FBB040"/>
	</linearGradient>
	<circle class="st37" cx="4.6" cy="2.5" r="0.1"/>
	
		<linearGradient id="SVGID_39_" gradientUnits="userSpaceOnUse" x1="-29.0889" y1="14.1697" x2="-28.0889" y2="14.1697" gradientTransform="matrix(5.3666 -0.2026 -0.2026 -5.3666 164.7949 72.0006)">
		<stop  offset="0" style="stop-color:#EF4136"/>
		<stop  offset="1" style="stop-color:#FBB040"/>
	</linearGradient>
	<circle class="st38" cx="5.9" cy="1.8" r="0.1"/>
	
		<linearGradient id="SVGID_40_" gradientUnits="userSpaceOnUse" x1="-35.7711" y1="10.2562" x2="-34.771" y2="10.2562" gradientTransform="matrix(0.3937 -5.3264 -5.3264 -0.3937 74.6118 -184.1883)">
		<stop  offset="0" style="stop-color:#EF4136"/>
		<stop  offset="1" style="stop-color:#FBB040"/>
	</linearGradient>
	<circle class="st39" cx="5.9" cy="2.2" r="0.1"/>
	
		<linearGradient id="SVGID_41_" gradientUnits="userSpaceOnUse" x1="-35.9344" y1="10.2742" x2="-34.9344" y2="10.2742" gradientTransform="matrix(0.2436 -5.3194 -5.3194 -0.2436 67.442 -186.4843)">
		<stop  offset="0" style="stop-color:#EF4136"/>
		<stop  offset="1" style="stop-color:#FBB040"/>
	</linearGradient>
	<circle class="st40" cx="4" cy="2.1" r="0.1"/>
	
		<linearGradient id="SVGID_42_" gradientUnits="userSpaceOnUse" x1="-36.0172" y1="10.3037" x2="-35.0172" y2="10.3037" gradientTransform="matrix(0.1642 -5.3308 -5.3308 -0.1642 65.8355 -185.6909)">
		<stop  offset="0" style="stop-color:#EF4136"/>
		<stop  offset="1" style="stop-color:#FBB040"/>
	</linearGradient>
	<circle class="st41" cx="5" cy="4.5" r="0.1"/>
	
		<linearGradient id="SVGID_43_" gradientUnits="userSpaceOnUse" x1="-35.9614" y1="10.3058" x2="-34.9614" y2="10.3058" gradientTransform="matrix(0.2138 -5.3431 -5.3431 -0.2138 69.7345 -187.1615)">
		<stop  offset="0" style="stop-color:#EF4136"/>
		<stop  offset="1" style="stop-color:#FBB040"/>
	</linearGradient>
	<circle class="st42" cx="7" cy="2.7" r="0.1"/>
	
		<linearGradient id="SVGID_44_" gradientUnits="userSpaceOnUse" x1="-29.0256" y1="14.2884" x2="-28.0256" y2="14.2884" gradientTransform="matrix(5.3468 -8.008736e-02 -8.008736e-02 -5.3468 161.7616 78.3449)">
		<stop  offset="0" style="stop-color:#EF4136"/>
		<stop  offset="1" style="stop-color:#FBB040"/>
	</linearGradient>
	<circle class="st43" cx="5.5" cy="4.3" r="0.1"/>
	
		<linearGradient id="SVGID_45_" gradientUnits="userSpaceOnUse" x1="-29.0092" y1="14.3743" x2="-28.0092" y2="14.3743" gradientTransform="matrix(5.355 0 0 -5.355 159.5625 81.5962)">
		<stop  offset="0" style="stop-color:#EF4136"/>
		<stop  offset="1" style="stop-color:#FBB040"/>
	</linearGradient>
	<circle class="st44" cx="4.3" cy="4.6" r="0.1"/>
	
		<linearGradient id="SVGID_46_" gradientUnits="userSpaceOnUse" x1="-29.0498" y1="14.1801" x2="-28.0498" y2="14.1801" gradientTransform="matrix(5.336 -0.1813 -0.1813 -5.336 161.3945 73.1084)">
		<stop  offset="0" style="stop-color:#EF4136"/>
		<stop  offset="1" style="stop-color:#FBB040"/>
	</linearGradient>
	<circle class="st45" cx="3.9" cy="2.7" r="0.1"/>
	
		<linearGradient id="SVGID_47_" gradientUnits="userSpaceOnUse" x1="-29.0283" y1="14.2988" x2="-28.0283" y2="14.2988" gradientTransform="matrix(5.352 -7.166006e-02 -7.166006e-02 -5.352 159.6128 77.4699)">
		<stop  offset="0" style="stop-color:#EF4136"/>
		<stop  offset="1" style="stop-color:#FBB040"/>
	</linearGradient>
	<circle class="st46" cx="3.3" cy="3" r="0.1"/>
	
		<linearGradient id="SVGID_48_" gradientUnits="userSpaceOnUse" x1="-28.9952" y1="14.3401" x2="-27.9952" y2="14.3401" gradientTransform="matrix(5.3339 -2.661630e-02 -2.661630e-02 -5.3339 160.8204 78.5451)">
		<stop  offset="0" style="stop-color:#EF4136"/>
		<stop  offset="1" style="stop-color:#FBB040"/>
	</linearGradient>
	<circle class="st47" cx="5.9" cy="2.8" r="0.1"/>
	
		<linearGradient id="SVGID_49_" gradientUnits="userSpaceOnUse" x1="-29.0183" y1="14.3082" x2="-28.0183" y2="14.3082" gradientTransform="matrix(5.3457 -6.067982e-02 -6.067982e-02 -5.3457 161.1545 78.3789)">
		<stop  offset="0" style="stop-color:#EF4136"/>
		<stop  offset="1" style="stop-color:#FBB040"/>
	</linearGradient>
	<circle class="st48" cx="5.3" cy="3.7" r="0.1"/>
	
		<linearGradient id="SVGID_50_" gradientUnits="userSpaceOnUse" x1="-36.1637" y1="10.3433" x2="-35.1637" y2="10.3433" gradientTransform="matrix(2.538230e-02 -5.3339 -5.3339 -2.538230e-02 61.7083 -190.7941)">
		<stop  offset="0" style="stop-color:#EF4136"/>
		<stop  offset="1" style="stop-color:#FBB040"/>
	</linearGradient>
	<circle class="st49" cx="5.6" cy="1.7" r="0.1"/>
	
		<linearGradient id="SVGID_51_" gradientUnits="userSpaceOnUse" x1="-36.1353" y1="10.3165" x2="-35.1353" y2="10.3165" gradientTransform="matrix(5.672358e-02 -5.317 -5.317 -5.672358e-02 60.8351 -187.5857)">
		<stop  offset="0" style="stop-color:#EF4136"/>
		<stop  offset="1" style="stop-color:#FBB040"/>
	</linearGradient>
	<circle class="st50" cx="3.9" cy="3.9" r="0.1"/>
	
		<linearGradient id="SVGID_52_" gradientUnits="userSpaceOnUse" x1="-36.076" y1="10.3181" x2="-35.076" y2="10.3181" gradientTransform="matrix(0.1088 -5.3315 -5.3315 -0.1088 65.2214 -188.3572)">
		<stop  offset="0" style="stop-color:#EF4136"/>
		<stop  offset="1" style="stop-color:#FBB040"/>
	</linearGradient>
	<circle class="st51" cx="6.3" cy="2.8" r="0.1"/>
	
		<linearGradient id="SVGID_53_" gradientUnits="userSpaceOnUse" x1="-36.1524" y1="10.3503" x2="-35.1524" y2="10.3503" gradientTransform="matrix(3.369538e-02 -5.3428 -5.3428 -3.369538e-02 61.3681 -188.5478)">
		<stop  offset="0" style="stop-color:#EF4136"/>
		<stop  offset="1" style="stop-color:#FBB040"/>
	</linearGradient>
	<circle class="st52" cx="4.9" cy="4.1" r="0.1"/>
	
		<linearGradient id="SVGID_54_" gradientUnits="userSpaceOnUse" x1="-35.9445" y1="10.2817" x2="-34.9445" y2="10.2817" gradientTransform="matrix(0.2332 -5.3243 -5.3243 -0.2332 68.018 -187.1138)">
		<stop  offset="0" style="stop-color:#EF4136"/>
		<stop  offset="1" style="stop-color:#FBB040"/>
	</linearGradient>
	<circle class="st53" cx="4.9" cy="1.8" r="0.1"/>
	
		<linearGradient id="SVGID_55_" gradientUnits="userSpaceOnUse" x1="-36.1402" y1="10.3178" x2="-35.1402" y2="10.3178" gradientTransform="matrix(5.207907e-02 -5.317 -5.317 -5.207907e-02 60.0452 -186.6128)">
		<stop  offset="0" style="stop-color:#EF4136"/>
		<stop  offset="1" style="stop-color:#FBB040"/>
	</linearGradient>
	<circle class="st54" cx="3.3" cy="4.9" r="0.1"/>
	
		<linearGradient id="SVGID_56_" gradientUnits="userSpaceOnUse" x1="-36.1022" y1="10.3524" x2="-35.1022" y2="10.3524" gradientTransform="matrix(7.792201e-02 -5.3564 -5.3564 -7.792201e-02 63.1932 -187.1319)">
		<stop  offset="0" style="stop-color:#EF4136"/>
		<stop  offset="1" style="stop-color:#FBB040"/>
	</linearGradient>
	<circle class="st55" cx="4.9" cy="5.3" r="0.1"/>
	
		<linearGradient id="SVGID_57_" gradientUnits="userSpaceOnUse" x1="-29.0152" y1="14.2506" x2="-28.0152" y2="14.2506" gradientTransform="matrix(5.327 -0.1101 -0.1101 -5.327 160.7883 73.9147)">
		<stop  offset="0" style="stop-color:#EF4136"/>
		<stop  offset="1" style="stop-color:#FBB040"/>
	</linearGradient>
	<circle class="st56" cx="4.8" cy="1.2" r="0.1"/>
	
		<linearGradient id="SVGID_58_" gradientUnits="userSpaceOnUse" x1="-29.0553" y1="14.2529" x2="-28.0553" y2="14.2529" gradientTransform="matrix(5.3627 -0.1196 -0.1196 -5.3627 162.5601 75.797)">
		<stop  offset="0" style="stop-color:#EF4136"/>
		<stop  offset="1" style="stop-color:#FBB040"/>
	</linearGradient>
	<circle class="st57" cx="5.2" cy="2.8" r="0.1"/>
	
		<linearGradient id="SVGID_59_" gradientUnits="userSpaceOnUse" x1="-29.0182" y1="14.368" x2="-28.0182" y2="14.368" gradientTransform="matrix(5.3614 -7.846240e-03 -7.846240e-03 -5.3614 159.3499 80.2543)">
		<stop  offset="0" style="stop-color:#EF4136"/>
		<stop  offset="1" style="stop-color:#FBB040"/>
	</linearGradient>
	<circle class="st58" cx="3.8" cy="3.4" r="0.1"/>
	
		<linearGradient id="SVGID_60_" gradientUnits="userSpaceOnUse" x1="-36.0772" y1="10.3307" x2="-35.0772" y2="10.3307" gradientTransform="matrix(0.105 -5.3425 -5.3425 -0.105 63.5161 -188.6493)">
		<stop  offset="0" style="stop-color:#EF4136"/>
		<stop  offset="1" style="stop-color:#FBB040"/>
	</linearGradient>
	<circle class="st59" cx="4.5" cy="2.9" r="0.1"/>
	
		<linearGradient id="SVGID_61_" gradientUnits="userSpaceOnUse" x1="-36.1153" y1="10.3256" x2="-35.1153" y2="10.3256" gradientTransform="matrix(7.234343e-02 -5.3296 -5.3296 -7.234343e-02 61.4812 -188.6288)">
		<stop  offset="0" style="stop-color:#EF4136"/>
		<stop  offset="1" style="stop-color:#FBB040"/>
	</linearGradient>
	<circle class="st60" cx="3.8" cy="3" r="0.1"/>
	
		<linearGradient id="SVGID_62_" gradientUnits="userSpaceOnUse" x1="-36.0967" y1="10.3149" x2="-35.0967" y2="10.3149" gradientTransform="matrix(9.113989e-02 -5.3242 -5.3242 -9.113989e-02 64.0458 -189.8656)">
		<stop  offset="0" style="stop-color:#EF4136"/>
		<stop  offset="1" style="stop-color:#FBB040"/>
	</linearGradient>
	<circle class="st61" cx="5.8" cy="1.3" r="0.1"/>
	
		<linearGradient id="SVGID_63_" gradientUnits="userSpaceOnUse" x1="-29.0206" y1="14.2618" x2="-28.0206" y2="14.2618" gradientTransform="matrix(5.3349 -0.1019 -0.1019 -5.3349 162.1433 75.7288)">
		<stop  offset="0" style="stop-color:#EF4136"/>
		<stop  offset="1" style="stop-color:#FBB040"/>
	</linearGradient>
	<circle class="st62" cx="6" cy="2.6" r="0.1"/>
	
		<linearGradient id="SVGID_64_" gradientUnits="userSpaceOnUse" x1="-36.0983" y1="10.3305" x2="-35.0983" y2="10.3305" gradientTransform="matrix(8.625669e-02 -5.3377 -5.3377 -8.625669e-02 65.2472 -188.0934)">
		<stop  offset="0" style="stop-color:#EF4136"/>
		<stop  offset="1" style="stop-color:#FBB040"/>
	</linearGradient>
	<circle class="st63" cx="7" cy="3.6" r="0.1"/>
	
		<linearGradient id="SVGID_65_" gradientUnits="userSpaceOnUse" x1="-36.1864" y1="10.3307" x2="-35.1864" y2="10.3307" gradientTransform="matrix(8.535423e-03 -5.3173 -5.3173 -8.535423e-03 59.2692 -189.9041)">
		<stop  offset="0" style="stop-color:#EF4136"/>
		<stop  offset="1" style="stop-color:#FBB040"/>
	</linearGradient>
	<circle class="st64" cx="4" cy="2.3" r="0.1"/>
	
		<linearGradient id="SVGID_66_" gradientUnits="userSpaceOnUse" x1="-36.1688" y1="10.3548" x2="-35.1688" y2="10.3548" gradientTransform="matrix(1.808071e-02 -5.3429 -5.3429 -1.808071e-02 61.844 -189.0621)">
		<stop  offset="0" style="stop-color:#EF4136"/>
		<stop  offset="1" style="stop-color:#FBB040"/>
	</linearGradient>
	<circle class="st65" cx="5.9" cy="3.9" r="0.1"/>
	
		<linearGradient id="SVGID_67_" gradientUnits="userSpaceOnUse" x1="-36.1642" y1="10.3179" x2="-35.1642" y2="10.3179" gradientTransform="matrix(3.106470e-02 -5.3114 -5.3114 -3.106470e-02 61.4593 -187.8488)">
		<stop  offset="0" style="stop-color:#EF4136"/>
		<stop  offset="1" style="stop-color:#FBB040"/>
	</linearGradient>
	<circle class="st66" cx="5.5" cy="3.8" r="0.1"/>
	
		<linearGradient id="SVGID_68_" gradientUnits="userSpaceOnUse" x1="-29.0043" y1="14.2792" x2="-28.0043" y2="14.2792" gradientTransform="matrix(5.3256 -8.222131e-02 -8.222131e-02 -5.3256 162.0436 75.6682)">
		<stop  offset="0" style="stop-color:#EF4136"/>
		<stop  offset="1" style="stop-color:#FBB040"/>
	</linearGradient>
	<circle class="st67" cx="6.5" cy="2" r="0.1"/>
	
		<linearGradient id="SVGID_69_" gradientUnits="userSpaceOnUse" x1="-28.9764" y1="14.3091" x2="-27.9764" y2="14.3091" gradientTransform="matrix(5.3094 -4.873832e-02 -4.873832e-02 -5.3094 160.1532 78.6392)">
		<stop  offset="0" style="stop-color:#EF4136"/>
		<stop  offset="1" style="stop-color:#FBB040"/>
	</linearGradient>
	<circle class="st68" cx="5.7" cy="4.1" r="0.1"/>
	
		<linearGradient id="SVGID_70_" gradientUnits="userSpaceOnUse" x1="-36.1486" y1="10.3427" x2="-35.1486" y2="10.3427" gradientTransform="matrix(3.889454e-02 -5.337 -5.337 -3.889454e-02 62.8894 -188.3258)">
		<stop  offset="0" style="stop-color:#EF4136"/>
		<stop  offset="1" style="stop-color:#FBB040"/>
	</linearGradient>
	<circle class="st69" cx="6.3" cy="4.1" r="0.1"/>
	
		<linearGradient id="SVGID_71_" gradientUnits="userSpaceOnUse" x1="-28.9798" y1="14.29" x2="-27.9798" y2="14.29" gradientTransform="matrix(5.3073 -6.618263e-02 -6.618263e-02 -5.3073 159.7635 76.412)">
		<stop  offset="0" style="stop-color:#EF4136"/>
		<stop  offset="1" style="stop-color:#FBB040"/>
	</linearGradient>
	<circle class="st70" cx="5.1" cy="2.5" r="0.1"/>
	
		<linearGradient id="SVGID_72_" gradientUnits="userSpaceOnUse" x1="-28.998" y1="14.2493" x2="-27.998" y2="14.2493" gradientTransform="matrix(5.3118 -0.1063 -0.1063 -5.3118 160.1821 75.2798)">
		<stop  offset="0" style="stop-color:#EF4136"/>
		<stop  offset="1" style="stop-color:#FBB040"/>
	</linearGradient>
	<circle class="st71" cx="4.7" cy="2.7" r="0.1"/>
	
		<linearGradient id="SVGID_73_" gradientUnits="userSpaceOnUse" x1="-28.9797" y1="14.3659" x2="-27.9797" y2="14.3659" gradientTransform="matrix(5.3269 0 0 -5.3269 158.6802 80.5781)">
		<stop  offset="0" style="stop-color:#EF4136"/>
		<stop  offset="1" style="stop-color:#FBB040"/>
	</linearGradient>
	<circle class="st72" cx="4.4" cy="4.1" r="0.1"/>
</g>
<g id="SvgjsG3861" transform="matrix(1.3603854172300935,0,0,1.3603854172300935,-2.2446360681661175,101.93913281123228)">
	<path class="st73" d="M1.7,24.2c0-0.2,0-0.3,0.1-0.4c0.1-0.1,0.2-0.2,0.4-0.2h4.3c0.1,0,0.2,0,0.4,0.1s0.2,0.2,0.3,0.3
		c1.1,1.8,2.2,3.6,3.3,5.3s2.2,3.5,3.3,5.3V24.1c0-0.2,0.1-0.3,0.2-0.4s0.2-0.1,0.4-0.1h3.7c0.2,0,0.3,0.1,0.5,0.2s0.2,0.2,0.2,0.4
		v18.4c0,0.2-0.1,0.3-0.2,0.4c-0.1,0.1-0.2,0.1-0.4,0.1h-4.2c-0.1,0-0.2,0-0.3-0.1c-0.1-0.1-0.2-0.2-0.3-0.3
		c-1.2-1.9-2.3-3.8-3.5-5.7s-2.3-3.8-3.5-5.7v11.3c0,0.2,0,0.3-0.1,0.4c-0.1,0.1-0.2,0.1-0.5,0.1H2.2c-0.2,0-0.3-0.1-0.4-0.2
		c-0.1-0.1-0.1-0.2-0.1-0.4C1.7,42.5,1.7,24.2,1.7,24.2z M22.1,34.8c0-0.8,0.1-1.6,0.3-2.3c0.2-0.7,0.5-1.4,0.9-2.1s0.8-1.2,1.3-1.7
		c0.5-0.5,1.1-1,1.7-1.3c0.6-0.4,1.3-0.7,2.1-0.9c0.7-0.2,1.5-0.3,2.3-0.3c1.2,0,2.3,0.2,3.4,0.7c1,0.4,2,1.1,2.7,1.8
		c0.8,0.8,1.4,1.7,1.8,2.7c0.5,1,0.7,2.2,0.7,3.4c0,0.8-0.1,1.6-0.3,2.3c-0.2,0.7-0.5,1.4-0.9,2.1c-0.4,0.6-0.8,1.2-1.3,1.7
		c-0.5,0.5-1.1,1-1.7,1.3c-0.6,0.4-1.3,0.7-2.1,0.9s-1.5,0.3-2.3,0.3c-0.8,0-1.6-0.1-2.3-0.3c-0.7-0.2-1.4-0.5-2.1-0.9
		s-1.2-0.8-1.7-1.3c-0.5-0.5-1-1.1-1.3-1.7s-0.7-1.3-0.9-2.1C22.2,36.4,22.1,35.6,22.1,34.8z M26.9,34.8c0,0.6,0.1,1.1,0.3,1.6
		c0.2,0.5,0.4,0.9,0.8,1.3c0.3,0.4,0.7,0.7,1.2,0.9c0.5,0.2,1,0.3,1.6,0.3c0.6,0,1.1-0.1,1.5-0.3c0.5-0.2,0.8-0.5,1.2-0.9
		c0.3-0.4,0.6-0.8,0.7-1.3c0.2-0.5,0.3-1,0.3-1.6c0-0.6-0.1-1.1-0.3-1.6c-0.2-0.5-0.4-1-0.7-1.3c-0.3-0.4-0.7-0.7-1.2-0.9
		c-0.5-0.2-1-0.3-1.5-0.3c-0.6,0-1.1,0.1-1.6,0.3c-0.5,0.2-0.9,0.5-1.2,0.9s-0.6,0.8-0.8,1.3C27,33.7,26.9,34.2,26.9,34.8z
		 M41.9,27.4c0-0.1,0-0.3,0.1-0.4c0.1-0.1,0.1-0.2,0.2-0.3c0.2-0.1,0.5-0.2,0.7-0.2h2c0.2,0,0.3,0,0.4,0.1c0.1,0.1,0.2,0.1,0.2,0.2
		c0.1,0.1,0.1,0.2,0.2,0.3s0.1,0.2,0.2,0.4c0,0,0.1,0.1,0.1,0.3c0.1,0.1,0.1,0.3,0.2,0.4c0.1,0.2,0.1,0.3,0.2,0.5
		c0.1,0.1,0.1,0.2,0.1,0.3c0.3-0.3,0.5-0.6,0.8-0.9c0.2-0.3,0.5-0.6,0.8-0.9s0.6-0.5,0.9-0.7c0.3-0.2,0.7-0.3,1.2-0.3
		c0.5,0,0.9,0,1.3,0.1c0.4,0.1,0.7,0.2,1.1,0.3c0.3,0.1,0.7,0.3,1,0.5c0.3,0.2,0.7,0.5,1.1,0.7c0.6,0.3,0.7,0.8,0.3,1.4l-1.2,2
		c-0.2,0.3-0.4,0.4-0.6,0.5c-0.3,0.1-0.5,0-0.8-0.1c-0.4-0.4-0.8-0.6-1.1-0.8s-0.8-0.3-1.3-0.3c-0.3,0-0.6,0-0.9,0.1
		c-0.3,0.1-0.5,0.2-0.7,0.4s-0.4,0.4-0.6,0.6c-0.2,0.2-0.4,0.5-0.6,0.8v9.5c0,0.3-0.1,0.6-0.2,0.8c-0.2,0.2-0.4,0.3-0.8,0.3h-3
		c-0.7,0-1-0.3-1-1C41.9,42.1,41.9,27.4,41.9,27.4z M58,23.8c0-0.3,0.1-0.5,0.3-0.6c0.2-0.1,0.4-0.3,0.8-0.4l3-1c0,0,0.1,0,0.1,0
		h0.1c0.3,0,0.5,0.1,0.7,0.3c0.1,0.2,0.2,0.4,0.2,0.7l0,4.1h2.2c0.3,0,0.5,0.1,0.7,0.2c0.2,0.2,0.3,0.4,0.3,0.7v2.5
		c0,0.4-0.1,0.6-0.3,0.8s-0.4,0.3-0.7,0.3h-2.2l0,10.6c0,0.3-0.1,0.6-0.3,0.8c-0.2,0.2-0.5,0.3-0.8,0.3h-3c-0.7,0-1-0.3-1-1l0-10.6
		h-1c-0.7,0-1-0.4-1-1.1v-2.5c0-0.7,0.3-1,1-1h1L58,23.8z M73.4,28.2c0.2-0.2,0.4-0.5,0.6-0.7s0.5-0.5,0.8-0.6
		c0.3-0.2,0.7-0.3,1.1-0.5c0.4-0.1,0.9-0.2,1.4-0.2c1,0,1.9,0.2,2.7,0.6s1.4,0.9,2,1.6c0.5,0.7,1,1.4,1.2,2.3
		c0.3,0.9,0.4,1.8,0.4,2.8v8.6c0,0.3-0.1,0.6-0.2,0.8c-0.1,0.2-0.4,0.3-0.7,0.3h-3c-0.4,0-0.6-0.1-0.8-0.2c-0.1-0.1-0.2-0.4-0.2-0.7
		v-8.7c0-0.4-0.1-0.7-0.2-1.1s-0.3-0.6-0.6-0.8c-0.2-0.2-0.5-0.4-0.9-0.6c-0.3-0.1-0.7-0.2-1-0.2c-0.3,0-0.6,0.1-0.9,0.2
		c-0.3,0.1-0.6,0.3-0.8,0.5c-0.2,0.2-0.4,0.5-0.6,0.8c-0.2,0.3-0.3,0.7-0.3,1.1v8.7c0,0.1,0,0.3-0.1,0.4s-0.1,0.3-0.3,0.3
		c-0.1,0.1-0.2,0.1-0.3,0.1c-0.1,0-0.2,0-0.3,0h-3c-0.4,0-0.6-0.1-0.8-0.3c-0.2-0.2-0.2-0.4-0.2-0.7V31.4v-0.1v-3.9v-0.1v-4.9
		c0-0.3,0.1-0.5,0.2-0.7s0.4-0.3,0.8-0.3h3c0.2,0,0.4,0.1,0.7,0.2c0.1,0.1,0.2,0.2,0.3,0.3s0.1,0.3,0.1,0.4
		C73.4,22.4,73.4,28.2,73.4,28.2z M100.7,41.1c-0.8,0.7-1.6,1.3-2.6,1.7c-1,0.4-2,0.6-3.1,0.6c-1.2,0-2.3-0.2-3.4-0.7s-2-1-2.8-1.8
		c-0.8-0.8-1.4-1.7-1.9-2.7c-0.5-1.1-0.7-2.2-0.7-3.4c0-0.8,0.1-1.5,0.3-2.2c0.2-0.7,0.5-1.4,0.8-2c0.3-0.6,0.8-1.2,1.3-1.7
		c0.5-0.5,1-1,1.7-1.4s1.3-0.7,2-0.9c0.7-0.2,1.5-0.3,2.3-0.3c0.7,0,1.4,0.1,2.1,0.3c0.7,0.2,1.3,0.5,1.9,0.8
		c0.6,0.4,1.1,0.8,1.6,1.3c0.5,0.5,0.9,1,1.3,1.6s0.6,1.2,0.8,1.9c0.2,0.7,0.3,1.3,0.3,2c0,0.5,0,0.8,0,1.1c0,0.3-0.1,0.5-0.2,0.7
		s-0.3,0.3-0.6,0.4c-0.3,0.1-0.7,0.1-1.3,0.1h-9.5c0.1,0.6,0.3,1,0.5,1.4s0.6,0.7,0.9,0.9c0.4,0.2,0.7,0.4,1.1,0.5
		c0.4,0.1,0.8,0.1,1.1,0.1c0.3,0,0.6,0,1-0.1c0.3-0.1,0.7-0.2,1-0.3c0.3-0.1,0.6-0.2,0.9-0.4c0.3-0.1,0.5-0.3,0.6-0.5
		c0.1-0.1,0.3-0.2,0.4-0.3s0.2-0.1,0.3-0.1c0.1,0,0.2,0,0.3,0.1c0.1,0.1,0.3,0.2,0.4,0.3l1.4,1.6c0.1,0.1,0.2,0.2,0.2,0.3
		c0,0.1,0,0.2,0,0.3c0,0.2,0,0.3-0.1,0.5C101,40.9,100.9,41,100.7,41.1L100.7,41.1z M94.4,30.2c-0.3,0-0.7,0.1-1,0.2
		c-0.3,0.1-0.6,0.3-0.9,0.5c-0.3,0.2-0.5,0.5-0.8,0.8c-0.2,0.3-0.4,0.6-0.5,0.9h6.7c-0.2-0.3-0.4-0.7-0.6-0.9s-0.5-0.5-0.7-0.8
		c-0.3-0.2-0.6-0.4-0.9-0.5C95.3,30.2,94.9,30.2,94.4,30.2L94.4,30.2z M105.4,27.4c0-0.1,0-0.3,0.1-0.4c0.1-0.1,0.1-0.2,0.2-0.3
		c0.2-0.1,0.5-0.2,0.7-0.2h2c0.2,0,0.3,0,0.4,0.1c0.1,0.1,0.2,0.1,0.2,0.2c0.1,0.1,0.1,0.2,0.2,0.3s0.1,0.2,0.2,0.4
		c0,0,0.1,0.1,0.1,0.3c0.1,0.1,0.1,0.3,0.2,0.4s0.1,0.3,0.2,0.5c0.1,0.1,0.1,0.2,0.1,0.3c0.3-0.3,0.5-0.6,0.8-0.9
		c0.2-0.3,0.5-0.6,0.8-0.9c0.3-0.3,0.6-0.5,0.9-0.7c0.3-0.2,0.7-0.3,1.2-0.3c0.5,0,0.9,0,1.3,0.1s0.7,0.2,1.1,0.3
		c0.3,0.1,0.7,0.3,1,0.5c0.3,0.2,0.7,0.5,1.1,0.7c0.6,0.3,0.7,0.8,0.3,1.4l-1.2,2c-0.2,0.3-0.4,0.4-0.6,0.5c-0.3,0.1-0.5,0-0.8-0.1
		c-0.4-0.4-0.8-0.6-1.1-0.8c-0.4-0.2-0.8-0.3-1.3-0.3c-0.3,0-0.6,0-0.9,0.1c-0.3,0.1-0.5,0.2-0.7,0.4c-0.2,0.2-0.4,0.4-0.6,0.6
		c-0.2,0.2-0.4,0.5-0.6,0.8v9.5c0,0.3-0.1,0.6-0.2,0.8c-0.2,0.2-0.4,0.3-0.8,0.3h-3c-0.7,0-1-0.3-1-1L105.4,27.4L105.4,27.4z
		 M120.8,26.7c0.1-0.1,0.2-0.2,0.4-0.2c0.1,0,0.2,0,0.4,0h2c0.2,0,0.3,0,0.4,0.1c0.1,0.1,0.2,0.1,0.3,0.2c0.1,0.1,0.1,0.2,0.2,0.3
		c0,0.1,0.1,0.2,0.1,0.4l0.4,1.7c0.1-0.3,0.3-0.6,0.6-0.9c0.2-0.3,0.6-0.7,1-1s0.8-0.6,1.4-0.8c0.5-0.2,1.1-0.3,1.8-0.3
		c1,0,1.9,0.2,2.7,0.6c0.8,0.4,1.5,0.9,2.1,1.6c0.6,0.7,1,1.4,1.3,2.3s0.5,1.8,0.5,2.8v8.6c0,0.3-0.1,0.6-0.2,0.8
		c-0.1,0.2-0.4,0.3-0.7,0.3h-3c-0.4,0-0.6-0.1-0.8-0.2c-0.1-0.1-0.2-0.4-0.2-0.7v-8.5c0-0.4-0.1-0.7-0.3-1.1s-0.4-0.6-0.7-0.9
		c-0.3-0.3-0.6-0.5-1-0.6c-0.4-0.1-0.7-0.2-1.1-0.2c-0.3,0-0.6,0.1-1,0.2c-0.3,0.1-0.6,0.3-0.9,0.6c-0.3,0.2-0.5,0.5-0.7,0.9
		c-0.2,0.3-0.3,0.7-0.3,1.1v8.5c0,0.1,0,0.3-0.1,0.4c-0.1,0.1-0.1,0.3-0.3,0.3c-0.1,0.1-0.2,0.1-0.3,0.1c-0.1,0-0.2,0-0.3,0h-3
		c-0.4,0-0.6-0.1-0.8-0.3c-0.2-0.2-0.2-0.4-0.2-0.7V27.4c0-0.2,0-0.3,0.1-0.5C120.7,26.8,120.8,26.7,120.8,26.7L120.8,26.7z
		 M163.1,25c0.1,0.1,0.3,0.2,0.3,0.3c0.1,0.1,0.1,0.3,0,0.5l-2.2,3.2c-0.1,0.1-0.2,0.2-0.3,0.3s-0.2,0-0.4-0.1
		c-0.4-0.3-0.9-0.6-1.4-0.7c-0.5-0.2-1.1-0.3-1.6-0.3c-0.7,0-1.4,0.1-2,0.4s-1.1,0.6-1.6,1.1c-0.4,0.5-0.8,1-1,1.7
		c-0.2,0.6-0.4,1.3-0.4,2c0,0.7,0.1,1.4,0.4,2c0.2,0.6,0.6,1.2,1,1.6c0.4,0.5,1,0.8,1.6,1.1c0.6,0.3,1.3,0.4,2,0.4
		c0.6,0,1.1-0.1,1.7-0.3c0.5-0.2,1-0.4,1.4-0.8c0.2-0.1,0.3-0.1,0.4-0.1c0.1,0,0.2,0.1,0.3,0.2l2.2,3.2c0.1,0.2,0.1,0.4,0,0.5
		c-0.1,0.1-0.2,0.2-0.3,0.3c-0.8,0.6-1.7,1-2.7,1.3c-0.9,0.3-2,0.5-3,0.5c-0.9,0-1.8-0.1-2.7-0.4s-1.7-0.6-2.4-1
		c-0.7-0.4-1.4-1-2-1.6c-0.6-0.6-1.1-1.3-1.6-2c-0.4-0.7-0.8-1.5-1-2.4c-0.2-0.9-0.4-1.7-0.4-2.7c0-0.9,0.1-1.8,0.4-2.7
		c0.2-0.9,0.6-1.7,1-2.4c0.4-0.7,1-1.4,1.6-2s1.3-1.1,2-1.6c0.7-0.4,1.5-0.8,2.4-1s1.7-0.4,2.7-0.4c1.1,0,2,0.1,3,0.4
		C161.4,24.1,162.3,24.5,163.1,25L163.1,25z M165.7,34.8c0-0.8,0.1-1.6,0.3-2.3c0.2-0.7,0.5-1.4,0.9-2.1c0.4-0.6,0.8-1.2,1.3-1.7
		c0.5-0.5,1.1-1,1.7-1.3c0.6-0.4,1.3-0.7,2.1-0.9c0.7-0.2,1.5-0.3,2.3-0.3c1.2,0,2.3,0.2,3.4,0.7c1,0.4,2,1.1,2.7,1.8
		c0.8,0.8,1.4,1.7,1.8,2.7c0.5,1,0.7,2.2,0.7,3.4c0,0.8-0.1,1.6-0.3,2.3c-0.2,0.7-0.5,1.4-0.9,2.1s-0.8,1.2-1.3,1.7
		c-0.5,0.5-1.1,1-1.7,1.3c-0.6,0.4-1.3,0.7-2.1,0.9c-0.7,0.2-1.5,0.3-2.3,0.3c-0.8,0-1.6-0.1-2.3-0.3c-0.7-0.2-1.4-0.5-2.1-0.9
		c-0.6-0.4-1.2-0.8-1.7-1.3c-0.5-0.5-1-1.1-1.3-1.7c-0.4-0.6-0.7-1.3-0.9-2.1C165.8,36.4,165.7,35.6,165.7,34.8L165.7,34.8z
		 M170.5,34.8c0,0.6,0.1,1.1,0.3,1.6s0.4,0.9,0.8,1.3c0.3,0.4,0.7,0.7,1.2,0.9c0.5,0.2,1,0.3,1.6,0.3c0.6,0,1.1-0.1,1.5-0.3
		c0.5-0.2,0.8-0.5,1.2-0.9c0.3-0.4,0.6-0.8,0.7-1.3s0.3-1,0.3-1.6c0-0.6-0.1-1.1-0.3-1.6c-0.2-0.5-0.4-1-0.7-1.3
		c-0.3-0.4-0.7-0.7-1.2-0.9c-0.5-0.2-1-0.3-1.5-0.3c-0.6,0-1.1,0.1-1.6,0.3c-0.5,0.2-0.9,0.5-1.2,0.9c-0.3,0.4-0.6,0.8-0.8,1.3
		C170.6,33.7,170.5,34.2,170.5,34.8z M185.9,26.7c0.1-0.1,0.2-0.2,0.4-0.2c0.1,0,0.2,0,0.4,0h2c0.2,0,0.3,0,0.4,0.1
		c0.1,0.1,0.2,0.1,0.3,0.2c0.1,0.1,0.1,0.2,0.2,0.3c0,0.1,0.1,0.2,0.1,0.4l0.4,1.7c0.1-0.3,0.3-0.6,0.5-0.9c0.2-0.3,0.4-0.7,0.7-1
		c0.3-0.3,0.7-0.6,1.2-0.8c0.5-0.2,1.1-0.3,1.8-0.3c1.1,0,2.1,0.2,2.9,0.7c0.8,0.5,1.5,1.1,2.1,1.9c0.2-0.3,0.4-0.6,0.7-0.9
		s0.6-0.6,1-0.9c0.4-0.3,0.9-0.5,1.4-0.7c0.5-0.2,1.1-0.3,1.7-0.3c1,0,1.9,0.2,2.7,0.6c0.8,0.4,1.4,0.9,2,1.6c0.5,0.7,1,1.4,1.2,2.3
		c0.3,0.9,0.4,1.8,0.4,2.8v8.6c0,0.3-0.1,0.6-0.2,0.8c-0.1,0.2-0.4,0.3-0.7,0.3h-3c-0.4,0-0.6-0.1-0.8-0.2c-0.1-0.1-0.2-0.4-0.2-0.7
		v-8.7c0-0.4-0.1-0.7-0.2-1.1s-0.3-0.6-0.5-0.8c-0.2-0.2-0.5-0.4-0.8-0.6c-0.3-0.1-0.6-0.2-1-0.2c-0.3,0-0.6,0.1-0.9,0.2
		c-0.3,0.1-0.6,0.3-0.8,0.5c-0.2,0.2-0.4,0.5-0.5,0.8c-0.1,0.3-0.2,0.7-0.2,1.1v8.6c0,0.3-0.1,0.6-0.2,0.8c-0.1,0.2-0.4,0.3-0.7,0.3
		h-0.3h-0.1h-2.7c-0.4,0-0.6-0.1-0.8-0.2c-0.1-0.1-0.2-0.4-0.2-0.7v-8.7c0-0.4-0.1-0.7-0.2-1.1s-0.3-0.6-0.5-0.8
		c-0.2-0.2-0.5-0.4-0.7-0.6c-0.3-0.1-0.6-0.2-1-0.2c-0.3,0-0.6,0.1-0.9,0.2c-0.3,0.1-0.6,0.3-0.8,0.5c-0.2,0.2-0.4,0.5-0.6,0.8
		c-0.2,0.3-0.3,0.7-0.3,1.1v8.7c0,0.1,0,0.3-0.1,0.4c-0.1,0.1-0.1,0.3-0.3,0.3c-0.1,0.1-0.2,0.1-0.3,0.1c-0.1,0-0.2,0-0.3,0h-3
		c-0.4,0-0.6-0.1-0.8-0.3c-0.2-0.2-0.2-0.4-0.2-0.7V27.4c0-0.2,0-0.3,0.1-0.5C185.7,26.8,185.8,26.7,185.9,26.7L185.9,26.7z
		 M213.9,26.7c0.1-0.1,0.2-0.2,0.4-0.2c0.1,0,0.2,0,0.4,0h2c0.2,0,0.3,0,0.4,0.1c0.1,0.1,0.2,0.1,0.3,0.2c0.1,0.1,0.1,0.2,0.2,0.3
		c0,0.1,0.1,0.2,0.1,0.4l0.4,1.7c0.1-0.3,0.3-0.6,0.5-0.9c0.2-0.3,0.4-0.7,0.7-1s0.7-0.6,1.2-0.8c0.5-0.2,1.1-0.3,1.8-0.3
		c1.1,0,2.1,0.2,2.9,0.7s1.5,1.1,2.1,1.9c0.2-0.3,0.4-0.6,0.7-0.9s0.6-0.6,1-0.9c0.4-0.3,0.9-0.5,1.4-0.7c0.5-0.2,1.1-0.3,1.7-0.3
		c1,0,1.9,0.2,2.7,0.6c0.8,0.4,1.4,0.9,2,1.6c0.5,0.7,1,1.4,1.2,2.3c0.3,0.9,0.4,1.8,0.4,2.8v8.6c0,0.3-0.1,0.6-0.2,0.8
		c-0.1,0.2-0.4,0.3-0.7,0.3h-3c-0.4,0-0.6-0.1-0.8-0.2c-0.1-0.1-0.2-0.4-0.2-0.7v-8.7c0-0.4-0.1-0.7-0.2-1.1s-0.3-0.6-0.5-0.8
		c-0.2-0.2-0.5-0.4-0.8-0.6c-0.3-0.1-0.6-0.2-1-0.2c-0.3,0-0.6,0.1-0.9,0.2c-0.3,0.1-0.6,0.3-0.8,0.5c-0.2,0.2-0.4,0.5-0.5,0.8
		c-0.1,0.3-0.2,0.7-0.2,1.1v8.6c0,0.3-0.1,0.6-0.2,0.8c-0.1,0.2-0.4,0.3-0.7,0.3h-0.3h-0.1h-2.7c-0.4,0-0.6-0.1-0.8-0.2
		c-0.1-0.1-0.2-0.4-0.2-0.7v-8.7c0-0.4-0.1-0.7-0.2-1.1s-0.3-0.6-0.5-0.8c-0.2-0.2-0.5-0.4-0.7-0.6c-0.3-0.1-0.6-0.2-1-0.2
		c-0.3,0-0.6,0.1-0.9,0.2c-0.3,0.1-0.6,0.3-0.8,0.5c-0.2,0.2-0.4,0.5-0.6,0.8c-0.2,0.3-0.3,0.7-0.3,1.1v8.7c0,0.1,0,0.3-0.1,0.4
		c-0.1,0.1-0.1,0.3-0.3,0.3c-0.1,0.1-0.2,0.1-0.3,0.1c-0.1,0-0.2,0-0.3,0h-3c-0.4,0-0.6-0.1-0.8-0.3c-0.2-0.2-0.2-0.4-0.2-0.7V27.4
		c0-0.2,0-0.3,0.1-0.5C213.7,26.8,213.8,26.7,213.9,26.7L213.9,26.7z M240.7,34.8c0-0.8,0.1-1.6,0.3-2.3c0.2-0.7,0.5-1.4,0.9-2.1
		s0.8-1.2,1.3-1.7c0.5-0.5,1.1-1,1.7-1.3c0.6-0.4,1.3-0.7,2.1-0.9c0.7-0.2,1.5-0.3,2.3-0.3c1.2,0,2.3,0.2,3.4,0.7
		c1,0.4,2,1.1,2.7,1.8c0.8,0.8,1.4,1.7,1.8,2.7c0.5,1,0.7,2.2,0.7,3.4c0,0.8-0.1,1.6-0.3,2.3c-0.2,0.7-0.5,1.4-0.9,2.1
		c-0.4,0.6-0.8,1.2-1.3,1.7c-0.5,0.5-1.1,1-1.7,1.3c-0.6,0.4-1.3,0.7-2.1,0.9s-1.5,0.3-2.3,0.3c-0.8,0-1.6-0.1-2.3-0.3
		c-0.7-0.2-1.4-0.5-2.1-0.9s-1.2-0.8-1.7-1.3c-0.5-0.5-1-1.1-1.3-1.7c-0.4-0.6-0.7-1.3-0.9-2.1C240.8,36.4,240.7,35.6,240.7,34.8
		L240.7,34.8z M245.5,34.8c0,0.6,0.1,1.1,0.3,1.6c0.2,0.5,0.4,0.9,0.8,1.3c0.3,0.4,0.7,0.7,1.2,0.9c0.5,0.2,1,0.3,1.6,0.3
		c0.6,0,1.1-0.1,1.5-0.3c0.5-0.2,0.8-0.5,1.2-0.9s0.6-0.8,0.7-1.3s0.3-1,0.3-1.6c0-0.6-0.1-1.1-0.3-1.6c-0.2-0.5-0.4-1-0.7-1.3
		c-0.3-0.4-0.7-0.7-1.2-0.9c-0.5-0.2-1-0.3-1.5-0.3c-0.6,0-1.1,0.1-1.6,0.3c-0.5,0.2-0.9,0.5-1.2,0.9c-0.3,0.4-0.6,0.8-0.8,1.3
		C245.6,33.7,245.5,34.2,245.5,34.8z M272.3,41.1c-0.2,0.2-0.5,0.5-0.8,0.8s-0.6,0.5-0.9,0.8c-0.3,0.2-0.7,0.4-1.1,0.6
		c-0.4,0.2-0.8,0.2-1.3,0.2c-1.2,0-2.3-0.2-3.3-0.7c-1-0.4-1.9-1.1-2.6-1.8c-0.7-0.8-1.3-1.7-1.7-2.7c-0.4-1.1-0.6-2.2-0.6-3.4
		c0-1.2,0.2-2.3,0.6-3.4c0.4-1,1-2,1.7-2.7c0.7-0.8,1.6-1.4,2.6-1.8c1-0.4,2.1-0.7,3.3-0.7c0.5,0,0.9,0.1,1.3,0.2
		c0.4,0.1,0.8,0.3,1.1,0.5c0.3,0.2,0.6,0.5,0.9,0.7c0.3,0.3,0.5,0.5,0.8,0.8v-6c0-0.3,0.1-0.5,0.3-0.7s0.4-0.3,0.8-0.3h3
		c0.1,0,0.2,0,0.4,0.1c0.1,0,0.2,0.1,0.3,0.2c0.1,0.1,0.2,0.2,0.3,0.3c0.1,0.1,0.1,0.3,0.1,0.4v19.6c0,0.7-0.4,1-1.1,1h-2.6
		c-0.2,0-0.3,0-0.4-0.1c-0.1,0-0.2-0.1-0.2-0.2c-0.1-0.1-0.1-0.2-0.2-0.3c-0.1-0.1-0.1-0.3-0.2-0.4L272.3,41.1z M264.8,34.8
		c0,0.6,0.1,1.1,0.3,1.6c0.2,0.5,0.4,0.9,0.8,1.3c0.3,0.4,0.7,0.7,1.2,0.9c0.5,0.2,1,0.3,1.6,0.3c0.6,0,1.1-0.1,1.6-0.3
		c0.5-0.2,0.9-0.5,1.3-0.8s0.7-0.8,0.9-1.3c0.2-0.5,0.3-1,0.4-1.5v-0.2c0-0.6-0.1-1.1-0.3-1.6c-0.2-0.5-0.5-1-0.9-1.3
		c-0.4-0.4-0.8-0.7-1.3-0.9c-0.5-0.2-1-0.3-1.6-0.3c-0.6,0-1.1,0.1-1.6,0.3c-0.5,0.2-0.9,0.5-1.2,0.9c-0.3,0.4-0.6,0.8-0.8,1.3
		C264.9,33.7,264.8,34.2,264.8,34.8L264.8,34.8z M280.9,27.5c0-0.3,0.1-0.5,0.2-0.7c0.2-0.2,0.4-0.3,0.7-0.3h3c0.1,0,0.2,0,0.3,0.1
		s0.2,0.1,0.3,0.2c0.1,0.1,0.2,0.2,0.3,0.3c0.1,0.1,0.1,0.3,0.1,0.4v14.6c0,0.3-0.1,0.6-0.3,0.8c-0.2,0.2-0.4,0.3-0.8,0.3h-3
		c-0.6,0-1-0.3-1-1L280.9,27.5L280.9,27.5z M280.9,20.8c0-0.4,0.1-0.6,0.2-0.8c0.2-0.2,0.4-0.2,0.7-0.2h3c0.3,0,0.6,0.1,0.7,0.2
		c0.2,0.2,0.3,0.4,0.3,0.8v2.6c0,0.1,0,0.2-0.1,0.3c0,0.1-0.1,0.2-0.2,0.4s-0.2,0.2-0.3,0.3c-0.1,0.1-0.3,0.1-0.4,0.1h-3
		c-0.6,0-1-0.4-1-1.1C280.9,23.4,280.9,20.8,280.9,20.8z M290.1,23.8c0-0.3,0.1-0.5,0.3-0.6c0.2-0.1,0.4-0.3,0.8-0.4l3-1
		c0,0,0.1,0,0.1,0h0.1c0.3,0,0.5,0.1,0.6,0.3c0.1,0.2,0.2,0.4,0.2,0.7l0,4.1h2.2c0.3,0,0.5,0.1,0.7,0.2c0.2,0.2,0.3,0.4,0.3,0.7v2.5
		c0,0.4-0.1,0.6-0.3,0.8c-0.2,0.2-0.4,0.3-0.7,0.3h-2.2l0,10.6c0,0.3-0.1,0.6-0.3,0.8c-0.2,0.2-0.5,0.3-0.8,0.3h-3c-0.7,0-1-0.3-1-1
		l0-10.6h-1c-0.7,0-1-0.4-1-1.1v-2.5c0-0.7,0.3-1,1-1h1L290.1,23.8z M300.3,27.5c0-0.3,0.1-0.5,0.2-0.7c0.2-0.2,0.4-0.3,0.7-0.3h3
		c0.1,0,0.2,0,0.3,0.1c0.1,0,0.2,0.1,0.3,0.2c0.1,0.1,0.2,0.2,0.3,0.3s0.1,0.3,0.1,0.4v14.6c0,0.3-0.1,0.6-0.3,0.8
		c-0.2,0.2-0.4,0.3-0.8,0.3h-3c-0.6,0-1-0.3-1-1L300.3,27.5L300.3,27.5z M300.3,20.8c0-0.4,0.1-0.6,0.2-0.8c0.2-0.2,0.4-0.2,0.7-0.2
		h3c0.3,0,0.6,0.1,0.7,0.2c0.2,0.2,0.3,0.4,0.3,0.8v2.6c0,0.1,0,0.2-0.1,0.3s-0.1,0.2-0.2,0.4c-0.1,0.1-0.2,0.2-0.3,0.3
		c-0.1,0.1-0.3,0.1-0.4,0.1h-3c-0.6,0-1-0.4-1-1.1C300.3,23.4,300.3,20.8,300.3,20.8z M322.5,41.1c-0.8,0.7-1.6,1.3-2.6,1.7
		c-1,0.4-2,0.6-3.1,0.6c-1.2,0-2.3-0.2-3.4-0.7c-1.1-0.4-2-1-2.8-1.8c-0.8-0.8-1.4-1.7-1.9-2.7c-0.5-1.1-0.7-2.2-0.7-3.4
		c0-0.8,0.1-1.5,0.3-2.2c0.2-0.7,0.5-1.4,0.8-2c0.3-0.6,0.8-1.2,1.3-1.7c0.5-0.5,1-1,1.7-1.4s1.3-0.7,2-0.9c0.7-0.2,1.5-0.3,2.3-0.3
		c0.7,0,1.4,0.1,2.1,0.3s1.3,0.5,1.9,0.8c0.6,0.4,1.1,0.8,1.6,1.3c0.5,0.5,0.9,1,1.3,1.6s0.6,1.2,0.8,1.9c0.2,0.7,0.3,1.3,0.3,2
		c0,0.5,0,0.8,0,1.1c0,0.3-0.1,0.5-0.2,0.7s-0.3,0.3-0.6,0.4c-0.3,0.1-0.7,0.1-1.3,0.1h-9.5c0.1,0.6,0.3,1,0.5,1.4
		c0.3,0.4,0.6,0.7,0.9,0.9c0.4,0.2,0.7,0.4,1.1,0.5c0.4,0.1,0.8,0.1,1.1,0.1c0.3,0,0.6,0,1-0.1c0.3-0.1,0.7-0.2,1-0.3
		s0.6-0.2,0.9-0.4c0.3-0.1,0.5-0.3,0.6-0.5c0.1-0.1,0.3-0.2,0.4-0.3c0.1-0.1,0.2-0.1,0.3-0.1c0.1,0,0.2,0,0.3,0.1
		c0.1,0.1,0.3,0.2,0.4,0.3l1.4,1.6c0.1,0.1,0.2,0.2,0.2,0.3c0,0.1,0,0.2,0,0.3c0,0.2,0,0.3-0.1,0.5C322.7,40.9,322.6,41,322.5,41.1
		L322.5,41.1z M316.2,30.2c-0.3,0-0.7,0.1-1,0.2c-0.3,0.1-0.6,0.3-0.9,0.5c-0.3,0.2-0.5,0.5-0.8,0.8c-0.2,0.3-0.4,0.6-0.5,0.9h6.7
		c-0.2-0.3-0.4-0.7-0.6-0.9s-0.5-0.5-0.7-0.8c-0.3-0.2-0.6-0.4-0.9-0.5C317,30.2,316.6,30.2,316.2,30.2z M329.6,37.9
		c0.2,0.2,0.5,0.4,0.8,0.6c0.3,0.2,0.5,0.3,0.8,0.4s0.5,0.2,0.7,0.2c0.2,0,0.3,0.1,0.4,0.1c0.2,0,0.4,0,0.6,0s0.5-0.1,0.7-0.1
		c0.2-0.1,0.4-0.2,0.6-0.3c0.2-0.1,0.3-0.4,0.3-0.6c0-0.2,0-0.4-0.1-0.6c-0.1-0.1-0.2-0.3-0.4-0.4c-0.2-0.1-0.4-0.2-0.7-0.3
		c-0.3-0.1-0.6-0.2-0.9-0.3c-1.1-0.3-1.9-0.6-2.6-1s-1.2-0.8-1.6-1.3c-0.4-0.5-0.7-1-0.8-1.6c-0.2-0.6-0.2-1.2-0.2-1.8
		c0-0.7,0.1-1.4,0.4-2s0.7-1.1,1.2-1.5c0.5-0.4,1.2-0.8,1.9-1c0.7-0.2,1.6-0.3,2.5-0.3c0.6,0,1.1,0,1.5,0.1c0.5,0.1,0.9,0.2,1.4,0.4
		s0.9,0.5,1.3,0.8c0.4,0.3,0.8,0.7,1.2,1.1c0.1,0.2,0.2,0.3,0.2,0.5c0,0.2-0.1,0.3-0.3,0.5c-0.3,0.3-0.7,0.6-1,0.8
		c-0.3,0.3-0.6,0.6-1,0.9c-0.1,0.1-0.2,0.1-0.3,0.2c-0.1,0-0.2,0-0.3,0c-0.1,0-0.2-0.1-0.3-0.1c-0.1-0.1-0.2-0.1-0.2-0.2
		c-0.3-0.3-0.7-0.6-1.1-0.7c-0.4-0.1-0.8-0.2-1.1-0.2c-0.4,0-0.8,0.1-1,0.2c-0.3,0.1-0.4,0.4-0.4,0.7c0,0.2,0.1,0.4,0.3,0.5
		c0.2,0.1,0.3,0.2,0.6,0.3c0.2,0.1,0.5,0.1,0.7,0.2c0.2,0,0.5,0.1,0.7,0.2c0.8,0.3,1.5,0.5,2.2,0.8c0.7,0.3,1.2,0.7,1.7,1.1
		c0.5,0.4,0.9,1,1.1,1.6c0.3,0.6,0.4,1.3,0.4,2.2c0,0.9-0.2,1.6-0.5,2.3c-0.3,0.7-0.8,1.3-1.4,1.7c-0.6,0.5-1.3,0.8-2.1,1.1
		c-0.8,0.2-1.7,0.4-2.7,0.4c-0.5,0-1.1,0-1.7-0.1s-1.1-0.3-1.6-0.5c-0.5-0.2-1-0.5-1.5-0.8c-0.5-0.3-0.9-0.7-1.3-1.2
		c-0.1-0.1-0.2-0.3-0.2-0.4c0-0.1-0.1-0.3-0.1-0.4s0-0.3,0.1-0.4c0-0.1,0.1-0.2,0.2-0.3l1.7-1.7c0.2-0.2,0.4-0.2,0.6-0.2
		C329.1,37.5,329.3,37.7,329.6,37.9L329.6,37.9z"/>
</g>
</svg>
