<svg width="120" height="120" viewBox="0 0 120 120" fill="none" xmlns="http://www.w3.org/2000/svg">
<path d="M114.778 30.9998V102.963C114.778 104.387 114.212 105.753 113.205 106.76C112.198 107.767 110.832 108.333 109.408 108.333H10.593C9.16872 108.333 7.80274 107.767 6.7956 106.76C5.78846 105.753 5.22266 104.387 5.22266 102.963V30.9998H114.778ZM91.1486 69.6665C91.1486 66.7235 90.4612 63.2221 86.7664 63.2221H81.6108C81.1833 61.7398 80.5818 60.3006 79.8515 58.9472L83.4797 55.2954C86.2293 52.5458 83.9308 49.4954 81.7612 47.3902C79.7204 45.3924 76.8634 43.6954 74.3737 46.1872L70.7218 49.8176C69.3685 49.0872 67.9292 48.4858 66.447 48.0561V42.9006C66.447 39.2058 62.9455 38.5184 60.0026 38.5184C57.0596 38.5184 53.5581 39.2058 53.5581 42.9006V48.0561C52.0759 48.4858 50.6367 49.0872 49.2833 49.8176L45.6315 46.1872C42.884 43.4376 39.8336 45.7361 37.7263 47.8843C35.7285 49.9465 34.0315 52.8035 36.5233 55.2954L40.1515 58.9472C39.4212 60.3006 38.8197 61.7398 38.3922 63.2221H33.2367C31.0026 63.2221 29.1337 64.9406 28.9618 67.1747V72.1584C29.1337 74.3924 31.0026 76.1109 33.2367 76.1109H38.3922C38.8197 77.5932 39.4212 79.0324 40.1515 80.3858L36.5233 84.0376C33.7737 86.7872 36.0722 89.8376 38.2418 91.9428C40.2826 93.9406 43.1396 95.6376 45.6293 93.1458L49.2812 89.5154C50.6345 90.2458 52.0738 90.8472 53.556 91.2769V96.4324C53.556 98.6665 55.2745 100.535 57.5086 100.707H62.4923C64.7264 100.535 66.4449 98.6665 66.4449 96.4324V91.2769C67.9271 90.8472 69.3664 90.2458 70.7197 89.5154L74.3715 93.1458C77.119 95.8954 80.1694 93.5969 82.2767 91.4487C84.2745 89.3865 85.9715 86.5295 83.4797 84.0376L79.8515 80.3858C80.5818 79.0324 81.1833 77.5932 81.6108 76.1109H86.7664C90.4612 76.1109 91.1486 72.6095 91.1486 69.6665ZM114.778 17.0369V28.8517H5.22266V17.0369C5.22266 15.6126 5.78846 14.2466 6.7956 13.2394C7.80274 12.2323 9.16872 11.6665 10.593 11.6665H109.408C110.832 11.6665 112.198 12.2323 113.205 13.2394C114.212 14.2466 114.778 15.6126 114.778 17.0369ZM78.6249 23.4813C82.7923 23.4813 82.7923 17.0369 78.6249 17.0369H31.0004C26.8545 17.0369 26.8545 23.4813 31.0004 23.4813H78.6249ZM18.1115 23.4813C22.2575 23.4813 22.2575 17.0369 18.1115 17.0369H13.8152C9.66932 17.0369 9.66932 23.4813 13.8152 23.4813H18.1115Z" fill="white"/>
<path d="M60.0004 57.8511C66.4448 57.8511 71.8152 63.2214 71.8152 69.6659C71.8152 76.1103 66.4448 81.4807 60.0004 81.4807C53.5559 81.4807 48.1855 76.1103 48.1855 69.6659C48.1855 63.2214 53.5559 57.8511 60.0004 57.8511Z" fill="white"/>
</svg>
