<svg width="120" height="120" viewBox="0 0 120 120" fill="none" xmlns="http://www.w3.org/2000/svg">
<path fill-rule="evenodd" clip-rule="evenodd" d="M79.1897 35.9162C81.3237 36.4874 83.102 37.8461 84.1963 39.7422C86.3085 43.4009 85.2843 48.0233 81.9672 50.4794L73.7812 36.3039C75.4764 35.5687 77.3636 35.4269 79.1897 35.916V35.9162ZM28.1613 89.4525L39.5846 82.8577L24.5352 56.8275L13.1282 63.4146C9.66812 65.4122 7.18772 68.6561 6.14576 72.5475C5.10153 76.4401 5.62693 80.4899 7.62453 83.9488C10.4074 88.7665 15.4708 91.4632 20.6707 91.4632C23.2188 91.4632 25.7998 90.8155 28.1613 89.4525ZM51.9929 104.385L42.4001 87.7716L33.4463 92.9409L43.0369 109.555C44.4645 112.024 47.6318 112.872 50.1014 111.447C51.2886 110.761 52.1404 109.645 52.5009 108.306C52.8591 106.966 52.679 105.574 51.9929 104.385V104.385ZM87.665 71.6771L58.2733 20.771C57.6615 19.7093 56.6556 19.1273 55.439 19.1273C55.4161 19.1273 55.3921 19.1284 55.3692 19.1284C54.1208 19.1513 53.1106 19.7716 52.5251 20.8759C51.492 22.8254 50.4958 24.906 49.4419 27.1091C45.0064 36.373 40.0196 46.7872 29.3936 53.9114L44.5368 80.11C56.0081 74.4785 67.5177 75.3655 77.7526 76.1562C80.1916 76.3452 82.4928 76.5221 84.7002 76.603C85.9508 76.651 86.9905 76.0853 87.6339 75.015C88.2794 73.9445 88.2892 72.7585 87.6657 71.6773L87.665 71.6771ZM80.2763 19.408C79.4954 20.7624 79.9596 22.4944 81.314 23.2765C81.7428 23.5258 82.2301 23.657 82.7261 23.6567C83.7047 23.6567 84.6583 23.1487 85.1814 22.2402L91.0324 12.1102C91.8133 10.7558 91.3491 9.02371 89.9947 8.24162C88.6392 7.45975 86.9083 7.92375 86.1273 9.27814L80.2763 19.408ZM114.379 50.4699C114.379 48.9071 113.112 47.6379 111.539 47.6379L99.8452 47.639C98.2824 47.639 97.0132 48.9071 97.0132 50.4711C97.0132 52.035 98.2824 53.3031 99.8452 53.3031L111.539 53.302C113.112 53.302 114.379 52.035 114.379 50.4699ZM107.607 26.2255C106.821 24.8711 105.095 24.4071 103.741 25.1889L93.363 31.1786C92.0075 31.9618 91.5435 33.6927 92.3254 35.0483C92.5113 35.3705 92.759 35.6529 93.0541 35.8794C93.3492 36.1059 93.6861 36.272 94.0455 36.3682C94.4048 36.4645 94.7796 36.489 95.1485 36.4404C95.5173 36.3917 95.8729 36.2709 96.1951 36.0848L106.57 30.094C107.924 29.3119 108.394 27.5799 107.607 26.2255Z" fill="white"/>
</svg>
