<?xml version="1.0" encoding="utf-8"?>
<!-- Generator: Adobe Illustrator 24.1.2, SVG Export Plug-In . SVG Version: 6.00 Build 0)  -->
<svg version="1.1" id="Layer_1" xmlns="http://www.w3.org/2000/svg" xmlns:xlink="http://www.w3.org/1999/xlink" x="0px" y="0px"
	 viewBox="0 0 300 300" style="enable-background:new 0 0 300 300;" xml:space="preserve">
<style type="text/css">
	.st0{fill:none;stroke:#294456;stroke-width:6.2941;stroke-linecap:round;stroke-linejoin:round;stroke-miterlimit:10;}
	.st1{fill:#EB4963;stroke:#294456;stroke-width:3;stroke-linecap:round;stroke-linejoin:round;stroke-miterlimit:10;}
	.st2{opacity:0.21;}
	.st3{fill:#010101;}
	.st4{fill:none;stroke:#294456;stroke-width:3;stroke-linecap:round;stroke-linejoin:round;stroke-miterlimit:10;}
	.st5{fill:#C13C55;stroke:#294456;stroke-width:1.5;stroke-linecap:round;stroke-linejoin:round;stroke-miterlimit:10;}
	.st6{fill:#747987;stroke:#294456;stroke-width:3;stroke-linecap:round;stroke-linejoin:round;stroke-miterlimit:10;}
	.st7{fill:#BFBEC0;stroke:#294456;stroke-width:0.75;stroke-linecap:round;stroke-linejoin:round;stroke-miterlimit:10;}
	.st8{fill:#6C90A6;stroke:#294456;stroke-width:1.5;stroke-linecap:round;stroke-linejoin:round;stroke-miterlimit:10;}
	.st9{fill:none;stroke:#294456;stroke-width:1.5;stroke-linecap:round;stroke-linejoin:round;stroke-miterlimit:10;}
	.st10{opacity:0.3;fill:#010101;enable-background:new    ;}
</style>
<line class="st0" x1="11.98" y1="211.14" x2="289.56" y2="211.14"/>
<g>
	<path class="st1" d="M284.96,169.45H15.04V73.59c0-1.56,1.25-2.82,2.8-2.82h264.32c1.55,0,2.8,1.26,2.8,2.82L284.96,169.45
		L284.96,169.45z"/>
	<g class="st2">
		<path class="st3" d="M282.16,70.77h-9.72v88.29H15.04v10.39h269.93V73.59C284.97,72.03,283.71,70.77,282.16,70.77z"/>
	</g>
	<path class="st4" d="M284.96,169.45H15.04V73.59c0-1.56,1.25-2.82,2.8-2.82h264.32c1.55,0,2.8,1.26,2.8,2.82L284.96,169.45
		L284.96,169.45z"/>
	<path class="st5" d="M32.83,171.72c0,1.57-1.26,2.83-2.82,2.83c-1.56,0-2.82-1.27-2.82-2.83V81.95c0-1.57,1.26-2.83,2.82-2.83
		c1.56,0,2.82,1.26,2.82,2.83V171.72z"/>
	<path class="st5" d="M54.61,171.72c0,1.57-1.26,2.83-2.82,2.83s-2.82-1.27-2.82-2.83V81.95c0-1.57,1.26-2.83,2.82-2.83
		s2.82,1.26,2.82,2.83V171.72z"/>
	<path class="st5" d="M76.4,171.72c0,1.57-1.26,2.83-2.82,2.83c-1.56,0-2.82-1.27-2.82-2.83V81.95c0-1.57,1.26-2.83,2.82-2.83
		c1.56,0,2.82,1.26,2.82,2.83V171.72z"/>
	<path class="st5" d="M98.18,171.72c0,1.57-1.26,2.83-2.82,2.83s-2.82-1.27-2.82-2.83V81.95c0-1.57,1.26-2.83,2.82-2.83
		s2.82,1.26,2.82,2.83V171.72z"/>
	<path class="st5" d="M119.96,171.72c0,1.57-1.26,2.83-2.82,2.83c-1.56,0-2.82-1.27-2.82-2.83V81.95c0-1.57,1.26-2.83,2.82-2.83
		c1.56,0,2.82,1.26,2.82,2.83V171.72z"/>
	<path class="st5" d="M141.74,171.72c0,1.57-1.26,2.83-2.82,2.83c-1.56,0-2.82-1.27-2.82-2.83V81.95c0-1.57,1.26-2.83,2.82-2.83
		c1.56,0,2.82,1.26,2.82,2.83V171.72z"/>
	<path class="st5" d="M163.53,171.72c0,1.57-1.26,2.83-2.82,2.83c-1.56,0-2.82-1.27-2.82-2.83V81.95c0-1.57,1.26-2.83,2.82-2.83
		c1.56,0,2.82,1.26,2.82,2.83V171.72z"/>
	<path class="st5" d="M185.31,171.72c0,1.57-1.26,2.83-2.82,2.83c-1.56,0-2.82-1.27-2.82-2.83V81.95c0-1.57,1.26-2.83,2.82-2.83
		c1.56,0,2.82,1.26,2.82,2.83V171.72z"/>
	<path class="st5" d="M207.09,171.72c0,1.57-1.26,2.83-2.82,2.83c-1.56,0-2.82-1.27-2.82-2.83V81.95c0-1.57,1.26-2.83,2.82-2.83
		c1.56,0,2.82,1.26,2.82,2.83V171.72z"/>
	<path class="st5" d="M228.88,171.72c0,1.57-1.27,2.83-2.82,2.83c-1.56,0-2.82-1.27-2.82-2.83V81.95c0-1.57,1.26-2.83,2.82-2.83
		c1.56,0,2.82,1.26,2.82,2.83V171.72z"/>
	<path class="st5" d="M250.65,171.72c0,1.57-1.26,2.83-2.82,2.83c-1.56,0-2.82-1.27-2.82-2.83V81.95c0-1.57,1.26-2.83,2.82-2.83
		c1.56,0,2.82,1.26,2.82,2.83V171.72z"/>
	<path class="st5" d="M272.44,171.72c0,1.57-1.26,2.83-2.82,2.83c-1.55,0-2.82-1.27-2.82-2.83V81.95c0-1.57,1.26-2.83,2.82-2.83
		c1.56,0,2.82,1.26,2.82,2.83V171.72z"/>
	<g>
		<path class="st6" d="M276.83,191.38c0,1.87-1.51,3.38-3.36,3.38H24.75c-1.86,0-3.36-1.51-3.36-3.38v-2.75
			c0-1.87,1.5-3.38,3.36-3.38h248.72c1.86,0,3.36,1.52,3.36,3.38L276.83,191.38L276.83,191.38z"/>
		<path class="st7" d="M298.45,167.88c-0.86,0-1.56,0.7-1.56,1.57v0.85c0,0.66-0.53,1.2-1.2,1.2h-7.79c-0.66,0-1.2-0.54-1.2-1.2
			v-0.85c0-0.87-0.7-1.57-1.56-1.57c-0.86,0-1.56,0.7-1.56,1.57v10.22c0,0.87,0.7,1.57,1.56,1.57c0.86,0,1.56-0.7,1.56-1.57v-0.75
			c0-0.64,0.51-1.16,1.15-1.16h7.88c0.63,0,1.15,0.52,1.15,1.16v0.75c0,0.87,0.7,1.57,1.56,1.57c0.86,0,1.55-0.7,1.55-1.57v-10.22
			C300,168.58,299.3,167.88,298.45,167.88z"/>
		<path class="st7" d="M14.85,167.88c-0.86,0-1.56,0.7-1.56,1.57v0.85c0,0.66-0.53,1.2-1.2,1.2H4.31c-0.66,0-1.2-0.54-1.2-1.2v-0.85
			c0-0.87-0.7-1.57-1.56-1.57c-0.86,0-1.56,0.7-1.56,1.57v10.22c0,0.87,0.7,1.57,1.56,1.57c0.86,0,1.56-0.7,1.56-1.57v-0.75
			c0-0.64,0.51-1.16,1.15-1.16h7.88c0.63,0,1.15,0.52,1.15,1.16v0.75c0,0.87,0.7,1.57,1.56,1.57c0.86,0,1.55-0.7,1.55-1.57v-10.22
			C16.41,168.58,15.71,167.88,14.85,167.88z"/>
		<path class="st8" d="M291.8,181.87c0,1.87-1.51,3.38-3.36,3.38H11.56c-1.85,0-3.36-1.52-3.36-3.38v-10.6
			c0-1.87,1.51-3.39,3.36-3.39h276.87c1.86,0,3.36,1.51,3.36,3.39L291.8,181.87L291.8,181.87z"/>
		<g class="st2">
			<path class="st3" d="M288.43,167.88h-3.41v7.92c0,1.87-1.51,3.38-3.36,3.38H8.2v2.69c0,1.87,1.51,3.38,3.36,3.38h276.87
				c1.86,0,3.36-1.52,3.36-3.38v-10.6C291.79,169.4,290.29,167.88,288.43,167.88z"/>
		</g>
		<path class="st9" d="M291.8,181.87c0,1.87-1.51,3.38-3.36,3.38H11.56c-1.85,0-3.36-1.52-3.36-3.38v-10.6
			c0-1.87,1.51-3.39,3.36-3.39h276.87c1.86,0,3.36,1.51,3.36,3.39L291.8,181.87L291.8,181.87z"/>
	</g>
	<g>
		<g>
			<path class="st6" d="M167.54,197.25c0,5.66-4.56,10.25-10.19,10.25c-5.63,0-10.19-4.6-10.19-10.25c0-5.67,4.56-10.26,10.19-10.26
				C162.98,186.99,167.54,191.58,167.54,197.25z"/>
			<path class="st8" d="M161.39,197.25c0,2.24-1.81,4.07-4.04,4.07c-2.23,0-4.04-1.82-4.04-4.07c0-2.24,1.81-4.07,4.04-4.07
				C159.58,193.18,161.39,195,161.39,197.25z"/>
			<path class="st10" d="M157.35,195.43c4.13,0,7.68,2.48,9.28,6.04c0.58-1.29,0.91-2.71,0.91-4.22c0-5.66-4.56-10.26-10.19-10.26
				c-5.63,0-10.19,4.6-10.19,10.26c0,1.51,0.33,2.93,0.91,4.22C149.68,197.91,153.22,195.43,157.35,195.43z"/>
			<path class="st4" d="M167.54,197.25c0,5.66-4.56,10.26-10.19,10.26c-5.63,0-10.19-4.59-10.19-10.26
				c0-5.66,4.56-10.26,10.19-10.26C162.98,186.99,167.54,191.59,167.54,197.25z"/>
		</g>
		<g>
			<path class="st6" d="M136.32,197.25c0,5.66-4.56,10.25-10.19,10.25c-5.63,0-10.19-4.6-10.19-10.25c0-5.67,4.56-10.26,10.19-10.26
				C131.76,186.99,136.32,191.58,136.32,197.25z"/>
			<path class="st8" d="M130.17,197.25c0,2.24-1.81,4.07-4.04,4.07c-2.23,0-4.04-1.82-4.04-4.07c0-2.24,1.81-4.07,4.04-4.07
				C128.36,193.18,130.17,195,130.17,197.25z"/>
			<path class="st10" d="M126.13,195.43c4.13,0,7.68,2.48,9.28,6.04c0.58-1.29,0.91-2.71,0.91-4.22c0-5.66-4.56-10.26-10.19-10.26
				c-5.63,0-10.19,4.6-10.19,10.26c0,1.51,0.33,2.93,0.91,4.22C118.45,197.91,122,195.43,126.13,195.43z"/>
			<path class="st4" d="M136.32,197.25c0,5.66-4.56,10.26-10.19,10.26c-5.63,0-10.19-4.59-10.19-10.26
				c0-5.66,4.56-10.26,10.19-10.26C131.75,186.99,136.32,191.59,136.32,197.25z"/>
		</g>
	</g>
	<g>
		<g>
			<path class="st6" d="M81.41,197.25c0,5.66-4.56,10.25-10.19,10.25s-10.19-4.6-10.19-10.25c0-5.67,4.57-10.26,10.19-10.26
				S81.41,191.58,81.41,197.25z"/>
			<path class="st8" d="M75.26,197.25c0,2.24-1.81,4.07-4.04,4.07c-2.23,0-4.04-1.82-4.04-4.07c0-2.24,1.81-4.07,4.04-4.07
				C73.46,193.18,75.26,195,75.26,197.25z"/>
			<path class="st10" d="M71.22,195.43c4.13,0,7.68,2.48,9.28,6.04c0.58-1.29,0.91-2.71,0.91-4.22c0-5.66-4.56-10.26-10.19-10.26
				c-5.63,0-10.19,4.6-10.19,10.26c0,1.51,0.33,2.93,0.91,4.22C63.55,197.91,67.09,195.43,71.22,195.43z"/>
			<path class="st4" d="M81.41,197.25c0,5.66-4.56,10.26-10.19,10.26c-5.63,0-10.19-4.59-10.19-10.26c0-5.66,4.56-10.26,10.19-10.26
				S81.41,191.59,81.41,197.25z"/>
		</g>
		<g>
			<path class="st6" d="M50.19,197.25c0,5.66-4.56,10.25-10.19,10.25c-5.63,0-10.19-4.6-10.19-10.25c0-5.67,4.56-10.26,10.19-10.26
				C45.63,186.99,50.19,191.58,50.19,197.25z"/>
			<path class="st8" d="M44.04,197.25c0,2.24-1.81,4.07-4.04,4.07c-2.23,0-4.04-1.82-4.04-4.07c0-2.24,1.81-4.07,4.04-4.07
				C42.23,193.18,44.04,195,44.04,197.25z"/>
			<path class="st10" d="M40,195.43c4.13,0,7.68,2.48,9.28,6.04c0.58-1.29,0.91-2.71,0.91-4.22c0-5.66-4.56-10.26-10.19-10.26
				c-5.63,0-10.19,4.6-10.19,10.26c0,1.51,0.33,2.93,0.91,4.22C32.33,197.91,35.87,195.43,40,195.43z"/>
			<path class="st4" d="M50.19,197.25c0,5.66-4.56,10.26-10.19,10.26c-5.63,0-10.19-4.59-10.19-10.26c0-5.66,4.56-10.26,10.19-10.26
				C45.63,186.99,50.19,191.59,50.19,197.25z"/>
		</g>
	</g>
	<g>
		<g>
			<path class="st6" d="M267.1,197.25c0,5.66-4.56,10.25-10.19,10.25c-5.63,0-10.19-4.6-10.19-10.25c0-5.67,4.56-10.26,10.19-10.26
				C262.54,186.99,267.1,191.58,267.1,197.25z"/>
			<path class="st8" d="M260.95,197.25c0,2.24-1.81,4.07-4.04,4.07c-2.23,0-4.04-1.82-4.04-4.07c0-2.24,1.81-4.07,4.04-4.07
				C259.14,193.18,260.95,195,260.95,197.25z"/>
			<path class="st10" d="M256.91,195.43c4.13,0,7.68,2.48,9.28,6.04c0.58-1.29,0.91-2.71,0.91-4.22c0-5.66-4.56-10.26-10.19-10.26
				c-5.63,0-10.19,4.6-10.19,10.26c0,1.51,0.33,2.93,0.91,4.22C249.24,197.91,252.78,195.43,256.91,195.43z"/>
			<path class="st4" d="M267.1,197.25c0,5.66-4.56,10.26-10.19,10.26c-5.63,0-10.19-4.59-10.19-10.26c0-5.66,4.56-10.26,10.19-10.26
				C262.54,186.99,267.1,191.59,267.1,197.25z"/>
		</g>
		<g>
			<path class="st6" d="M235.88,197.25c0,5.66-4.56,10.25-10.19,10.25c-5.63,0-10.19-4.6-10.19-10.25c0-5.67,4.56-10.26,10.19-10.26
				C231.32,186.99,235.88,191.58,235.88,197.25z"/>
			<path class="st8" d="M229.73,197.25c0,2.24-1.81,4.07-4.04,4.07c-2.23,0-4.04-1.82-4.04-4.07c0-2.24,1.81-4.07,4.04-4.07
				C227.92,193.18,229.73,195,229.73,197.25z"/>
			<path class="st10" d="M225.69,195.43c4.13,0,7.68,2.48,9.28,6.04c0.58-1.29,0.91-2.71,0.91-4.22c0-5.66-4.57-10.26-10.19-10.26
				c-5.63,0-10.19,4.6-10.19,10.26c0,1.51,0.33,2.93,0.91,4.22C218.01,197.91,221.56,195.43,225.69,195.43z"/>
			<path class="st4" d="M235.88,197.25c0,5.66-4.57,10.26-10.19,10.26c-5.63,0-10.19-4.59-10.19-10.26
				c0-5.66,4.56-10.26,10.19-10.26C231.31,186.99,235.88,191.59,235.88,197.25z"/>
		</g>
	</g>
</g>
</svg>
