<svg width="120" height="120" viewBox="0 0 120 120" fill="none" xmlns="http://www.w3.org/2000/svg">
<g clip-path="url(#clip0_1183_31)">
<path d="M116.212 108.05L108.679 100.517C110.997 97.0397 112.156 92.9831 112.156 88.9265C112.156 76.1773 101.725 65.7461 88.9754 65.7461C76.2261 65.7461 65.7949 76.1773 65.7949 88.9265C65.7949 101.676 76.2261 112.107 88.9754 112.107C93.0319 112.107 97.0885 110.948 100.566 108.63L108.099 116.164C109.258 117.323 112.735 119.641 116.212 116.164C118.53 113.846 118.53 110.368 116.212 108.05ZM88.9754 100.517C82.6007 100.517 77.3851 95.3012 77.3851 88.9265C77.3851 82.5519 82.6007 77.3363 88.9754 77.3363C95.35 77.3363 100.566 82.5519 100.566 88.9265C100.566 95.3012 95.35 100.517 88.9754 100.517Z" fill="white"/>
<path d="M88.9755 2H7.84394C4.36687 2 2.04883 4.31804 2.04883 7.79511V112.107C2.04883 115.584 4.36687 117.902 7.84394 117.902H69.8516C60.5794 111.528 54.2048 101.096 54.2048 88.9267C54.2048 69.8028 69.8516 54.156 88.9755 54.156C90.714 54.156 93.0321 54.156 94.7706 54.7355V7.79511C94.7706 4.31804 92.4526 2 88.9755 2ZM48.4097 48.3609H19.4342C15.9571 48.3609 13.639 45.4633 13.639 42.5658C13.639 39.0887 15.9571 36.7707 19.4342 36.7707H48.4097C51.8868 36.7707 54.2048 39.0887 54.2048 42.5658C54.2048 45.4633 51.8868 48.3609 48.4097 48.3609ZM77.3853 25.1804H19.4342C15.9571 25.1804 13.639 22.2829 13.639 19.3853C13.639 15.9083 15.9571 13.5902 19.4342 13.5902H77.3853C80.8623 13.5902 83.1804 15.9083 83.1804 19.3853C83.1804 22.2829 80.8623 25.1804 77.3853 25.1804Z" fill="white"/>
</g>
<defs>
<clipPath id="clip0_1183_31">
<rect width="116" height="116" fill="white" transform="translate(2 2)"/>
</clipPath>
</defs>
</svg>
