<?xml version="1.0" encoding="utf-8"?>
<!-- Generator: Adobe Illustrator 24.1.2, SVG Export Plug-In . SVG Version: 6.00 Build 0)  -->
<svg version="1.1" id="Layer_1" xmlns="http://www.w3.org/2000/svg" xmlns:xlink="http://www.w3.org/1999/xlink" x="0px" y="0px"
	 viewBox="0 0 756.31 275" style="enable-background:new 0 0 756.31 275;" xml:space="preserve">
<style type="text/css">
	.st0{fill:none;stroke:#30555C;stroke-width:1.1585;stroke-linecap:round;stroke-linejoin:round;stroke-miterlimit:10;}
	.st1{fill:#BFBEC0;stroke:#30555C;stroke-width:1.1585;stroke-linecap:round;stroke-linejoin:round;stroke-miterlimit:10;}
	.st2{opacity:0.21;}
	.st3{fill:#30555C;}
	.st4{fill:#E0E0DF;stroke:#30555C;stroke-width:1.1585;stroke-linecap:round;stroke-linejoin:round;stroke-miterlimit:10;}
	.st5{fill:#E0E0DF;stroke:#30555C;stroke-width:4.6342;stroke-linecap:round;stroke-linejoin:round;stroke-miterlimit:10;}
	.st6{fill:#B8B7BC;stroke:#30555C;stroke-width:4.6342;stroke-linecap:round;stroke-linejoin:round;stroke-miterlimit:10;}
	.st7{fill:#E0E0DF;stroke:#30555C;stroke-width:2.3171;stroke-linecap:round;stroke-linejoin:round;stroke-miterlimit:10;}
	.st8{fill:none;stroke:#30555C;stroke-width:2.3171;stroke-linecap:round;stroke-linejoin:round;stroke-miterlimit:10;}
	.st9{opacity:0.51;fill:#30555C;}
	.st10{fill:#B8B7BC;stroke:#30555C;stroke-width:1.1585;stroke-linecap:round;stroke-linejoin:round;stroke-miterlimit:10;}
	.st11{fill:#010101;}
	.st12{fill:none;stroke:#30555C;stroke-width:4.6342;stroke-linecap:round;stroke-linejoin:round;stroke-miterlimit:10;}
	.st13{fill:#386067;}
	.st14{opacity:0.32;fill:#FFFFFF;}
</style>
<g>
	<path class="st0" d="M30.76,207.74c0,2.81,2.1,5.09,4.69,5.09h30.91c2.59,0,4.69-2.28,4.69-5.09V186c0-2.81-2.1-5.09-4.69-5.09
		H35.45c-2.59,0-4.69,2.28-4.69,5.09V207.74z"/>
	<path class="st1" d="M30.76,207.74c0,2.81,2.1,5.09,4.69,5.09h30.91c2.59,0,4.69-2.28,4.69-5.09V186c0-2.81-2.1-5.09-4.69-5.09
		H35.45c-2.59,0-4.69,2.28-4.69,5.09V207.74z"/>
	<g class="st2">
		<path class="st3" d="M32.29,182.91c2.71,8.12,10.38,13.98,19.41,13.98h14.92v6.29c0,2.81-2.1,5.09-4.69,5.09H31.01
			c-0.08,0-0.16-0.02-0.25-0.03c0.24,2.57,2.21,4.59,4.64,4.59h30.92c2.59,0,4.69-2.28,4.69-5.09v-19.27H51.7
			c-6.56,0-12.4-3.09-16.14-7.89L32.29,182.91z"/>
	</g>
	<path class="st4" d="M41.11,202.49c0,1.99,1.62,3.61,3.61,3.61h8.66c1.99,0,3.61-1.62,3.61-3.61l0,0c0-2-1.62-3.61-3.61-3.61h-8.66
		C42.72,198.87,41.11,200.49,41.11,202.49L41.11,202.49z"/>
	<path class="st3" d="M45.56,182.93c0,4.07,3.92,7.37,8.76,7.37h243c4.84,0,8.77-3.3,8.77-7.37v-23.47c0-4.07-3.93-2.75-8.77-2.75
		h-243c-4.84,0-8.76,3.3-8.76,7.37V182.93z"/>
	<g>
		<path class="st5" d="M289.73,212.9c0-22.42-18.17-40.59-40.59-40.59c-22.42,0-40.59,18.18-40.59,40.59"/>
		<path class="st6" d="M216.12,212.9c0,18.24,14.78,33.02,33.02,33.02c18.23,0,33.02-14.78,33.02-33.02
			c0-18.23-14.79-33.01-33.02-33.01C230.9,179.89,216.12,194.67,216.12,212.9z"/>
		<path class="st7" d="M232.9,212.9c0,8.97,7.27,16.23,16.24,16.23c8.97,0,16.24-7.26,16.24-16.23c0-8.97-7.27-16.24-16.24-16.24
			C240.17,196.66,232.9,203.93,232.9,212.9z"/>
		<path class="st8" d="M252.02,202.25c0,0-2.89-1.44-5.78,0.19"/>
		<path class="st8" d="M259.89,209.93c0,0-0.19-3.22-3.04-4.91"/>
		<path class="st8" d="M257.18,220.57c0,0,2.7-1.78,2.73-5.09"/>
		<path class="st8" d="M246.61,223.55c0,0,2.89,1.44,5.78-0.18"/>
		<path class="st8" d="M238.74,215.88c0,0,0.2,3.22,3.04,4.91"/>
		<path class="st8" d="M241.45,205.23c0,0-2.69,1.78-2.73,5.09"/>
	</g>
	<path class="st1" d="M292.38,195.22c0,2.81,2.1,5.09,4.69,5.09h13.23c2.59,0,4.69-2.28,4.69-5.09v-10.29c0-2.81-2.1-5.09-4.69-5.09
		h-13.23c-2.59,0-4.69,2.28-4.69,5.09V195.22z"/>
	<line class="st1" x1="307.78" y1="180.08" x2="307.78" y2="199.81"/>
	<line class="st1" x1="300.32" y1="180.08" x2="300.32" y2="199.81"/>
	<path class="st1" d="M145.39,204.61c0,4.52,3.67,8.18,8.19,8.18h43.89c4.52,0,8.19-3.66,8.19-8.18v-10.34
		c0-4.52-3.67-8.18-8.19-8.18h-43.89c-4.52,0-8.19,3.67-8.19,8.18V204.61z"/>
	<g>
		<path class="st6" d="M76.11,212.9c0,18.24,14.79,33.02,33.02,33.02c18.24,0,33.02-14.78,33.02-33.02
			c0-18.23-14.78-33.01-33.02-33.01C90.9,179.89,76.11,194.67,76.11,212.9z"/>
		<path class="st7" d="M92.89,212.9c0,8.97,7.27,16.23,16.24,16.23c8.97,0,16.24-7.26,16.24-16.23c0-8.97-7.27-16.24-16.24-16.24
			C100.16,196.66,92.89,203.93,92.89,212.9z"/>
		<path class="st8" d="M112.01,202.25c0,0-2.89-1.44-5.78,0.19"/>
		<path class="st8" d="M119.88,209.93c0,0-0.2-3.22-3.04-4.91"/>
		<path class="st8" d="M117.17,220.57c0,0,2.7-1.78,2.73-5.09"/>
		<path class="st8" d="M106.6,223.55c0,0,2.88,1.44,5.77-0.18"/>
		<path class="st8" d="M98.74,215.88c0,0,0.19,3.22,3.04,4.91"/>
		<path class="st8" d="M101.44,205.23c0,0-2.69,1.78-2.73,5.09"/>
	</g>
	<g class="st2">
		<path class="st3" d="M205.65,205.32v-5.5c-1.15,2.62-3.42,4.38-6.66,4.38h-46.94c-3.21,0-5.48-1.55-6.66-3.99v5.11
			c0,4.52,3.67,8.18,8.19,8.18h43.89C201.99,213.51,205.65,209.84,205.65,205.32z"/>
	</g>
	<path class="st9" d="M248.78,191.88c16.2,0,29.64,11.67,32.46,27.05c0.35-1.94,0.56-3.93,0.56-5.97
		c0-18.23-14.79-33.02-33.02-33.02c-18.24,0-33.02,14.78-33.02,33.02c0,2.04,0.21,4.03,0.57,5.97
		C219.14,203.55,232.58,191.88,248.78,191.88z"/>
	<path class="st9" d="M109.13,191.88c16.2,0,29.64,11.67,32.45,27.05c0.35-1.94,0.56-3.93,0.56-5.97
		c0-18.23-14.78-33.02-33.02-33.02c-18.24,0-33.02,14.78-33.02,33.02c0,2.04,0.21,4.03,0.57,5.97
		C79.48,203.55,92.93,191.88,109.13,191.88z"/>
	<g class="st2">
		<path class="st3" d="M310.89,180.08v10.57c0,2.81-2.1,5.09-4.69,5.09h-13.59c-0.09,0-0.16-0.02-0.25-0.03
			c0.24,2.57,2.21,4.59,4.64,4.59h13.6c2.59,0,4.69-2.28,4.69-5.09v-11.71l-2.04-2.47L310.89,180.08z"/>
	</g>
	<path class="st0" d="M292.38,195.22c0,2.81,2.1,5.09,4.69,5.09h13.23c2.59,0,4.69-2.28,4.69-5.09v-10.29c0-2.81-2.1-5.09-4.69-5.09
		h-13.23c-2.59,0-4.69,2.28-4.69,5.09V195.22z"/>
	<path class="st0" d="M145.39,204.61c0,4.52,3.67,8.18,8.19,8.18h43.89c4.52,0,8.19-3.66,8.19-8.18v-10.34
		c0-4.52-3.67-8.18-8.19-8.18h-43.89c-4.52,0-8.19,3.67-8.19,8.18V204.61z"/>
	<path class="st3" d="M498.38,182.93c0,4.07,3.92,7.37,8.76,7.37h207.87c4.84,0,8.77-3.3,8.77-7.37v-23.47
		c0-4.07-3.92-2.74-8.77-2.74H507.14c-4.84,0-8.76,3.3-8.76,7.37V182.93z"/>
	<path class="st10" d="M751.22,118.46c2.81,0,5.08,2.1,5.08,4.69v30.91c0,2.59-2.27,4.69-5.08,4.69h-21.74
		c-2.81,0-5.09-2.1-5.09-4.69v-30.91c0-2.59,2.28-4.69,5.09-4.69H751.22z"/>
	<path class="st5" d="M146.73,164.92h600.66V43.02c0-10-8.11-18.11-18.11-18.11H164.83c-10,0-18.11,8.11-18.11,18.11V164.92z"/>
	<g>
		<path class="st5" d="M720.73,211.84c0-22.43-18.17-40.6-40.59-40.6c-22.42,0-40.6,18.17-40.6,40.6"/>
		<path class="st6" d="M647.12,211.84c0,18.23,14.78,33.02,33.02,33.02c18.23,0,33.02-14.78,33.02-33.02
			c0-18.23-14.79-33.02-33.02-33.02C661.9,178.82,647.12,193.61,647.12,211.84z"/>
		<path class="st7" d="M663.9,211.84c0,8.97,7.27,16.24,16.24,16.24c8.96,0,16.24-7.27,16.24-16.24c0-8.98-7.27-16.24-16.24-16.24
			C671.17,195.6,663.9,202.87,663.9,211.84z"/>
		<path class="st8" d="M683.03,201.2c0,0-2.89-1.45-5.78,0.18"/>
		<path class="st8" d="M690.89,208.86c0,0-0.19-3.22-3.04-4.91"/>
		<path class="st8" d="M688.18,219.5c0,0,2.7-1.78,2.73-5.09"/>
		<path class="st8" d="M677.61,222.49c0,0,2.89,1.44,5.78-0.19"/>
		<path class="st8" d="M669.74,214.82c0,0,0.2,3.22,3.04,4.91"/>
		<path class="st8" d="M672.45,204.17c0,0-2.69,1.78-2.73,5.09"/>
	</g>
	<g>
		<path class="st5" d="M633.97,211.84c0-22.43-18.17-40.6-40.59-40.6c-22.42,0-40.59,18.17-40.59,40.6"/>
		<path class="st6" d="M560.36,211.84c0,18.23,14.78,33.02,33.02,33.02c18.23,0,33.02-14.78,33.02-33.02
			c0-18.23-14.79-33.02-33.02-33.02C575.14,178.82,560.36,193.61,560.36,211.84z"/>
		<path class="st7" d="M577.14,211.84c0,8.97,7.27,16.24,16.24,16.24c8.96,0,16.24-7.27,16.24-16.24c0-8.98-7.27-16.24-16.24-16.24
			C584.4,195.6,577.14,202.87,577.14,211.84z"/>
		<path class="st8" d="M596.26,201.2c0,0-2.88-1.45-5.77,0.18"/>
		<path class="st8" d="M604.13,208.86c0,0-0.19-3.22-3.04-4.91"/>
		<path class="st8" d="M601.42,219.5c0,0,2.7-1.78,2.73-5.09"/>
		<path class="st8" d="M590.84,222.49c0,0,2.89,1.44,5.78-0.19"/>
		<path class="st8" d="M582.98,214.82c0,0,0.2,3.22,3.04,4.91"/>
		<path class="st8" d="M585.69,204.17c0,0-2.69,1.78-2.73,5.09"/>
	</g>
	<g class="st2">
		<path class="st11" d="M733.45,25.46h-18.41c8.55,0,15.49,6.94,15.49,15.49v123.46h15.88V38.7
			C746.4,30.49,739.77,25.46,733.45,25.46z"/>
	</g>
	<g>
		<path class="st9" d="M593.74,190.75c16.2,0,29.64,11.67,32.45,27.05c0.35-1.94,0.57-3.93,0.57-5.97
			c0-18.23-14.78-33.02-33.02-33.02c-18.24,0-33.02,14.78-33.02,33.02c0,2.04,0.21,4.03,0.57,5.97
			C564.09,202.43,577.54,190.75,593.74,190.75z"/>
	</g>
	<g>
		<path class="st9" d="M680.14,190.75c16.2,0,29.64,11.67,32.45,27.05c0.36-1.94,0.57-3.93,0.57-5.97
			c0-18.23-14.78-33.02-33.02-33.02c-18.24,0-33.02,14.78-33.02,33.02c0,2.04,0.21,4.03,0.57,5.97
			C650.49,202.43,663.94,190.75,680.14,190.75z"/>
	</g>
	<path class="st12" d="M146.73,164.92h600.66V43.02c0-10-8.11-18.11-18.11-18.11H164.83c-10,0-18.11,8.11-18.11,18.11V164.92z"/>
	<path class="st12" d="M647.12,211.84c0,18.23,14.78,33.02,33.02,33.02c18.23,0,33.02-14.78,33.02-33.02
		c0-18.23-14.79-33.02-33.02-33.02C661.9,178.82,647.12,193.61,647.12,211.84z"/>
	<path class="st12" d="M560.36,211.84c0,18.23,14.78,33.02,33.02,33.02c18.23,0,33.02-14.78,33.02-33.02
		c0-18.23-14.79-33.02-33.02-33.02C575.14,178.82,560.36,193.61,560.36,211.84z"/>
	<path class="st12" d="M216.12,212.9c0,18.24,14.78,33.02,33.02,33.02c18.23,0,33.02-14.78,33.02-33.02
		c0-18.23-14.79-33.01-33.02-33.01C230.9,179.89,216.12,194.67,216.12,212.9z"/>
	<path class="st12" d="M76.11,212.9c0,18.24,14.79,33.02,33.02,33.02c18.24,0,33.02-14.78,33.02-33.02
		c0-18.23-14.78-33.01-33.02-33.01C90.9,179.89,76.11,194.67,76.11,212.9z"/>
	<g>
		<path class="st1" d="M27.03,171.66c0,2.59,2.1,4.69,4.69,4.69l0,0c2.59,0,4.69-2.09,4.69-4.69V158.3c0-2.59-2.1-4.69-4.69-4.69
			l0,0c-2.59,0-4.69,2.1-4.69,4.69V171.66z"/>
		<path class="st13" d="M65.25,62.26l5.41,6.47L47.38,110.2l-10.97,1.12c0,0,2.98-7.96,12.92-25.25
			C59.27,68.79,65.25,62.26,65.25,62.26z"/>
		<g>
			<path class="st5" d="M66.02,61.97c-0.41,3.76,4.51,4.6,3.23,8.17c-0.25,0.71-0.58,1.39-0.98,2.03
				c-4.41,7.11-15.68,25.89-19.16,34.12l-11.74,6.64c-2.29,8.6-3.86,19.22-3.86,32.74c0,12.03,0,25.74,0,25.74
				c0,11.29,9.16,20.45,20.46,20.45h18.59l-0.08-0.36c0,0,4.3-21.93,31.04-23.1c15.17-0.65,30.02-0.11,32.48-0.02V75.92
				c0-11.3-9.16-20.46-20.46-20.46h-27.9c-12.1,0-17.42,0-20.45,3.7C66.52,60,66.13,60.97,66.02,61.97z"/>
		</g>
		<g class="st2">
			<path class="st11" d="M135.66,75.68c0-5.38-1.51-9.28-4.56-12.96c-3.29-3.97-8.23-6.54-14.56-6.54h-14.6
				c11.71,0,21.2,9.49,21.2,21.2v88.82c6.45,0.06,11.21,0.2,12.53,0.25V75.68z"/>
		</g>
		<line class="st5" x1="109.67" y1="130.16" x2="90.54" y2="130.16"/>
		<path class="st8" d="M117.24,125.28c0,0,0,8.85,0,15.7c0,6.86-1.44,15.52-12.99,15.52c-11.55,0-7.58,0-15.16,0
			c-7.58,0-12.27-1.09-19.12,9.74c-6.86,10.82-7.58,12.27-15.88,12.27c-12.27,0-9.92-13.35-9.92-13.35v-29.78"/>
		<path class="st13" d="M124.61,68.81v49.8H88.52l-10.46,10.46c0,0-1.7,0-9.64,0c-12.99,0-18.12,0.87-12.63-17.68
			c5.3-17.88,24.42-42.58,24.42-42.58H124.61z"/>
		<g>
			<path class="st14" d="M98.67,68.81l-41.91,41.91c0,0-2.39,7.41-2.44,10.4c-0.04,2.59-0.45,4.86,2.51,6.37
				c1.99,1.08,7.5,0.94,7.5,0.94l59.91-59.63H98.67z"/>
			<polygon class="st14" points="92.49,118.62 124.61,86.29 124.61,74.45 70.24,129.08 78.06,129.08 88.52,118.62 			"/>
		</g>
		<g>
			<path class="st3" d="M122.29,71.13v45.17H88.52h-0.96l-0.68,0.68l-9.78,9.78h-8.69c-0.62,0-1.21,0-1.79,0c-0.54,0-1.06,0-1.57,0
				c-3.99,0-7.37-0.11-8.38-1.44c-1.74-2.3,0.59-10.58,1.35-13.3c4.3-15.28,19.87-36.34,23.33-40.9H122.29 M124.61,68.81H80.2
				c0,0-19.41,24.8-24.42,42.58c-4.76,16.91-1.17,17.69,9.26,17.69c1.05,0,2.17-0.01,3.36-0.01c7.94,0,9.64,0,9.64,0l10.46-10.46
				h36.09V68.81L124.61,68.81z"/>
		</g>
		<g>
			<path class="st12" d="M66.02,61.97c-0.41,3.76,4.51,4.6,3.23,8.17c-0.25,0.71-0.58,1.39-0.98,2.03
				c-4.41,7.11-15.68,25.89-19.16,34.12l-11.74,6.64c-2.29,8.6-3.86,19.22-3.86,32.74c0,12.03,0,25.74,0,25.74
				c0,11.29,9.16,20.45,20.46,20.45h18.59l-0.08-0.36c0,0,4.3-21.93,31.04-23.1c15.17-0.65,30.02-0.11,32.48-0.02V75.92
				c0-11.3-9.16-20.46-20.46-20.46h-27.9c-12.1,0-17.42,0-20.45,3.7C66.52,60,66.13,60.97,66.02,61.97z"/>
		</g>
	</g>
</g>
</svg>
