<svg width="40" height="40" viewBox="0 0 40 40" fill="none" xmlns="http://www.w3.org/2000/svg">
<mask id="mask0_1286_1196" style="mask-type:luminance" maskUnits="userSpaceOnUse" x="0" y="0" width="40" height="40">
<path d="M39.2499 39.25V0.750118H0.75V39.25H39.2499Z" fill="white" stroke="white" stroke-width="1.5"/>
</mask>
<g mask="url(#mask0_1286_1196)">
<path d="M5.13244 5.84387C5.10735 5.86896 5.09326 5.90299 5.09326 5.93848C5.09326 5.97396 5.10735 6.00799 5.13244 6.03308C5.15754 6.05817 5.19157 6.07227 5.22705 6.07227C5.26253 6.07227 5.29656 6.05817 5.32165 6.03308C5.34674 6.00799 5.36084 5.97396 5.36084 5.93848C5.36084 5.90299 5.34674 5.86896 5.32165 5.84387C5.29656 5.81878 5.26253 5.80469 5.22705 5.80469C5.19157 5.80469 5.15754 5.81878 5.13244 5.84387Z" fill="black" stroke="black" stroke-width="1.5"/>
<path d="M8.17487 5.8961C8.16861 5.91157 8.16531 5.92807 8.16512 5.94474C8.16511 5.94574 8.16511 5.94674 8.16512 5.94775C8.16531 5.96459 8.16867 5.98106 8.17486 5.99638C8.18144 6.01264 8.1912 6.02759 8.20375 6.04029C8.2041 6.04065 8.20446 6.041 8.20482 6.04135C8.21715 6.05355 8.23162 6.06311 8.24733 6.06967C8.2635 6.07643 8.28099 6.08 8.29886 6.08C8.31672 6.08 8.33422 6.07643 8.35039 6.06968C8.3661 6.06312 8.38056 6.05356 8.3929 6.04137C8.39326 6.04101 8.39361 6.04066 8.39397 6.0403C8.40652 6.02761 8.41629 6.01266 8.42286 5.9964C8.42906 5.98108 8.43242 5.9646 8.43261 5.94777C8.43262 5.94676 8.43262 5.94576 8.43261 5.94475C8.43242 5.92809 8.42912 5.91159 8.42287 5.89612C8.41624 5.87972 8.40642 5.8648 8.39398 5.85221C8.39363 5.85186 8.39327 5.8515 8.39291 5.85115C8.3807 5.83907 8.36627 5.82945 8.35041 5.82283C8.33408 5.81601 8.31657 5.8125 8.29887 5.8125C8.28118 5.8125 8.26367 5.81601 8.24734 5.82282C8.23148 5.82944 8.21705 5.83906 8.20483 5.85114C8.20447 5.85149 8.20412 5.85185 8.20376 5.8522C8.19132 5.86478 8.1815 5.8797 8.17487 5.8961Z" fill="black" stroke="black" stroke-width="1.5"/>
<path d="M11.2755 5.84387C11.2504 5.86896 11.2363 5.90299 11.2363 5.93848C11.2363 5.97396 11.2504 6.00799 11.2755 6.03308C11.3006 6.05817 11.3346 6.07227 11.3701 6.07227C11.4056 6.07227 11.4396 6.05817 11.4647 6.03308C11.4898 6.00799 11.5039 5.97396 11.5039 5.93848C11.5039 5.90299 11.4898 5.86896 11.4647 5.84387C11.4396 5.81878 11.4056 5.80469 11.3701 5.80469C11.3346 5.80469 11.3006 5.81878 11.2755 5.84387Z" fill="black" stroke="black" stroke-width="1.5"/>
<path d="M0.585938 8.69922H36.5968" stroke="black" stroke-width="1.5" stroke-miterlimit="10" stroke-linecap="round" stroke-linejoin="round"/>
<path d="M19.2572 17.7363H16.5439V24.1758H19.2572" stroke="black" stroke-width="1.5" stroke-miterlimit="10" stroke-linecap="round" stroke-linejoin="round"/>
<path d="M19.0572 20.957H16.5439" stroke="black" stroke-width="1.5" stroke-miterlimit="10" stroke-linecap="round" stroke-linejoin="round"/>
<path d="M13.1207 18.3763C13.1207 18.3763 11.9546 17.396 10.5794 17.8103C9.3168 18.1906 9.14016 19.6467 10.0537 20.2422C10.0537 20.2422 10.9501 20.6421 11.9442 21.0088C14.3376 21.8916 13.3066 24.207 11.38 24.207C10.4152 24.207 9.60539 23.7845 9.11523 23.2437" stroke="black" stroke-width="1.5" stroke-miterlimit="10" stroke-linecap="round" stroke-linejoin="round"/>
<path d="M28.0672 20.9576C28.0672 22.7522 26.6123 24.207 24.8177 24.207C23.0232 24.207 21.5684 22.7522 21.5684 20.9576C21.5684 19.163 23.0232 17.7082 24.8177 17.7082C26.6123 17.7082 28.0672 19.163 28.0672 20.9576Z" stroke="black" stroke-width="1.5" stroke-miterlimit="10" stroke-linecap="round" stroke-linejoin="round"/>
<path d="M3.64307 21.9764V26.2943C3.64307 26.9084 4.14096 27.4062 4.75502 27.4062H27.4444" stroke="black" stroke-width="1.5" stroke-miterlimit="10" stroke-linecap="round" stroke-linejoin="round"/>
<path d="M33.5393 21.3125V15.3436C33.5393 14.7295 33.0415 14.2316 32.4274 14.2316H4.7551C4.14096 14.2316 3.64307 14.7295 3.64307 15.3436V19.2427" stroke="black" stroke-width="1.5" stroke-miterlimit="10" stroke-linecap="round" stroke-linejoin="round"/>
<path d="M36.5968 15.6154V4.66102C36.5968 3.61329 35.7475 2.764 34.6997 2.764H2.48304C1.43531 2.764 0.585938 3.61329 0.585938 4.66102V31.5716C0.585938 32.6194 1.43531 33.4688 2.48304 33.4688H21.6772" stroke="black" stroke-width="1.5" stroke-miterlimit="10" stroke-linecap="round" stroke-linejoin="round"/>
<path d="M26.8882 33.4688H34.6997C35.7475 33.4688 36.5968 32.6194 36.5968 31.5716V26.7624" stroke="black" stroke-width="1.5" stroke-miterlimit="10" stroke-linecap="round" stroke-linejoin="round"/>
<path d="M23.8392 36.057L20.8464 37.2102C20.5635 37.3192 20.2853 37.041 20.3943 36.7581L21.5474 33.7653C21.7384 33.2697 22.0311 32.8197 22.4067 32.4442L36.0899 18.7608C36.8503 18.0005 38.0832 18.0005 38.8436 18.7608C39.604 19.5213 39.604 20.7542 38.8436 21.5146L25.1604 35.1978C24.7849 35.5734 24.3348 35.8661 23.8392 36.057Z" stroke="black" stroke-width="1.5" stroke-miterlimit="10" stroke-linecap="round" stroke-linejoin="round"/>
<path d="M22.4067 32.4456L25.1605 35.1992" stroke="black" stroke-width="1.5" stroke-miterlimit="10" stroke-linecap="round" stroke-linejoin="round"/>
<path d="M33.752 21.0978L36.5056 23.8516" stroke="black" stroke-width="1.5" stroke-miterlimit="10" stroke-linecap="round" stroke-linejoin="round"/>
</g>
</svg>
