<svg width="40" height="40" viewBox="0 0 40 40" fill="none" xmlns="http://www.w3.org/2000/svg">
<g clip-path="url(#clip0_1286_1399)">
<path d="M36.2008 4.22656H38.8672C39.0122 4.22656 39.1513 4.28418 39.2539 4.38674C39.3564 4.4893 39.4141 4.6284 39.4141 4.77344V9.08012M39.4141 9.08012H17.5733M39.4141 9.08012V27.9473C39.4141 28.0923 39.3564 28.2314 39.2539 28.334C39.1513 28.4366 39.0122 28.4942 38.8672 28.4942H22.4095M17.5733 9.08012V4.77344C17.5733 4.6284 17.6309 4.4893 17.7334 4.38674C17.836 4.28418 17.9751 4.22656 18.1201 4.22656H33.6471M17.5733 9.08012V11.5069M0.585938 16.3604V12.0537C0.585937 11.9087 0.643555 11.7696 0.746115 11.667C0.848675 11.5645 0.987775 11.5069 1.13282 11.5069H21.8799C22.0249 11.5069 22.164 11.5645 22.2666 11.667C22.3691 11.7696 22.4267 11.9087 22.4267 12.0537V14.3672" stroke="black" stroke-width="1.5" stroke-miterlimit="10" stroke-linecap="round" stroke-linejoin="round"/>
<path d="M0.585938 25.8684V16.3594H20.3031M22.4267 28.0645V35.2266C22.4267 35.3717 22.3691 35.5108 22.2666 35.6133C22.164 35.7159 22.0249 35.7735 21.8799 35.7735H1.13282C0.987775 35.7735 0.848675 35.7159 0.746115 35.6133C0.643555 35.5108 0.585938 35.3717 0.585938 35.2266V28.422" stroke="black" stroke-width="1.5" stroke-miterlimit="10" stroke-linecap="round" stroke-linejoin="round"/>
<path d="M20.0003 21.474C18.1822 20.563 15.9112 20.866 14.3943 22.3829L11.7311 25.0461C9.83572 26.9415 9.83572 30.0146 11.7311 31.91C13.6265 33.8054 16.6996 33.8054 18.595 31.91L21.2582 29.2468C22.775 27.73 23.078 25.4589 22.1671 23.6408M20.2018 25.3178C20.3631 26.092 20.1431 26.9298 19.5422 27.5308L16.879 30.194C15.9312 31.1418 14.3947 31.1418 13.447 30.194C12.4993 29.2463 12.4993 27.7098 13.447 26.7621L16.1102 24.0988C16.7001 23.5089 17.5181 23.2862 18.2803 23.4307M22.2363 23.1398C24.096 24.2309 26.5264 23.9786 28.1221 22.3829L30.6961 19.8089C32.5915 17.9135 32.5915 14.8404 30.6961 12.945C28.8007 11.0496 25.7276 11.0496 23.8322 12.945L21.2582 15.519C19.7164 17.0607 19.4288 19.3817 20.3951 21.2142M25.0907 15.1184L25.5481 14.6609C26.4958 13.7132 28.0323 13.7132 28.9801 14.6609C29.9278 15.6087 29.9278 17.1452 28.9801 18.0929L26.4061 20.6669C25.8334 21.2396 25.0457 21.4662 24.3028 21.3468M22.3078 19.4144C22.1598 18.6496 22.3819 17.8273 22.9742 17.2349L23.285 16.9241" stroke="black" stroke-width="1.5" stroke-miterlimit="10" stroke-linecap="round" stroke-linejoin="round"/>
<path d="M3.31592 20.0003H10.293M3.31592 22.3824H8.46322M36.6014 25.9557H29.6243M36.6014 23.6627H31.4541M3.31592 32.1341H7.86627M3.31592 29.8613H7.86627M23.832 21.5244L20.4 24.9564C19.9262 25.4303 19.1579 25.4303 18.6841 24.9564C18.2103 24.4826 18.2103 23.7143 18.6841 23.2405L22.1161 19.8085C22.5899 19.3347 23.3582 19.3347 23.832 19.8085C24.3058 20.2823 24.3058 21.0505 23.832 21.5244Z" stroke="black" stroke-width="1.5" stroke-miterlimit="10" stroke-linecap="round" stroke-linejoin="round"/>
</g>
<defs>
<clipPath id="clip0_1286_1399">
<rect width="40" height="40" fill="white"/>
</clipPath>
</defs>
</svg>
