<svg width="40" height="40" viewBox="0 0 40 40" fill="none" xmlns="http://www.w3.org/2000/svg">
<path d="M39.1173 10.3846C38.8878 9.53716 38.4403 8.76454 37.8192 8.14371C37.1981 7.52289 36.4251 7.07552 35.5772 6.84616C32.4731 6 19.9801 6 19.9801 6C19.9801 6 7.48641 6.02561 4.38229 6.87177C3.53439 7.10115 2.76139 7.54854 2.14029 8.16939C1.51919 8.79025 1.07165 9.5629 0.842232 10.4104C-0.0966903 15.9231 -0.460915 24.3232 0.868013 29.6154C1.09745 30.4628 1.545 31.2355 2.16611 31.8563C2.78721 32.4771 3.56019 32.9245 4.40807 33.1538C7.51219 34 20.0055 34 20.0055 34C20.0055 34 32.4987 34 35.6027 33.1538C36.4506 32.9245 37.2236 32.4771 37.8447 31.8563C38.4659 31.2355 38.9134 30.4629 39.1429 29.6154C40.1332 24.0949 40.4384 15.6999 39.1173 10.3846Z" fill="#FF0000"/>
<path d="M16.0034 28.4575L26.3672 19.9201L16.0034 11.3828V28.4575Z" fill="white"/>
</svg>
